{"glyphs":{"0":{"ha":875,"x_min":49,"x_max":826,"o":"m 438 -19 q 152 119 256 -19 q 49 486 49 257 q 152 853 49 715 q 438 992 256 992 q 724 853 621 992 q 826 486 826 715 q 724 119 826 257 q 438 -19 621 -19 m 290 249 q 315 209 290 249 q 438 168 340 168 q 585 250 535 168 q 636 486 636 332 q 585 724 636 642 q 438 806 535 806 q 290 724 340 806 q 240 486 240 642 q 290 249 240 331 z "},"1":{"ha":538,"x_min":15,"x_max":438,"o":"m 271 972 l 438 972 l 438 0 l 246 0 l 246 769 l 63 718 l 15 882 l 271 972 z "},"2":{"ha":738,"x_min":31,"x_max":688,"o":"m 38 0 l 38 143 l 369 485 q 481 679 481 601 q 445 771 481 736 q 354 806 410 806 q 192 692 244 806 l 31 786 q 163 939 76 886 q 351 992 249 992 q 578 909 483 992 q 672 686 672 826 q 513 375 672 535 l 322 185 l 688 185 l 688 0 l 38 0 z "},"3":{"ha":757,"x_min":32,"x_max":713,"o":"m 490 578 q 651 476 589 549 q 713 300 713 403 q 612 65 713 150 q 365 -19 511 -19 q 162 33 251 -19 q 32 186 72 85 l 196 281 q 365 168 232 168 q 480 203 439 168 q 521 300 521 239 q 480 396 521 360 q 365 432 439 432 l 324 432 l 250 543 l 442 793 l 61 793 l 61 972 l 672 972 l 672 814 l 490 578 z "},"4":{"ha":806,"x_min":29,"x_max":786,"o":"m 786 343 l 786 165 l 682 165 l 682 0 l 489 0 l 489 165 l 29 165 l 29 343 l 353 972 l 558 972 l 236 343 l 489 343 l 489 574 l 682 574 l 682 343 l 786 343 z "},"5":{"ha":761,"x_min":35,"x_max":721,"o":"m 389 618 q 625 534 529 618 q 721 300 721 450 q 620 65 721 150 q 374 -19 519 -19 q 165 33 256 -19 q 35 189 75 86 l 199 285 q 374 168 235 168 q 488 203 447 168 q 529 300 529 239 q 489 396 529 360 q 379 432 449 432 l 85 432 l 124 972 l 675 972 l 675 793 l 301 793 l 289 618 l 389 618 z "},"6":{"ha":768,"x_min":32,"x_max":736,"o":"m 396 657 q 642 559 547 653 q 736 319 736 465 q 638 76 736 171 q 383 -19 539 -19 q 130 75 228 -19 q 32 319 32 169 q 89 515 32 431 l 392 972 l 611 972 l 396 657 m 268 204 q 291 183 268 204 q 383 161 314 161 q 499 204 453 161 q 546 319 546 247 q 499 433 546 390 q 383 476 453 476 q 268 434 314 476 q 222 319 222 392 q 268 204 222 247 z "},"7":{"ha":681,"x_min":18,"x_max":646,"o":"m 18 972 l 646 972 l 646 810 l 317 0 l 114 0 l 433 789 l 18 789 l 18 972 z "},"8":{"ha":789,"x_min":46,"x_max":743,"o":"m 608 506 q 743 271 743 425 q 649 58 743 136 q 394 -19 556 -19 q 139 58 232 -19 q 46 271 46 136 q 179 506 46 425 q 78 707 78 579 q 169 917 78 842 q 394 992 260 992 q 619 917 529 992 q 710 707 710 842 q 608 506 710 578 m 485 781 q 467 796 485 781 q 394 811 450 811 q 304 781 339 811 q 269 697 269 750 q 304 613 269 644 q 394 582 339 582 q 485 613 450 582 q 519 697 519 644 q 485 781 519 750 m 280 197 q 302 179 280 197 q 394 161 324 161 q 509 197 465 161 q 553 296 553 232 q 509 394 553 358 q 394 429 465 429 q 280 394 324 429 q 236 296 236 358 q 280 197 236 232 z "},"9":{"ha":768,"x_min":32,"x_max":736,"o":"m 736 654 q 678 457 736 542 l 679 457 l 376 0 l 157 0 l 374 317 q 127 413 222 319 q 32 654 32 507 q 130 897 32 803 q 383 992 228 992 q 638 898 540 992 q 736 654 736 804 m 222 654 q 269 539 222 582 q 383 496 315 496 q 500 539 454 496 q 546 654 546 582 q 500 769 546 726 q 383 811 454 811 q 269 768 315 811 q 222 654 222 725 z "}," ":{"ha":347,"x_min":0,"x_max":0,"o":""},"!":{"ha":372,"x_min":68,"x_max":304,"o":"m 115 326 l 78 694 l 78 972 l 293 972 l 293 694 l 257 326 l 115 326 m 269 17 q 252 -1 269 17 q 186 -18 235 -18 q 103 17 138 -18 q 68 100 68 51 q 103 183 68 149 q 186 218 138 218 q 269 183 235 218 q 304 100 304 149 q 269 17 304 51 z "},"\"":{"ha":525,"x_min":60,"x_max":465,"o":"m 83 653 l 60 972 l 229 972 l 206 653 l 83 653 m 319 653 l 296 972 l 465 972 l 442 653 l 319 653 z "},"#":{"ha":856,"x_min":32,"x_max":824,"o":"m 801 549 l 651 549 l 631 424 l 782 424 l 760 289 l 607 289 l 571 69 l 429 69 l 465 289 l 324 289 l 288 69 l 147 69 l 183 289 l 32 289 l 54 424 l 207 424 l 228 549 l 74 549 l 96 685 l 250 685 l 286 903 l 426 903 l 390 685 l 532 685 l 568 903 l 710 903 l 674 685 l 824 685 l 801 549 m 489 424 l 510 549 l 368 549 l 347 424 l 489 424 z "},"$":{"ha":763,"x_min":35,"x_max":728,"o":"m 728 272 q 650 74 728 150 q 447 -17 572 -1 l 447 -139 l 354 -139 l 354 -18 q 154 47 238 -10 q 35 201 71 104 l 200 297 q 354 171 244 186 l 354 411 q 353 411 353 411 l 350 413 q 271 444 301 431 q 199 485 240 458 q 135 540 158 511 q 95 613 113 568 q 78 710 78 657 q 158 906 78 832 q 354 990 238 979 l 354 1111 l 447 1111 l 447 988 q 714 792 636 965 l 553 697 q 447 799 519 781 l 447 567 q 621 485 576 515 q 728 272 728 408 m 268 708 q 288 655 268 678 q 354 608 307 632 l 354 803 q 290 769 313 794 q 268 708 268 744 m 447 174 q 536 271 536 193 q 515 329 536 306 q 447 374 493 353 l 447 174 z "},"%":{"ha":1063,"x_min":63,"x_max":1000,"o":"m 464 599 q 431 566 464 599 q 297 533 397 533 q 130 600 197 533 q 63 763 63 667 q 130 925 63 858 q 297 992 197 992 q 464 926 397 992 q 531 763 531 860 q 464 599 531 665 m 161 147 l 794 851 l 879 804 l 244 99 l 161 147 m 234 699 q 246 686 234 699 q 296 674 258 674 q 358 699 333 674 q 383 763 383 725 q 358 825 383 800 q 296 850 333 850 q 234 825 258 850 q 210 763 210 800 q 234 699 210 725 m 933 50 q 900 17 933 50 q 767 -17 867 -17 q 600 50 667 -17 q 533 213 533 117 q 600 375 533 308 q 767 442 667 442 q 933 375 867 442 q 1000 213 1000 308 q 933 50 1000 117 m 705 149 q 717 136 705 149 q 767 124 729 124 q 828 150 804 124 q 853 213 853 176 q 828 276 853 250 q 767 301 804 301 q 705 276 729 301 q 681 213 681 250 q 705 149 681 175 z "},"&":{"ha":935,"x_min":63,"x_max":906,"o":"m 906 56 l 753 -32 l 664 64 q 403 -19 551 -19 q 158 59 253 -19 q 63 269 63 138 q 104 429 63 356 q 225 549 146 503 q 178 711 178 624 q 264 913 178 835 q 482 992 350 992 q 669 938 586 992 q 792 783 751 885 l 628 689 q 485 806 588 806 q 402 776 435 806 q 369 703 369 747 q 388 632 369 664 q 449 556 407 600 l 657 328 q 704 489 688 393 l 865 397 q 781 193 839 285 l 906 56 m 415 157 q 544 192 488 157 l 335 419 q 332 424 332 422 q 256 289 256 376 q 297 193 256 229 q 415 157 338 157 z "},"'":{"ha":289,"x_min":60,"x_max":229,"o":"m 83 653 l 60 972 l 229 972 l 206 653 l 83 653 z "},"(":{"ha":426,"x_min":74,"x_max":406,"o":"m 226 -139 q 74 486 74 167 q 226 1111 74 806 l 406 1111 q 253 486 253 806 q 406 -139 253 167 l 226 -139 z "},")":{"ha":426,"x_min":21,"x_max":353,"o":"m 200 -139 l 21 -139 q 174 486 174 167 q 21 1111 174 806 l 200 1111 q 353 486 353 806 q 200 -139 353 167 z "},"*":{"ha":553,"x_min":74,"x_max":481,"o":"m 481 846 l 481 735 l 354 744 l 431 647 l 336 589 l 276 706 l 217 589 l 124 647 l 199 744 l 74 735 l 74 846 l 199 835 l 124 933 l 217 992 l 276 875 l 336 992 l 431 933 l 354 835 l 481 846 z "},"+":{"ha":771,"x_min":74,"x_max":699,"o":"m 699 571 l 699 403 l 469 403 l 469 174 l 301 174 l 301 403 l 74 403 l 74 571 l 301 571 l 301 799 l 469 799 l 469 571 l 699 571 z "},",":{"ha":386,"x_min":68,"x_max":318,"o":"m 318 192 l 214 -194 l 68 -194 l 124 192 l 318 192 z "},"-":{"ha":701,"x_min":90,"x_max":611,"o":"m 90 333 l 90 506 l 611 506 l 611 333 l 90 333 z "},".":{"ha":372,"x_min":68,"x_max":304,"o":"m 269 17 q 252 -1 269 17 q 186 -18 235 -18 q 103 17 138 -18 q 68 100 68 51 q 103 183 68 149 q 186 218 138 218 q 269 183 235 218 q 304 100 304 149 q 269 17 304 51 z "},"/":{"ha":726,"x_min":46,"x_max":681,"o":"m 125 -139 l 46 -139 l 601 1111 l 681 1111 l 125 -139 z "},":":{"ha":372,"x_min":68,"x_max":304,"o":"m 269 514 q 252 497 269 514 q 186 479 235 479 q 103 514 138 479 q 68 597 68 549 q 103 681 68 646 q 186 715 138 715 q 269 681 235 715 q 304 597 304 646 q 269 514 304 549 m 269 17 q 252 -1 269 17 q 186 -18 235 -18 q 103 17 138 -18 q 68 100 68 51 q 103 183 68 149 q 186 218 138 218 q 269 183 235 218 q 304 100 304 149 q 269 17 304 51 z "},";":{"ha":388,"x_min":68,"x_max":319,"o":"m 285 514 q 267 497 285 514 q 201 479 250 479 q 118 514 153 479 q 83 597 83 549 q 118 681 83 646 q 201 715 153 715 q 285 681 250 715 q 319 597 319 646 q 285 514 319 549 m 318 192 l 214 -194 l 68 -194 l 124 192 l 318 192 z "},"<":{"ha":733,"x_min":63,"x_max":671,"o":"m 671 831 l 671 644 l 267 486 l 671 329 l 671 143 l 63 407 l 63 567 l 671 831 z "},"=":{"ha":729,"x_min":63,"x_max":667,"o":"m 63 546 l 63 714 l 667 714 l 667 546 l 63 546 m 63 258 l 63 426 l 667 426 l 667 258 l 63 258 z "},">":{"ha":733,"x_min":63,"x_max":671,"o":"m 63 831 l 671 567 l 671 407 l 63 143 l 63 329 l 467 486 l 63 644 l 63 831 z "},"?":{"ha":768,"x_min":49,"x_max":696,"o":"m 271 326 q 308 443 271 388 q 388 533 344 499 q 467 613 431 567 q 504 704 504 658 q 471 779 504 753 q 378 806 438 806 q 213 682 261 806 l 49 776 q 181 935 90 879 q 385 992 272 992 q 603 919 511 992 q 696 718 696 846 q 672 610 696 660 q 613 524 647 560 q 545 458 579 489 q 487 393 511 426 q 463 326 463 360 l 271 326 m 450 17 q 433 -1 450 17 q 367 -18 415 -18 q 283 17 318 -18 q 249 100 249 51 q 283 183 249 149 q 367 218 318 218 q 450 183 415 218 q 485 100 485 149 q 450 17 485 51 z "},"@":{"ha":1082,"x_min":46,"x_max":1038,"o":"m 551 850 q 813 778 699 850 q 982 600 926 707 q 1038 375 1038 493 q 975 152 1038 231 q 817 74 913 74 q 633 183 676 74 q 496 119 581 119 q 349 184 407 119 q 292 347 292 249 q 349 510 292 446 q 496 575 407 575 q 622 524 571 575 l 622 560 l 771 560 l 771 239 q 851 138 771 138 q 948 197 911 138 q 985 375 985 257 q 860 679 985 556 q 551 803 735 803 q 228 672 360 803 q 97 347 97 540 q 233 21 97 150 q 576 -108 369 -108 q 801 -74 707 -108 l 801 -124 q 576 -156 708 -156 q 197 -13 349 -156 q 46 347 46 129 q 191 703 46 557 q 551 850 336 850 m 533 253 q 597 279 572 253 q 621 347 621 306 q 597 416 621 390 q 533 442 572 442 q 468 416 493 442 q 443 347 443 390 q 468 279 443 306 q 533 253 493 253 z "},"A":{"ha":928,"x_min":4,"x_max":924,"o":"m 715 0 l 657 175 l 269 175 l 211 0 l 4 0 l 344 972 l 582 972 l 924 0 l 715 0 m 331 354 l 597 354 l 464 751 l 331 354 z "},"B":{"ha":840,"x_min":90,"x_max":806,"o":"m 678 504 q 806 282 806 431 q 718 79 806 158 q 503 0 631 0 l 90 0 l 90 972 l 474 972 q 684 895 599 972 q 769 699 769 818 q 678 504 769 578 m 474 793 l 282 793 l 282 579 l 474 579 q 548 610 518 579 q 578 686 578 640 q 549 763 578 732 q 474 793 519 793 m 503 179 q 583 212 551 179 q 615 294 615 244 q 583 376 615 343 q 503 408 551 408 l 282 408 l 282 179 l 503 179 z "},"C":{"ha":1008,"x_min":46,"x_max":969,"o":"m 551 -19 q 189 126 332 -19 q 46 486 46 272 q 189 847 46 701 q 551 992 332 992 q 795 930 683 992 q 969 763 907 868 l 804 667 q 701 769 768 732 q 551 806 635 806 q 323 717 410 806 q 236 486 236 628 q 323 257 236 346 q 551 168 410 168 q 702 205 635 168 q 804 306 769 242 l 969 210 q 796 42 907 104 q 551 -19 685 -19 z "},"D":{"ha":990,"x_min":90,"x_max":944,"o":"m 476 972 q 810 832 676 972 q 944 486 944 692 q 810 140 944 281 q 476 0 676 0 l 90 0 l 90 972 l 476 972 m 476 183 q 682 267 603 183 q 761 486 761 351 q 682 705 761 621 q 476 789 603 789 l 282 789 l 282 183 l 476 183 z "},"E":{"ha":736,"x_min":90,"x_max":692,"o":"m 282 183 l 692 183 l 692 0 l 90 0 l 90 972 l 685 972 l 685 789 l 282 789 l 282 582 l 650 582 l 650 401 l 282 401 l 282 183 z "},"F":{"ha":721,"x_min":90,"x_max":671,"o":"m 671 789 l 282 789 l 282 558 l 660 558 l 660 375 l 282 375 l 282 0 l 90 0 l 90 972 l 671 972 l 671 789 z "},"G":{"ha":1090,"x_min":46,"x_max":1044,"o":"m 1044 522 l 1044 447 q 911 110 1044 239 q 567 -19 778 -19 q 194 127 342 -19 q 46 485 46 274 q 192 844 46 697 q 556 992 339 992 q 804 930 692 992 q 979 765 917 868 l 815 671 q 710 768 781 731 q 554 806 640 806 q 326 715 415 806 q 236 485 236 624 q 327 258 236 347 q 568 168 418 168 q 752 217 679 168 q 851 353 825 267 l 557 353 l 557 522 l 1044 522 z "},"H":{"ha":924,"x_min":90,"x_max":833,"o":"m 643 972 l 833 972 l 833 0 l 643 0 l 643 403 l 282 403 l 282 0 l 90 0 l 90 972 l 282 972 l 282 586 l 643 586 l 643 972 z "},"I":{"ha":372,"x_min":90,"x_max":282,"o":"m 90 972 l 282 972 l 282 0 l 90 0 l 90 972 z "},"J":{"ha":790,"x_min":46,"x_max":708,"o":"m 367 -19 q 46 165 138 -19 l 211 260 q 367 168 257 168 q 481 204 443 168 q 518 303 518 240 l 518 972 l 708 972 l 708 303 q 613 65 708 150 q 367 -19 517 -19 z "},"K":{"ha":854,"x_min":90,"x_max":850,"o":"m 850 0 l 629 0 l 282 456 l 282 0 l 90 0 l 90 972 l 282 972 l 282 543 l 615 972 l 836 972 l 476 500 l 850 0 z "},"L":{"ha":671,"x_min":90,"x_max":653,"o":"m 282 183 l 653 183 l 653 0 l 90 0 l 90 972 l 282 972 l 282 183 z "},"M":{"ha":1132,"x_min":90,"x_max":1042,"o":"m 1042 972 l 1042 0 l 851 0 l 851 631 l 578 179 l 556 179 l 282 629 l 282 0 l 90 0 l 90 972 l 288 972 l 567 513 l 844 972 l 1042 972 z "},"N":{"ha":935,"x_min":90,"x_max":844,"o":"m 653 972 l 844 972 l 844 0 l 699 0 l 282 594 l 282 0 l 90 0 l 90 972 l 236 972 l 653 379 l 653 972 z "},"O":{"ha":1100,"x_min":46,"x_max":1056,"o":"m 908 127 q 835 54 908 127 q 550 -19 761 -19 q 192 127 339 -19 q 46 486 46 274 q 192 845 46 699 q 550 992 339 992 q 908 845 761 992 q 1056 486 1056 699 q 908 127 1056 274 m 326 258 q 372 213 326 258 q 550 168 417 168 q 774 258 683 168 q 864 486 864 347 q 774 715 864 625 q 550 806 683 806 q 326 715 417 806 q 236 486 236 625 q 326 258 236 347 z "},"P":{"ha":819,"x_min":90,"x_max":785,"o":"m 453 972 q 689 878 593 972 q 785 646 785 783 q 689 414 785 508 q 453 319 593 319 l 282 319 l 282 0 l 90 0 l 90 972 l 453 972 m 453 499 q 554 541 514 499 q 594 646 594 583 q 554 751 594 710 q 453 793 514 793 l 282 793 l 282 499 l 453 499 z "},"Q":{"ha":1107,"x_min":46,"x_max":1056,"o":"m 1056 486 q 936 158 1056 297 l 1036 54 l 900 -67 l 794 43 q 550 -19 682 -19 q 193 127 340 -19 q 46 486 46 274 q 193 845 46 699 q 550 992 340 992 q 908 845 760 992 q 1056 486 1056 699 m 550 168 q 658 186 604 168 l 499 353 l 635 474 l 806 296 q 864 486 864 379 q 774 715 864 625 q 550 806 683 806 q 326 715 417 806 q 236 486 236 625 q 326 258 236 349 q 550 168 417 168 z "},"R":{"ha":853,"x_min":90,"x_max":831,"o":"m 624 0 l 428 338 l 282 338 l 282 0 l 90 0 l 90 972 l 479 972 q 708 878 614 972 q 803 650 803 783 q 751 483 803 560 q 615 367 700 406 l 831 0 l 624 0 m 282 793 l 282 506 l 479 506 q 572 548 533 506 q 611 650 611 590 q 572 751 611 710 q 479 793 533 793 l 282 793 z "},"S":{"ha":810,"x_min":40,"x_max":775,"o":"m 422 -19 q 179 45 278 -19 q 40 221 81 110 l 204 317 q 428 168 261 168 q 546 197 508 168 q 583 271 583 226 q 538 351 583 322 q 374 413 492 379 q 263 451 308 432 q 173 503 218 471 q 104 586 128 536 q 81 703 81 636 q 174 913 81 835 q 400 992 268 992 q 608 934 518 992 q 747 774 697 876 l 586 681 q 400 806 528 806 q 306 778 340 806 q 272 708 272 751 q 310 634 272 663 q 457 572 349 606 q 524 551 501 558 q 587 527 547 543 q 648 497 626 511 q 697 460 669 483 q 740 411 725 436 q 765 351 754 386 q 775 274 775 315 q 677 60 775 139 q 422 -19 579 -19 z "},"T":{"ha":750,"x_min":18,"x_max":733,"o":"m 733 972 l 733 789 l 471 789 l 471 0 l 279 0 l 279 789 l 18 789 l 18 972 l 733 972 z "},"U":{"ha":907,"x_min":82,"x_max":825,"o":"m 453 -19 q 186 72 290 -19 q 82 318 82 164 l 82 972 l 272 972 l 272 333 q 316 213 272 257 q 453 168 360 168 q 590 213 546 168 q 633 333 633 257 l 633 972 l 825 972 l 825 318 q 721 72 825 164 q 453 -19 617 -19 z "},"V":{"ha":899,"x_min":4,"x_max":896,"o":"m 331 0 l 4 972 l 213 972 l 450 225 l 686 972 l 896 972 l 568 0 l 331 0 z "},"W":{"ha":1388,"x_min":21,"x_max":1367,"o":"m 293 0 l 21 972 l 222 972 l 408 251 l 611 972 l 775 972 l 979 251 l 1165 972 l 1367 972 l 1094 0 l 876 0 l 693 642 l 511 0 l 293 0 z "},"X":{"ha":847,"x_min":18,"x_max":831,"o":"m 831 0 l 613 0 l 424 317 l 235 0 l 18 0 l 315 499 l 33 972 l 250 972 l 424 681 l 597 972 l 814 972 l 532 500 l 831 0 z "},"Y":{"ha":863,"x_min":4,"x_max":860,"o":"m 860 972 l 526 379 l 526 0 l 336 0 l 336 379 l 4 972 l 221 972 l 432 567 l 643 972 l 860 972 z "},"Z":{"ha":743,"x_min":50,"x_max":707,"o":"m 294 183 l 707 183 l 707 0 l 50 0 l 50 153 l 454 789 l 60 789 l 60 972 l 699 972 l 699 821 l 294 183 z "},"[":{"ha":431,"x_min":74,"x_max":403,"o":"m 403 939 l 253 939 l 253 33 l 403 33 l 403 -139 l 74 -139 l 74 1111 l 403 1111 l 403 939 z "},"\\":{"ha":726,"x_min":46,"x_max":681,"o":"m 601 -139 l 46 1111 l 125 1111 l 681 -139 l 601 -139 z "},"]":{"ha":431,"x_min":28,"x_max":357,"o":"m 357 1111 l 357 -139 l 28 -139 l 28 33 l 178 33 l 178 939 l 28 939 l 28 1111 l 357 1111 z "},"^":{"ha":778,"x_min":56,"x_max":722,"o":"m 457 972 l 722 514 l 529 514 l 389 767 l 249 514 l 56 514 l 321 972 l 457 972 z "},"_":{"ha":722,"x_min":46,"x_max":678,"o":"m 46 -237 l 46 -65 l 678 -65 l 678 -237 l 46 -237 z "},"`":{"ha":382,"x_min":28,"x_max":354,"o":"m 354 782 l 243 972 l 28 972 l 182 782 l 354 782 z "},"a":{"ha":869,"x_min":46,"x_max":789,"o":"m 610 694 l 789 694 l 789 0 l 610 0 l 610 82 q 383 -19 529 -19 q 145 87 244 -19 q 46 347 46 193 q 145 608 46 501 q 383 714 244 714 q 610 613 529 714 l 610 694 m 279 206 q 306 179 279 206 q 417 151 333 151 q 555 206 500 151 q 610 347 610 261 q 555 488 610 433 q 417 543 500 543 q 279 488 333 543 q 225 347 225 433 q 279 206 225 261 z "},"b":{"ha":869,"x_min":82,"x_max":825,"o":"m 486 714 q 726 608 626 714 q 825 347 825 501 q 726 87 825 193 q 486 -19 626 -19 q 261 82 340 -19 l 261 0 l 82 0 l 82 972 l 261 972 l 261 613 q 486 714 340 714 m 315 206 q 342 179 315 206 q 453 151 369 151 q 591 206 536 151 q 646 347 646 261 q 591 488 646 433 q 453 543 536 543 q 315 488 369 543 q 261 347 261 433 q 315 206 261 261 z "},"c":{"ha":744,"x_min":46,"x_max":726,"o":"m 413 -19 q 151 86 256 -19 q 46 347 46 192 q 151 608 46 503 q 413 714 256 714 q 597 665 514 714 q 724 535 681 617 l 569 444 q 506 513 549 488 q 411 538 464 538 q 278 484 331 538 q 225 347 225 431 q 278 212 225 265 q 411 158 331 158 q 508 183 465 158 q 571 250 550 207 l 726 161 q 597 30 681 79 q 413 -19 514 -19 z "},"d":{"ha":869,"x_min":44,"x_max":788,"o":"m 608 972 l 788 972 l 788 0 l 608 0 l 608 82 q 383 -19 529 -19 q 144 87 243 -19 q 44 347 44 193 q 144 608 44 501 q 383 714 243 714 q 608 613 529 714 l 608 972 m 278 206 q 306 179 278 206 q 417 151 333 151 q 554 206 500 151 q 608 347 608 261 q 554 488 608 433 q 417 543 500 543 q 278 488 333 543 q 224 347 224 433 q 278 206 224 261 z "},"e":{"ha":807,"x_min":46,"x_max":764,"o":"m 233 274 q 429 143 269 143 q 585 213 532 143 l 729 129 q 426 -19 626 -19 q 150 85 254 -19 q 46 347 46 189 q 149 609 46 504 q 413 714 251 714 q 665 608 565 714 q 764 347 764 503 q 757 274 764 313 l 233 274 m 231 413 l 585 413 q 522 518 569 483 q 413 553 474 553 q 293 516 340 553 q 231 413 246 479 z "},"f":{"ha":456,"x_min":29,"x_max":456,"o":"m 456 819 q 308 701 308 831 l 308 694 l 456 694 l 456 522 l 308 522 l 308 0 l 129 0 l 129 522 l 29 522 l 29 694 l 129 694 l 129 701 q 211 925 129 849 q 456 992 293 1001 l 456 819 z "},"g":{"ha":869,"x_min":46,"x_max":789,"o":"m 614 694 l 789 694 l 789 33 q 683 -212 789 -128 q 426 -297 576 -297 q 228 -254 314 -297 q 97 -128 143 -211 l 250 -40 q 432 -137 303 -137 q 565 -93 517 -137 q 614 33 614 -49 l 614 108 q 392 3 535 3 q 145 106 244 3 q 46 358 46 210 q 146 610 46 506 q 392 714 246 714 q 614 608 535 714 l 614 694 m 280 222 q 307 195 280 222 q 419 168 335 168 q 559 222 504 168 q 614 358 614 275 q 559 494 614 440 q 419 547 504 547 q 280 494 335 547 q 225 358 225 440 q 280 222 225 275 z "},"h":{"ha":801,"x_min":82,"x_max":731,"o":"m 468 714 q 656 638 582 714 q 731 426 731 561 l 731 0 l 551 0 l 551 404 q 514 510 551 474 q 414 547 476 547 q 303 504 344 547 q 261 375 261 461 l 261 0 l 82 0 l 82 972 l 261 972 l 261 617 q 468 714 326 714 z "},"i":{"ha":343,"x_min":61,"x_max":282,"o":"m 171 778 q 94 810 126 778 q 61 888 61 843 q 94 965 61 932 q 171 999 126 999 q 249 965 217 999 q 282 888 282 932 q 249 810 282 843 q 171 778 217 778 m 82 0 l 82 694 l 261 694 l 261 0 l 82 0 z "},"j":{"ha":367,"x_min":-18,"x_max":306,"o":"m 196 778 q 117 810 150 778 q 85 888 85 843 q 117 965 85 932 q 196 999 150 999 q 273 965 240 999 q 306 888 306 932 q 273 810 306 843 q 196 778 240 778 m 106 -14 l 106 694 l 285 694 l 285 -14 q 210 -237 285 -167 q -18 -297 136 -307 l -18 -125 q 76 -103 46 -129 q 106 -14 106 -76 z "},"k":{"ha":729,"x_min":82,"x_max":722,"o":"m 722 0 l 514 0 l 261 315 l 261 0 l 82 0 l 82 972 l 261 972 l 261 389 l 500 694 l 714 694 l 435 351 l 722 0 z "},"l":{"ha":343,"x_min":82,"x_max":261,"o":"m 82 0 l 82 1014 l 261 1014 l 261 0 l 82 0 z "},"m":{"ha":1183,"x_min":82,"x_max":1113,"o":"m 850 714 q 1041 636 969 714 q 1113 428 1113 558 l 1113 0 l 933 0 l 933 415 q 903 513 933 478 q 817 547 872 547 q 722 507 756 547 q 688 390 688 467 l 688 0 l 508 0 l 508 415 q 478 513 508 478 q 392 547 447 547 q 297 507 332 547 q 261 390 261 467 l 261 0 l 82 0 l 82 694 l 261 694 l 261 621 q 454 714 324 714 q 643 614 582 714 q 850 714 713 714 z "},"n":{"ha":801,"x_min":82,"x_max":731,"o":"m 468 714 q 656 638 582 714 q 731 426 731 561 l 731 0 l 551 0 l 551 404 q 514 510 551 474 q 414 547 476 547 q 303 504 344 547 q 261 375 261 461 l 261 0 l 82 0 l 82 694 l 261 694 l 261 617 q 468 714 326 714 z "},"o":{"ha":825,"x_min":46,"x_max":781,"o":"m 674 87 q 620 34 674 87 q 413 -19 567 -19 q 152 87 258 -19 q 46 347 46 193 q 152 608 46 501 q 413 714 258 714 q 674 608 567 714 q 781 347 781 501 q 674 87 781 193 m 278 210 q 305 183 278 210 q 413 156 332 156 q 547 210 493 156 q 601 347 601 264 q 547 485 601 431 q 413 539 493 539 q 278 485 332 539 q 225 347 225 431 q 278 210 225 264 z "},"p":{"ha":869,"x_min":82,"x_max":825,"o":"m 486 714 q 726 608 626 714 q 825 347 825 501 q 726 87 825 193 q 486 -19 626 -19 q 261 82 340 -19 l 261 -278 l 82 -278 l 82 694 l 261 694 l 261 613 q 486 714 340 714 m 315 206 q 342 179 315 206 q 453 151 369 151 q 591 206 536 151 q 646 347 646 261 q 591 488 646 433 q 453 543 536 543 q 315 488 369 543 q 261 347 261 433 q 315 206 261 261 z "},"q":{"ha":869,"x_min":44,"x_max":788,"o":"m 608 694 l 788 694 l 788 -278 l 608 -278 l 608 82 q 383 -19 529 -19 q 144 87 243 -19 q 44 347 44 193 q 144 608 44 501 q 383 714 243 714 q 608 613 529 714 l 608 694 m 278 206 q 306 179 278 206 q 417 151 333 151 q 554 206 500 151 q 608 347 608 261 q 554 488 608 433 q 417 543 500 543 q 278 488 333 543 q 224 347 224 433 q 278 206 224 261 z "},"r":{"ha":494,"x_min":82,"x_max":472,"o":"m 261 575 q 344 675 286 642 q 472 708 401 708 l 472 508 q 326 475 390 518 q 261 332 261 432 l 261 0 l 82 0 l 82 694 l 261 694 l 261 575 z "},"s":{"ha":646,"x_min":35,"x_max":606,"o":"m 247 497 q 284 452 247 469 q 374 422 321 435 q 479 388 426 408 q 569 321 532 368 q 606 203 606 274 q 526 38 606 96 q 326 -19 446 -19 q 35 146 113 -19 l 190 233 q 326 143 221 143 q 422 203 422 143 q 385 248 422 231 q 296 279 349 265 q 190 314 243 293 q 101 380 138 335 q 64 493 64 425 q 140 655 64 596 q 328 714 215 714 q 482 676 413 714 q 592 567 551 638 l 439 483 q 328 554 406 554 q 270 539 293 554 q 247 497 247 524 z "},"t":{"ha":535,"x_min":22,"x_max":479,"o":"m 479 522 l 322 522 l 322 233 q 340 181 322 197 q 393 162 358 164 q 479 163 428 160 l 479 0 q 219 35 294 -21 q 143 233 143 90 l 143 522 l 22 522 l 22 694 l 143 694 l 143 835 l 322 889 l 322 694 l 479 694 l 479 522 z "},"u":{"ha":801,"x_min":71,"x_max":719,"o":"m 540 694 l 719 694 l 719 0 l 540 0 l 540 78 q 333 -19 475 -19 q 145 57 219 -19 q 71 268 71 133 l 71 694 l 250 694 l 250 290 q 288 184 250 221 q 388 147 325 147 q 499 190 457 147 q 540 319 540 233 l 540 694 z "},"v":{"ha":740,"x_min":4,"x_max":736,"o":"m 539 694 l 736 694 l 472 0 l 268 0 l 4 694 l 201 694 l 369 208 l 539 694 z "},"w":{"ha":1069,"x_min":15,"x_max":1054,"o":"m 864 694 l 1054 694 l 833 0 l 663 0 l 535 421 l 407 0 l 236 0 l 15 694 l 206 694 l 324 268 l 450 694 l 619 694 l 746 267 l 864 694 z "},"x":{"ha":729,"x_min":7,"x_max":722,"o":"m 722 0 l 515 0 l 365 211 l 214 0 l 7 0 l 261 354 l 18 694 l 225 694 l 365 499 l 506 694 l 711 694 l 468 356 l 722 0 z "},"y":{"ha":729,"x_min":4,"x_max":726,"o":"m 535 694 l 726 694 l 474 0 q 330 -217 419 -150 q 107 -278 240 -285 l 107 -111 q 222 -81 179 -112 q 289 22 264 -49 l 4 694 l 200 694 l 381 228 l 535 694 z "},"z":{"ha":658,"x_min":60,"x_max":608,"o":"m 300 168 l 608 168 l 608 0 l 60 0 l 60 119 l 353 526 l 74 526 l 74 694 l 594 694 l 594 575 l 300 168 z "},"{":{"ha":499,"x_min":69,"x_max":471,"o":"m 471 -149 q 179 110 179 -169 l 179 315 q 153 389 179 372 q 69 401 126 406 l 69 575 q 153 588 126 571 q 179 661 179 604 l 179 867 q 471 1125 179 1146 l 471 953 q 385 942 413 960 q 358 867 358 924 l 358 661 q 275 489 358 535 q 358 315 358 442 l 358 110 q 385 35 358 53 q 471 24 413 17 l 471 -149 z "},"|":{"ha":360,"x_min":90,"x_max":269,"o":"m 90 -278 l 90 1000 l 269 1000 l 269 -278 l 90 -278 z "},"}":{"ha":499,"x_min":28,"x_max":429,"o":"m 28 -149 l 28 24 q 113 35 86 17 q 140 110 140 53 l 140 315 q 224 489 140 442 q 140 661 140 535 l 140 867 q 113 942 140 924 q 28 953 86 960 l 28 1125 q 319 867 319 1146 l 319 661 q 346 588 319 604 q 429 575 372 571 l 429 401 q 346 389 372 406 q 319 315 319 372 l 319 110 q 28 -149 319 -169 z "},"~":{"ha":832,"x_min":63,"x_max":769,"o":"m 624 615 l 769 544 q 638 367 733 407 q 422 388 542 326 q 334 424 367 414 q 276 432 301 435 q 236 410 250 429 q 208 354 222 392 l 63 424 q 194 601 99 560 q 410 582 290 642 q 521 539 483 547 q 582 548 558 531 q 624 615 606 565 z "},"¡":{"ha":372,"x_min":68,"x_max":304,"o":"m 103 678 q 120 695 103 678 q 186 713 138 713 q 269 678 235 713 q 304 594 304 643 q 269 511 304 546 q 186 476 235 476 q 103 511 138 476 q 68 594 68 546 q 103 678 68 643 m 115 368 l 257 368 l 293 0 l 293 -278 l 78 -278 l 78 0 l 115 368 z "},"¢":{"ha":744,"x_min":46,"x_max":726,"o":"m 571 389 l 726 300 q 597 169 681 218 q 413 119 514 119 q 328 129 365 119 l 286 0 l 206 0 l 254 153 q 102 285 158 196 q 46 486 46 374 q 151 747 46 642 q 413 853 256 853 q 479 847 450 853 l 519 972 l 600 972 l 553 825 q 724 674 668 779 l 569 583 q 497 656 546 632 l 383 299 q 411 297 392 297 q 508 322 465 297 q 571 389 550 346 m 225 486 q 310 325 225 378 l 424 676 l 411 676 q 278 623 331 676 q 225 486 225 569 z "},"£":{"ha":807,"x_min":46,"x_max":792,"o":"m 338 185 l 792 185 l 792 0 l 46 0 l 46 185 l 147 185 l 147 381 l 63 381 l 63 549 l 147 549 l 147 688 q 238 913 147 835 q 453 992 329 992 q 637 938 558 992 q 754 789 715 885 l 589 694 q 457 806 553 806 q 372 774 406 806 q 338 681 338 742 l 338 549 l 619 549 l 619 381 l 338 381 l 338 185 z "},"¤":{"ha":754,"x_min":46,"x_max":710,"o":"m 675 486 q 613 304 675 382 l 710 207 l 657 154 l 558 253 q 378 194 483 194 q 196 251 275 194 l 99 154 l 46 207 l 142 304 q 79 486 79 382 q 142 669 79 589 l 46 765 l 99 818 l 196 721 q 378 779 276 779 q 558 721 478 779 l 657 818 l 710 765 l 613 668 q 675 486 675 588 m 378 364 q 465 399 431 364 q 499 486 499 433 q 465 574 499 540 q 378 608 431 608 q 290 574 324 608 q 257 486 257 540 q 290 398 257 432 q 378 364 324 364 z "},"¥":{"ha":835,"x_min":4,"x_max":860,"o":"m 860 972 l 596 503 l 738 503 l 738 392 l 533 392 l 526 379 l 526 329 l 738 329 l 738 217 l 526 217 l 526 0 l 336 0 l 336 217 l 99 217 l 99 329 l 336 329 l 336 379 l 329 392 l 99 392 l 99 503 l 267 503 l 4 972 l 221 972 l 432 567 l 643 972 l 860 972 z "},"¦":{"ha":360,"x_min":90,"x_max":269,"o":"m 90 486 l 90 1000 l 269 1000 l 269 486 l 90 486 m 90 -278 l 90 236 l 269 236 l 269 -278 l 90 -278 z "},"§":{"ha":753,"x_min":68,"x_max":701,"o":"m 701 394 q 619 217 701 288 q 665 78 665 160 q 586 -94 665 -33 q 386 -156 507 -156 q 79 19 153 -156 l 239 111 q 386 3 276 3 q 486 78 486 3 q 481 101 486 90 q 463 123 475 113 q 439 142 451 133 q 405 159 426 150 q 367 175 383 168 q 324 192 351 182 q 281 210 297 203 q 126 306 183 251 q 68 451 68 360 q 154 625 68 560 q 113 763 113 679 q 190 931 113 869 q 378 992 267 992 q 544 947 469 992 q 656 817 618 903 l 508 736 q 378 833 464 833 q 315 815 339 833 q 292 763 292 796 q 317 713 292 736 q 369 677 343 689 q 454 642 396 665 q 482 631 472 635 q 563 593 529 611 q 631 547 596 575 q 683 481 665 519 q 701 394 701 442 m 247 461 q 360 353 247 396 q 415 333 367 350 q 490 304 464 315 q 522 374 522 332 q 492 438 522 414 q 399 488 461 463 q 281 532 297 525 q 247 461 247 507 z "},"¨":{"ha":507,"x_min":28,"x_max":479,"o":"m 188 790 q 175 776 188 790 q 122 763 161 763 q 56 790 83 763 q 28 856 28 817 q 56 922 28 894 q 122 950 83 950 q 188 922 161 950 q 215 856 215 894 q 188 790 215 817 m 452 790 q 439 776 452 790 q 386 763 425 763 q 319 790 347 763 q 292 856 292 817 q 319 922 292 894 q 386 950 347 950 q 452 922 425 950 q 479 856 479 894 q 452 790 479 817 z "},"©":{"ha":1096,"x_min":46,"x_max":1051,"o":"m 904 131 q 831 57 904 131 q 549 -17 757 -17 q 193 131 340 -17 q 46 486 46 278 q 193 842 46 694 q 549 989 340 989 q 904 842 757 989 q 1051 486 1051 694 q 904 131 1051 278 m 549 31 q 867 164 735 31 q 999 486 999 297 q 867 808 999 675 q 549 942 735 942 q 229 808 361 942 q 97 486 97 675 q 229 164 97 297 q 549 31 361 31 m 553 214 q 358 294 439 214 q 278 486 278 375 q 358 678 278 597 q 553 758 439 758 q 688 723 625 758 q 785 625 750 688 l 651 547 q 549 604 622 604 q 464 569 496 604 q 432 486 432 535 q 464 403 432 438 q 549 368 496 368 q 651 426 621 368 l 786 347 q 688 250 751 286 q 553 214 625 214 z "},"«":{"ha":757,"x_min":88,"x_max":669,"o":"m 406 690 l 253 429 l 406 169 l 240 169 l 88 429 l 240 690 l 406 690 m 669 690 l 517 429 l 669 169 l 504 169 l 351 429 l 504 690 l 669 690 z "},"¬":{"ha":764,"x_min":63,"x_max":701,"o":"m 63 571 l 701 571 l 701 238 l 522 238 l 522 403 l 63 403 l 63 571 z "},"®":{"ha":1096,"x_min":46,"x_max":1051,"o":"m 193 842 q 267 915 193 842 q 549 989 340 989 q 904 842 757 989 q 1051 486 1051 694 q 904 131 1051 278 q 549 -17 757 -17 q 193 131 340 -17 q 46 486 46 278 q 193 842 46 694 m 549 31 q 867 164 735 31 q 999 486 999 297 q 867 808 999 675 q 549 942 735 942 q 229 808 361 942 q 97 486 97 675 q 229 164 97 297 q 549 31 361 31 m 764 572 q 688 418 764 472 l 793 229 l 633 229 l 560 382 l 507 382 l 507 229 l 358 229 l 358 743 l 565 743 q 707 695 650 743 q 764 572 764 647 m 507 608 l 507 507 l 553 507 q 599 521 582 507 q 615 557 615 535 q 553 608 615 608 l 507 608 z "},"¯":{"ha":458,"x_min":28,"x_max":431,"o":"m 28 783 l 28 929 l 431 929 l 431 783 l 28 783 z "},"°":{"ha":557,"x_min":46,"x_max":513,"o":"m 279 667 q 113 734 179 667 q 46 896 46 801 q 113 1058 46 992 q 279 1125 179 1125 q 446 1058 379 1125 q 513 896 513 992 q 447 733 513 800 q 279 667 381 667 m 220 836 q 232 824 220 836 q 279 813 243 813 q 338 836 315 813 q 361 896 361 860 q 338 956 361 932 q 279 979 315 979 q 220 956 243 979 q 197 896 197 932 q 220 836 197 860 z "},"±":{"ha":771,"x_min":74,"x_max":699,"o":"m 469 697 l 699 697 l 699 529 l 469 529 l 469 326 l 301 326 l 301 529 l 74 529 l 74 697 l 301 697 l 301 900 l 469 900 l 469 697 m 74 74 l 74 242 l 699 242 l 699 74 l 74 74 z "},"´":{"ha":382,"x_min":28,"x_max":354,"o":"m 28 782 l 200 782 l 354 972 l 139 972 l 28 782 z "},"µ":{"ha":857,"x_min":82,"x_max":825,"o":"m 775 168 l 825 168 l 825 0 l 742 0 q 588 69 638 0 q 386 -19 522 -19 q 261 11 314 -19 l 261 -278 l 82 -278 l 82 694 l 261 694 l 261 292 q 299 185 261 222 q 399 147 336 147 q 510 190 468 147 q 551 319 551 233 l 551 694 l 731 694 l 731 213 q 775 168 731 168 z "},"¶":{"ha":929,"x_min":35,"x_max":865,"o":"m 865 972 l 865 815 l 779 815 l 779 -278 l 611 -278 l 611 815 l 501 815 l 501 -278 l 333 -278 l 333 375 q 122 463 210 375 q 35 674 35 550 q 122 885 35 797 q 333 972 210 972 l 865 972 z "},"·":{"ha":372,"x_min":68,"x_max":304,"o":"m 269 399 q 252 381 269 399 q 186 364 235 364 q 103 399 138 364 q 68 482 68 433 q 103 565 68 531 q 186 600 138 600 q 269 565 235 600 q 304 482 304 531 q 269 399 304 433 z "},"¸":{"ha":361,"x_min":28,"x_max":333,"o":"m 236 -64 q 305 -101 276 -74 q 333 -172 333 -128 q 28 -300 333 -318 l 28 -174 q 178 -146 178 -183 q 90 -111 178 -118 l 90 0 l 236 0 l 236 -64 z "},"»":{"ha":757,"x_min":88,"x_max":669,"o":"m 253 690 l 406 429 l 253 169 l 88 169 l 240 429 l 88 690 l 253 690 m 517 690 l 669 429 l 517 169 l 351 169 l 504 429 l 351 690 l 517 690 z "},"¼":{"ha":1131,"x_min":4,"x_max":1108,"o":"m 301 417 l 153 417 l 153 822 l 39 790 l 4 913 l 171 972 l 301 972 l 301 417 m 718 972 l 843 972 l 288 0 l 163 0 l 718 972 m 1108 225 l 1108 89 l 1051 89 l 1051 0 l 910 0 l 910 89 l 650 89 l 650 225 l 829 556 l 988 556 l 817 225 l 910 225 l 910 321 l 1051 321 l 1051 225 l 1108 225 z "},"½":{"ha":1129,"x_min":4,"x_max":1083,"o":"m 301 417 l 153 417 l 153 822 l 39 790 l 4 913 l 171 972 l 301 972 l 301 417 m 718 972 l 843 972 l 288 0 l 163 0 l 718 972 m 890 135 l 1083 135 l 1083 0 l 668 0 l 668 97 l 876 304 q 925 389 925 350 q 910 425 925 411 q 868 439 894 439 q 782 368 811 439 l 661 438 q 869 575 719 575 q 1017 526 958 575 q 1075 400 1075 476 q 981 221 1075 315 l 890 135 z "},"¾":{"ha":1243,"x_min":14,"x_max":1221,"o":"m 446 585 q 389 446 446 494 q 231 397 332 397 q 14 521 69 397 l 139 593 q 231 528 163 528 q 297 585 297 528 q 278 625 297 610 q 226 640 258 640 l 200 640 l 144 721 l 240 838 l 39 838 l 39 972 l 421 972 l 421 863 l 321 743 q 413 685 381 726 q 446 585 446 644 m 831 972 l 956 972 l 400 0 l 275 0 l 831 972 m 1221 225 l 1221 89 l 1164 89 l 1164 0 l 1022 0 l 1022 89 l 763 89 l 763 225 l 942 556 l 1100 556 l 929 225 l 1022 225 l 1022 321 l 1164 321 l 1164 225 l 1221 225 z "},"¿":{"ha":768,"x_min":72,"x_max":719,"o":"m 318 678 q 335 695 318 678 q 401 713 353 713 q 485 678 450 713 q 519 594 519 643 q 485 511 519 546 q 401 476 450 476 q 318 511 353 476 q 283 594 283 546 q 318 678 283 643 m 497 368 q 473 273 497 318 q 415 194 449 228 q 347 131 381 161 q 288 64 313 100 q 264 -10 264 28 q 297 -85 264 -58 q 390 -111 331 -111 q 556 13 507 -111 l 719 -82 q 587 -241 678 -185 q 383 -297 496 -297 q 165 -224 257 -297 q 72 -24 72 -151 q 97 85 72 35 q 155 170 121 135 q 223 237 189 206 q 281 301 257 268 q 306 368 306 335 l 497 368 z "},"À":{"ha":928,"x_min":4,"x_max":924,"o":"m 578 1060 l 406 1060 l 251 1250 l 467 1250 l 578 1060 m 715 0 l 657 175 l 269 175 l 211 0 l 4 0 l 344 972 l 582 972 l 924 0 l 715 0 m 331 354 l 597 354 l 464 751 l 331 354 z "},"Á":{"ha":928,"x_min":4,"x_max":924,"o":"m 679 1250 l 525 1060 l 353 1060 l 464 1250 l 679 1250 m 715 0 l 657 175 l 269 175 l 211 0 l 4 0 l 344 972 l 582 972 l 924 0 l 715 0 m 331 354 l 597 354 l 464 751 l 331 354 z "},"Â":{"ha":928,"x_min":4,"x_max":924,"o":"m 460 1139 l 399 1049 l 221 1049 l 368 1250 l 550 1250 l 697 1049 l 519 1049 l 460 1139 m 715 0 l 657 175 l 269 175 l 211 0 l 4 0 l 344 972 l 582 972 l 924 0 l 715 0 m 331 354 l 597 354 l 464 751 l 331 354 z "},"Ã":{"ha":928,"x_min":4,"x_max":924,"o":"m 446 1089 q 389 1111 406 1117 q 372 1056 372 1106 l 228 1056 q 242 1165 228 1119 q 282 1232 257 1210 q 340 1260 307 1254 q 408 1257 372 1267 q 481 1224 444 1247 q 537 1201 521 1196 q 553 1257 553 1207 l 699 1257 q 676 1127 699 1178 q 616 1060 653 1076 q 535 1052 579 1044 q 446 1089 492 1060 m 715 0 l 657 175 l 269 175 l 211 0 l 4 0 l 344 972 l 582 972 l 924 0 l 715 0 m 331 354 l 597 354 l 464 751 l 331 354 z "},"Ä":{"ha":928,"x_min":4,"x_max":924,"o":"m 398 1067 q 384 1054 398 1067 q 332 1040 371 1040 q 265 1067 293 1040 q 238 1133 238 1094 q 265 1200 238 1172 q 332 1228 293 1228 q 398 1200 371 1228 q 425 1133 425 1172 q 398 1067 425 1094 m 662 1067 q 648 1054 662 1067 q 596 1040 635 1040 q 529 1067 557 1040 q 501 1133 501 1094 q 529 1200 501 1172 q 596 1228 557 1228 q 662 1200 635 1228 q 689 1133 689 1172 q 662 1067 689 1094 m 715 0 l 657 175 l 269 175 l 211 0 l 4 0 l 344 972 l 582 972 l 924 0 l 715 0 m 331 354 l 597 354 l 464 751 l 331 354 z "},"Å":{"ha":928,"x_min":4,"x_max":924,"o":"m 715 0 l 657 175 l 269 175 l 211 0 l 4 0 l 336 950 q 289 1067 289 997 q 338 1184 289 1138 q 464 1231 388 1231 q 590 1184 542 1231 q 639 1067 639 1138 q 590 949 639 994 l 924 0 l 715 0 m 464 1118 q 424 1103 439 1118 q 410 1067 410 1089 q 424 1028 410 1043 q 464 1014 439 1014 q 519 1067 519 1014 q 464 1118 519 1118 m 331 354 l 597 354 l 464 751 l 331 354 z "},"Æ":{"ha":1222,"x_min":0,"x_max":1178,"o":"m 811 183 l 1178 183 l 1178 0 l 625 0 l 625 175 l 318 175 l 215 0 l 0 0 l 575 972 l 1171 972 l 1171 789 l 811 789 l 811 582 l 1139 582 l 1139 401 l 811 401 l 811 183 m 424 354 l 625 354 l 625 696 l 424 354 z "},"Ç":{"ha":1008,"x_min":46,"x_max":969,"o":"m 551 168 q 702 205 635 168 q 804 306 769 242 l 969 210 q 828 63 917 121 q 632 -14 740 4 l 632 -64 q 701 -101 672 -74 q 729 -172 729 -128 q 424 -300 729 -318 l 424 -174 q 574 -146 574 -183 q 486 -111 574 -118 l 486 -15 q 169 148 292 7 q 46 486 46 289 q 189 847 46 701 q 551 992 332 992 q 795 930 683 992 q 969 763 907 868 l 804 667 q 701 769 768 732 q 551 806 635 806 q 323 717 410 806 q 236 486 236 628 q 323 257 236 346 q 551 168 410 168 z "},"È":{"ha":736,"x_min":90,"x_max":692,"o":"m 501 1060 l 329 1060 l 175 1250 l 390 1250 l 501 1060 m 282 183 l 692 183 l 692 0 l 90 0 l 90 972 l 685 972 l 685 789 l 282 789 l 282 582 l 650 582 l 650 401 l 282 401 l 282 183 z "},"É":{"ha":736,"x_min":90,"x_max":692,"o":"m 603 1250 l 449 1060 l 276 1060 l 388 1250 l 603 1250 m 282 183 l 692 183 l 692 0 l 90 0 l 90 972 l 685 972 l 685 789 l 282 789 l 282 582 l 650 582 l 650 401 l 282 401 l 282 183 z "},"Ê":{"ha":736,"x_min":90,"x_max":692,"o":"m 383 1139 l 322 1049 l 144 1049 l 292 1250 l 474 1250 l 621 1049 l 443 1049 l 383 1139 m 282 183 l 692 183 l 692 0 l 90 0 l 90 972 l 685 972 l 685 789 l 282 789 l 282 582 l 650 582 l 650 401 l 282 401 l 282 183 z "},"Ë":{"ha":736,"x_min":90,"x_max":692,"o":"m 322 1067 q 308 1054 322 1067 q 256 1040 294 1040 q 189 1067 217 1040 q 161 1133 161 1094 q 189 1200 161 1172 q 256 1228 217 1228 q 322 1200 294 1228 q 349 1133 349 1172 q 322 1067 349 1094 m 585 1067 q 572 1054 585 1067 q 519 1040 558 1040 q 453 1067 481 1040 q 425 1133 425 1094 q 453 1200 425 1172 q 519 1228 481 1228 q 585 1200 558 1228 q 613 1133 613 1172 q 585 1067 613 1094 m 282 183 l 692 183 l 692 0 l 90 0 l 90 972 l 685 972 l 685 789 l 282 789 l 282 582 l 650 582 l 650 401 l 282 401 l 282 183 z "},"Ì":{"ha":372,"x_min":-26,"x_max":300,"o":"m 300 1060 l 189 1250 l -26 1250 l 128 1060 l 300 1060 m 90 972 l 282 972 l 282 0 l 90 0 l 90 972 z "},"Í":{"ha":372,"x_min":75,"x_max":401,"o":"m 75 1060 l 247 1060 l 401 1250 l 186 1250 l 75 1060 m 90 972 l 282 972 l 282 0 l 90 0 l 90 972 z "},"Î":{"ha":372,"x_min":-57,"x_max":419,"o":"m 182 1139 l 121 1049 l -57 1049 l 90 1250 l 272 1250 l 419 1049 l 242 1049 l 182 1139 m 90 0 l 90 972 l 282 972 l 282 0 l 90 0 z "},"Ï":{"ha":372,"x_min":-40,"x_max":411,"o":"m 120 1067 q 107 1054 120 1067 q 54 1040 93 1040 q -12 1067 15 1040 q -40 1133 -40 1094 q -12 1200 -40 1172 q 54 1228 15 1228 q 120 1200 93 1228 q 147 1133 147 1172 q 120 1067 147 1094 m 384 1067 q 370 1054 384 1067 q 318 1040 357 1040 q 251 1067 279 1040 q 224 1133 224 1094 q 251 1200 224 1172 q 318 1228 279 1228 q 384 1200 357 1228 q 411 1133 411 1172 q 384 1067 411 1094 m 90 972 l 282 972 l 282 0 l 90 0 l 90 972 z "},"Ð":{"ha":1039,"x_min":31,"x_max":993,"o":"m 525 972 q 859 832 725 972 q 993 486 993 692 q 859 140 993 281 q 525 0 725 0 l 139 0 l 139 390 l 31 390 l 31 563 l 139 563 l 139 972 l 525 972 m 525 183 q 731 267 651 183 q 810 486 810 351 q 731 705 810 621 q 525 789 651 789 l 331 789 l 331 563 l 551 563 l 551 390 l 331 390 l 331 183 l 525 183 z "},"Ñ":{"ha":935,"x_min":90,"x_max":844,"o":"m 221 1056 q 235 1165 221 1119 q 275 1232 250 1210 q 333 1260 300 1254 q 401 1257 365 1267 q 474 1224 438 1247 q 530 1201 514 1196 q 546 1257 546 1207 l 692 1257 q 669 1127 692 1178 q 609 1060 646 1076 q 528 1052 572 1044 q 439 1089 485 1060 q 382 1111 399 1117 q 365 1056 365 1106 l 221 1056 m 653 972 l 844 972 l 844 0 l 699 0 l 282 594 l 282 0 l 90 0 l 90 972 l 236 972 l 653 379 l 653 972 z "},"Ò":{"ha":1100,"x_min":46,"x_max":1056,"o":"m 664 1071 l 553 1261 l 338 1261 l 492 1071 l 664 1071 m 908 127 q 835 54 908 127 q 550 -19 761 -19 q 192 127 339 -19 q 46 486 46 274 q 192 845 46 699 q 550 992 339 992 q 908 845 761 992 q 1056 486 1056 699 q 908 127 1056 274 m 326 258 q 372 213 326 258 q 550 168 417 168 q 774 258 683 168 q 864 486 864 347 q 774 715 864 625 q 550 806 683 806 q 326 715 417 806 q 236 486 236 625 q 326 258 236 347 z "},"Ó":{"ha":1100,"x_min":46,"x_max":1056,"o":"m 439 1071 l 611 1071 l 765 1261 l 550 1261 l 439 1071 m 908 127 q 835 54 908 127 q 550 -19 761 -19 q 192 127 339 -19 q 46 486 46 274 q 192 845 46 699 q 550 992 339 992 q 908 845 761 992 q 1056 486 1056 699 q 908 127 1056 274 m 326 258 q 372 213 326 258 q 550 168 417 168 q 774 258 683 168 q 864 486 864 347 q 774 715 864 625 q 550 806 683 806 q 326 715 417 806 q 236 486 236 625 q 326 258 236 347 z "},"Ô":{"ha":1100,"x_min":46,"x_max":1056,"o":"m 546 1150 l 485 1060 l 307 1060 l 454 1261 l 636 1261 l 783 1060 l 606 1060 l 546 1150 m 192 845 q 266 918 192 845 q 550 992 339 992 q 908 845 761 992 q 1056 486 1056 699 q 908 127 1056 274 q 550 -19 761 -19 q 192 127 339 -19 q 46 486 46 274 q 192 845 46 699 m 326 258 q 372 213 326 258 q 550 168 417 168 q 774 258 683 168 q 864 486 864 347 q 774 715 864 625 q 550 806 683 806 q 326 715 417 806 q 236 486 236 625 q 326 258 236 347 z "},"Õ":{"ha":1100,"x_min":46,"x_max":1056,"o":"m 314 1067 q 328 1176 314 1131 q 368 1243 343 1221 q 426 1272 393 1265 q 494 1268 458 1278 q 567 1235 531 1258 q 623 1213 607 1207 q 639 1268 639 1218 l 785 1268 q 762 1138 785 1189 q 702 1072 739 1088 q 622 1063 665 1056 q 532 1100 578 1071 q 475 1122 492 1128 q 458 1067 458 1117 l 314 1067 m 908 127 q 835 54 908 127 q 550 -19 761 -19 q 192 127 339 -19 q 46 486 46 274 q 192 845 46 699 q 550 992 339 992 q 908 845 761 992 q 1056 486 1056 699 q 908 127 1056 274 m 326 258 q 372 213 326 258 q 550 168 417 168 q 774 258 683 168 q 864 486 864 347 q 774 715 864 625 q 550 806 683 806 q 326 715 417 806 q 236 486 236 625 q 326 258 236 347 z "},"Ö":{"ha":1100,"x_min":46,"x_max":1056,"o":"m 484 1078 q 470 1065 484 1078 q 418 1051 457 1051 q 351 1078 379 1051 q 324 1144 324 1106 q 351 1211 324 1183 q 418 1239 379 1239 q 484 1211 457 1239 q 511 1144 511 1183 q 484 1078 511 1106 m 748 1078 q 734 1065 748 1078 q 682 1051 721 1051 q 615 1078 643 1051 q 588 1144 588 1106 q 615 1211 588 1183 q 682 1239 643 1239 q 748 1211 721 1239 q 775 1144 775 1183 q 748 1078 775 1106 m 908 127 q 835 54 908 127 q 550 -19 761 -19 q 192 127 339 -19 q 46 486 46 274 q 192 845 46 699 q 550 992 339 992 q 908 845 761 992 q 1056 486 1056 699 q 908 127 1056 274 m 326 258 q 372 213 326 258 q 550 168 417 168 q 774 258 683 168 q 864 486 864 347 q 774 715 864 625 q 550 806 683 806 q 326 715 417 806 q 236 486 236 625 q 326 258 236 347 z "},"×":{"ha":711,"x_min":69,"x_max":642,"o":"m 642 654 l 474 486 l 642 318 l 522 201 l 356 368 l 189 201 l 69 318 l 238 486 l 69 654 l 189 771 l 356 604 l 522 771 l 642 654 z "},"Ø":{"ha":1108,"x_min":54,"x_max":1064,"o":"m 922 840 q 1064 486 1064 694 q 917 127 1064 274 q 558 -19 769 -19 q 279 64 404 -19 l 214 -15 l 119 40 l 196 132 q 54 486 54 281 q 201 845 54 699 q 558 992 347 992 q 839 908 711 992 l 904 988 l 999 933 l 922 840 m 244 486 q 317 278 244 363 l 719 764 q 558 806 644 806 q 335 715 425 806 q 244 486 244 625 m 558 168 q 782 258 692 168 q 872 486 872 347 q 801 694 872 608 l 399 208 q 558 168 471 168 z "},"Ù":{"ha":907,"x_min":82,"x_max":825,"o":"m 567 1060 l 456 1250 l 240 1250 l 394 1060 l 567 1060 m 453 -19 q 186 72 290 -19 q 82 318 82 164 l 82 972 l 272 972 l 272 333 q 316 213 272 257 q 453 168 360 168 q 590 213 546 168 q 633 333 633 257 l 633 972 l 825 972 l 825 318 q 721 72 825 164 q 453 -19 617 -19 z "},"Ú":{"ha":907,"x_min":82,"x_max":825,"o":"m 342 1060 l 514 1060 l 668 1250 l 453 1250 l 342 1060 m 453 -19 q 186 72 290 -19 q 82 318 82 164 l 82 972 l 272 972 l 272 333 q 316 213 272 257 q 453 168 360 168 q 590 213 546 168 q 633 333 633 257 l 633 972 l 825 972 l 825 318 q 721 72 825 164 q 453 -19 617 -19 z "},"Û":{"ha":907,"x_min":82,"x_max":825,"o":"m 449 1139 l 388 1049 l 210 1049 l 357 1250 l 539 1250 l 686 1049 l 508 1049 l 449 1139 m 633 972 l 825 972 l 825 318 q 721 72 825 164 q 453 -19 617 -19 q 186 72 290 -19 q 82 318 82 164 l 82 972 l 272 972 l 272 333 q 316 213 272 257 q 453 168 360 168 q 590 213 546 168 q 633 333 633 257 l 633 972 z "},"Ü":{"ha":907,"x_min":82,"x_max":825,"o":"m 387 1067 q 373 1054 387 1067 q 321 1040 360 1040 q 254 1067 282 1040 q 226 1133 226 1094 q 254 1200 226 1172 q 321 1228 282 1228 q 387 1200 360 1228 q 414 1133 414 1172 q 387 1067 414 1094 m 651 1067 q 637 1054 651 1067 q 585 1040 624 1040 q 518 1067 546 1040 q 490 1133 490 1094 q 518 1200 490 1172 q 585 1228 546 1228 q 651 1200 624 1228 q 678 1133 678 1172 q 651 1067 678 1094 m 453 -19 q 186 72 290 -19 q 82 318 82 164 l 82 972 l 272 972 l 272 333 q 316 213 272 257 q 453 168 360 168 q 590 213 546 168 q 633 333 633 257 l 633 972 l 825 972 l 825 318 q 721 72 825 164 q 453 -19 617 -19 z "},"Ý":{"ha":863,"x_min":4,"x_max":860,"o":"m 646 1250 l 492 1060 l 319 1060 l 431 1250 l 646 1250 m 860 972 l 526 379 l 526 0 l 336 0 l 336 379 l 4 972 l 221 972 l 432 567 l 643 972 l 860 972 z "},"Þ":{"ha":819,"x_min":90,"x_max":785,"o":"m 458 813 q 690 717 594 813 q 785 486 785 622 q 690 255 785 350 q 458 160 594 160 l 282 160 l 282 0 l 90 0 l 90 972 l 282 972 l 282 813 l 458 813 m 458 339 q 555 381 515 339 q 594 486 594 424 q 555 591 594 549 q 458 633 515 633 l 282 633 l 282 339 l 458 339 z "},"ß":{"ha":746,"x_min":82,"x_max":724,"o":"m 388 -8 l 388 150 q 544 232 544 135 q 503 328 544 271 q 420 444 461 386 q 379 542 379 501 q 423 639 379 579 q 467 739 467 699 q 441 802 467 776 q 372 828 415 828 q 292 797 324 828 q 261 707 261 767 l 261 0 l 82 0 l 82 706 q 163 914 82 836 q 379 992 243 992 q 574 926 501 992 q 646 767 646 860 q 625 676 646 717 q 583 605 604 635 q 563 553 563 575 q 588 486 563 526 q 643 408 613 446 q 699 314 674 371 q 724 201 724 257 q 645 35 724 94 q 388 -8 567 -25 z "},"à":{"ha":869,"x_min":46,"x_max":789,"o":"m 543 782 l 371 782 l 217 972 l 432 972 l 543 782 m 610 694 l 789 694 l 789 0 l 610 0 l 610 82 q 383 -19 529 -19 q 145 87 244 -19 q 46 347 46 193 q 145 608 46 501 q 383 714 244 714 q 610 613 529 714 l 610 694 m 279 206 q 306 179 279 206 q 417 151 333 151 q 555 206 500 151 q 610 347 610 261 q 555 488 610 433 q 417 543 500 543 q 279 488 333 543 q 225 347 225 433 q 279 206 225 261 z "},"á":{"ha":869,"x_min":46,"x_max":789,"o":"m 644 972 l 490 782 l 318 782 l 429 972 l 644 972 m 610 694 l 789 694 l 789 0 l 610 0 l 610 82 q 383 -19 529 -19 q 145 87 244 -19 q 46 347 46 193 q 145 608 46 501 q 383 714 244 714 q 610 613 529 714 l 610 694 m 279 206 q 306 179 279 206 q 417 151 333 151 q 555 206 500 151 q 610 347 610 261 q 555 488 610 433 q 417 543 500 543 q 279 488 333 543 q 225 347 225 433 q 279 206 225 261 z "},"â":{"ha":869,"x_min":46,"x_max":789,"o":"m 425 861 l 364 771 l 186 771 l 333 972 l 515 972 l 663 771 l 485 771 l 425 861 m 610 694 l 789 694 l 789 0 l 610 0 l 610 82 q 383 -19 529 -19 q 145 87 244 -19 q 46 347 46 193 q 145 608 46 501 q 383 714 244 714 q 610 613 529 714 l 610 694 m 279 206 q 306 179 279 206 q 417 151 333 151 q 555 206 500 151 q 610 347 610 261 q 555 488 610 433 q 417 543 500 543 q 279 488 333 543 q 225 347 225 433 q 279 206 225 261 z "},"ã":{"ha":869,"x_min":46,"x_max":789,"o":"m 411 811 q 354 833 371 839 q 338 778 338 828 l 193 778 q 208 887 193 842 q 247 954 222 932 q 305 983 272 976 q 374 979 338 989 q 446 946 410 969 q 502 924 486 918 q 518 979 518 929 l 664 979 q 641 849 664 900 q 581 783 618 799 q 501 774 544 767 q 411 811 457 782 m 610 694 l 789 694 l 789 0 l 610 0 l 610 82 q 383 -19 529 -19 q 145 87 244 -19 q 46 347 46 193 q 145 608 46 501 q 383 714 244 714 q 610 613 529 714 l 610 694 m 279 206 q 306 179 279 206 q 417 151 333 151 q 555 206 500 151 q 610 347 610 261 q 555 488 610 433 q 417 543 500 543 q 279 488 333 543 q 225 347 225 433 q 279 206 225 261 z "},"ä":{"ha":869,"x_min":46,"x_max":789,"o":"m 363 790 q 350 776 363 790 q 297 763 336 763 q 231 790 258 763 q 203 856 203 817 q 231 922 203 894 q 297 950 258 950 q 363 922 336 950 q 390 856 390 894 q 363 790 390 817 m 627 790 q 614 776 627 790 q 561 763 600 763 q 494 790 522 763 q 467 856 467 817 q 494 922 467 894 q 561 950 522 950 q 627 922 600 950 q 654 856 654 894 q 627 790 654 817 m 610 694 l 789 694 l 789 0 l 610 0 l 610 82 q 383 -19 529 -19 q 145 87 244 -19 q 46 347 46 193 q 145 608 46 501 q 383 714 244 714 q 610 613 529 714 l 610 694 m 279 206 q 306 179 279 206 q 417 151 333 151 q 555 206 500 151 q 610 347 610 261 q 555 488 610 433 q 417 543 500 543 q 279 488 333 543 q 225 347 225 433 q 279 206 225 261 z "},"å":{"ha":869,"x_min":46,"x_max":789,"o":"m 429 749 q 303 796 353 749 q 254 914 254 843 q 303 1031 254 985 q 429 1078 353 1078 q 556 1031 507 1078 q 604 914 604 985 q 556 795 604 842 q 429 749 507 749 m 429 965 q 390 951 404 965 q 375 914 375 936 q 390 876 375 890 q 429 861 404 861 q 485 914 485 861 q 429 965 485 965 m 610 694 l 789 694 l 789 0 l 610 0 l 610 82 q 383 -19 529 -19 q 145 87 244 -19 q 46 347 46 193 q 145 608 46 501 q 383 714 244 714 q 610 613 529 714 l 610 694 m 279 206 q 306 179 279 206 q 417 151 333 151 q 555 206 500 151 q 610 347 610 261 q 555 488 610 433 q 417 543 500 543 q 279 488 333 543 q 225 347 225 433 q 279 206 225 261 z "},"æ":{"ha":1372,"x_min":46,"x_max":1329,"o":"m 799 274 q 869 176 818 208 q 993 143 921 143 q 1150 213 1097 143 l 1294 129 q 1014 -19 1192 -19 q 778 88 867 -19 l 778 0 l 610 0 l 610 82 q 383 -19 529 -19 q 145 87 244 -19 q 46 347 46 193 q 145 608 46 501 q 383 714 244 714 q 610 613 529 714 l 610 694 l 778 694 l 778 608 q 1008 714 865 714 q 1244 610 1158 714 q 1329 347 1329 506 q 1322 274 1329 313 l 799 274 m 796 414 l 1150 414 q 1088 519 1135 485 q 979 553 1042 553 q 860 517 908 553 q 796 414 813 481 m 279 206 q 306 179 279 206 q 417 151 333 151 q 555 206 500 151 q 610 347 610 261 q 555 488 610 433 q 417 543 500 543 q 279 488 333 543 q 225 347 225 433 q 279 206 225 261 z "},"ç":{"ha":744,"x_min":46,"x_max":726,"o":"m 726 161 q 629 51 690 96 q 493 -11 568 6 l 493 -64 q 562 -101 533 -74 q 590 -172 590 -128 q 285 -300 590 -318 l 285 -174 q 435 -146 435 -183 q 347 -111 435 -118 l 347 -14 q 130 108 214 8 q 46 347 46 208 q 151 608 46 503 q 413 714 256 714 q 597 665 514 714 q 724 535 681 617 l 569 444 q 506 513 549 488 q 411 538 464 538 q 278 484 331 538 q 225 347 225 431 q 278 212 225 265 q 411 158 331 158 q 508 183 465 158 q 571 250 550 207 l 726 161 z "},"è":{"ha":807,"x_min":46,"x_max":764,"o":"m 518 788 l 346 788 l 192 978 l 407 978 l 518 788 m 233 274 q 429 143 269 143 q 585 213 532 143 l 729 129 q 426 -19 626 -19 q 150 85 254 -19 q 46 347 46 189 q 149 609 46 504 q 413 714 251 714 q 665 608 565 714 q 764 347 764 503 q 757 274 764 313 l 233 274 m 231 413 l 585 413 q 522 518 569 483 q 413 553 474 553 q 293 516 340 553 q 231 413 246 479 z "},"é":{"ha":807,"x_min":46,"x_max":764,"o":"m 619 978 l 465 788 l 293 788 l 404 978 l 619 978 m 233 274 q 429 143 269 143 q 585 213 532 143 l 729 129 q 426 -19 626 -19 q 150 85 254 -19 q 46 347 46 189 q 149 609 46 504 q 413 714 251 714 q 665 608 565 714 q 764 347 764 503 q 757 274 764 313 l 233 274 m 231 413 l 585 413 q 522 518 569 483 q 413 553 474 553 q 293 516 340 553 q 231 413 246 479 z "},"ê":{"ha":807,"x_min":46,"x_max":764,"o":"m 400 867 l 339 776 l 161 776 l 308 978 l 490 978 l 638 776 l 460 776 l 400 867 m 233 274 q 429 143 269 143 q 585 213 532 143 l 729 129 q 426 -19 626 -19 q 150 85 254 -19 q 46 347 46 189 q 149 609 46 504 q 413 714 251 714 q 665 608 565 714 q 764 347 764 503 q 757 274 764 313 l 233 274 m 231 413 l 585 413 q 522 518 569 483 q 413 553 474 553 q 293 516 340 553 q 231 413 246 479 z "},"ë":{"ha":807,"x_min":46,"x_max":764,"o":"m 338 795 q 325 782 338 795 q 272 768 311 768 q 206 795 233 768 q 178 861 178 822 q 206 928 178 900 q 272 956 233 956 q 338 928 311 956 q 365 861 365 900 q 338 795 365 822 m 602 795 q 589 782 602 795 q 536 768 575 768 q 469 795 497 768 q 442 861 442 822 q 469 928 442 900 q 536 956 497 956 q 602 928 575 956 q 629 861 629 900 q 602 795 629 822 m 233 274 q 429 143 269 143 q 585 213 532 143 l 729 129 q 426 -19 626 -19 q 150 85 254 -19 q 46 347 46 189 q 149 609 46 504 q 413 714 251 714 q 665 608 565 714 q 764 347 764 503 q 757 274 764 313 l 233 274 m 231 413 l 585 413 q 522 518 569 483 q 413 553 474 553 q 293 516 340 553 q 231 413 246 479 z "},"ì":{"ha":343,"x_min":-10,"x_max":261,"o":"m 256 771 l 196 972 l -10 972 l 83 771 l 256 771 m 261 0 l 82 0 l 82 694 l 261 694 l 261 0 z "},"í":{"ha":343,"x_min":82,"x_max":347,"o":"m 83 771 l 256 771 l 347 972 l 142 972 l 83 771 m 82 0 l 82 694 l 261 694 l 261 0 l 82 0 z "},"î":{"ha":343,"x_min":-50,"x_max":392,"o":"m 172 846 l 128 771 l -50 771 l 81 972 l 263 972 l 392 771 l 215 771 l 172 846 m 82 0 l 82 694 l 261 694 l 261 0 l 82 0 z "},"ï":{"ha":343,"x_min":-40,"x_max":383,"o":"m 119 795 q 106 782 119 795 q 53 768 92 768 q -13 795 14 768 q -40 861 -40 822 q -13 928 -40 900 q 53 956 14 956 q 119 928 92 956 q 147 861 147 900 q 119 795 147 822 m 356 795 q 342 782 356 795 q 289 768 328 768 q 223 795 250 768 q 196 861 196 822 q 223 928 196 900 q 289 956 250 956 q 356 928 328 956 q 383 861 383 900 q 356 795 383 822 m 82 0 l 82 694 l 261 694 l 261 0 l 82 0 z "},"ð":{"ha":793,"x_min":46,"x_max":749,"o":"m 685 514 q 749 319 749 426 q 646 75 749 167 q 397 -17 543 -17 q 149 75 251 -17 q 46 319 46 167 q 145 549 46 457 q 383 632 244 642 l 303 743 l 126 656 l 126 781 l 236 835 l 136 972 l 343 972 l 389 911 l 553 992 l 553 867 l 457 819 l 685 514 m 397 151 q 521 197 472 151 q 569 319 569 242 q 540 417 569 375 q 397 482 489 482 q 273 438 321 482 q 225 319 225 393 q 273 197 225 242 q 397 151 321 151 z "},"ñ":{"ha":801,"x_min":82,"x_max":731,"o":"m 396 822 q 339 844 356 850 q 322 789 322 839 l 178 789 q 192 898 178 853 q 232 965 207 943 q 290 994 257 988 q 358 990 322 1000 q 431 957 394 981 q 487 935 471 929 q 503 990 503 940 l 649 990 q 626 860 649 911 q 566 794 603 810 q 485 785 529 778 q 396 822 442 793 m 468 714 q 656 638 582 714 q 731 426 731 561 l 731 0 l 551 0 l 551 404 q 514 510 551 474 q 414 547 476 547 q 303 504 344 547 q 261 375 261 461 l 261 0 l 82 0 l 82 694 l 261 694 l 261 617 q 468 714 326 714 z "},"ò":{"ha":825,"x_min":46,"x_max":781,"o":"m 526 793 l 415 983 l 200 983 l 354 793 l 526 793 m 674 87 q 620 34 674 87 q 413 -19 567 -19 q 152 87 258 -19 q 46 347 46 193 q 152 608 46 501 q 413 714 258 714 q 674 608 567 714 q 781 347 781 501 q 674 87 781 193 m 278 210 q 305 183 278 210 q 413 156 332 156 q 547 210 493 156 q 601 347 601 264 q 547 485 601 431 q 413 539 493 539 q 278 485 332 539 q 225 347 225 431 q 278 210 225 264 z "},"ó":{"ha":825,"x_min":46,"x_max":781,"o":"m 301 793 l 474 793 l 628 983 l 413 983 l 301 793 m 674 87 q 620 34 674 87 q 413 -19 567 -19 q 152 87 258 -19 q 46 347 46 193 q 152 608 46 501 q 413 714 258 714 q 674 608 567 714 q 781 347 781 501 q 674 87 781 193 m 278 210 q 305 183 278 210 q 413 156 332 156 q 547 210 493 156 q 601 347 601 264 q 547 485 601 431 q 413 539 493 539 q 278 485 332 539 q 225 347 225 431 q 278 210 225 264 z "},"ô":{"ha":825,"x_min":46,"x_max":781,"o":"m 408 872 l 347 782 l 169 782 l 317 983 l 499 983 l 646 782 l 468 782 l 408 872 m 152 608 q 205 661 152 608 q 413 714 258 714 q 674 608 567 714 q 781 347 781 501 q 674 87 781 193 q 413 -19 567 -19 q 152 87 258 -19 q 46 347 46 193 q 152 608 46 501 m 278 210 q 305 183 278 210 q 413 156 332 156 q 547 210 493 156 q 601 347 601 264 q 547 485 601 431 q 413 539 493 539 q 278 485 332 539 q 225 347 225 431 q 278 210 225 264 z "},"õ":{"ha":825,"x_min":46,"x_max":781,"o":"m 176 789 q 191 898 176 853 q 231 965 206 943 q 288 994 256 988 q 357 990 321 1000 q 429 957 393 981 q 485 935 469 929 q 501 990 501 940 l 647 990 q 624 860 647 911 q 565 794 601 810 q 484 785 528 778 q 394 822 440 793 q 338 844 354 850 q 321 789 321 839 l 176 789 m 674 87 q 620 34 674 87 q 413 -19 567 -19 q 152 87 258 -19 q 46 347 46 193 q 152 608 46 501 q 413 714 258 714 q 674 608 567 714 q 781 347 781 501 q 674 87 781 193 m 278 210 q 305 183 278 210 q 413 156 332 156 q 547 210 493 156 q 601 347 601 264 q 547 485 601 431 q 413 539 493 539 q 278 485 332 539 q 225 347 225 431 q 278 210 225 264 z "},"ö":{"ha":825,"x_min":46,"x_max":781,"o":"m 347 801 q 333 787 347 801 q 281 774 319 774 q 214 801 242 774 q 186 867 186 828 q 214 933 186 906 q 281 961 242 961 q 347 933 319 961 q 374 867 374 906 q 347 801 374 828 m 610 801 q 597 787 610 801 q 544 774 583 774 q 478 801 506 774 q 450 867 450 828 q 478 933 450 906 q 544 961 506 961 q 610 933 583 961 q 638 867 638 906 q 610 801 638 828 m 674 87 q 620 34 674 87 q 413 -19 567 -19 q 152 87 258 -19 q 46 347 46 193 q 152 608 46 501 q 413 714 258 714 q 674 608 567 714 q 781 347 781 501 q 674 87 781 193 m 278 210 q 305 183 278 210 q 413 156 332 156 q 547 210 493 156 q 601 347 601 264 q 547 485 601 431 q 413 539 493 539 q 278 485 332 539 q 225 347 225 431 q 278 210 225 264 z "},"÷":{"ha":785,"x_min":63,"x_max":722,"o":"m 393 643 q 312 676 344 643 q 279 757 279 708 q 312 837 279 804 q 393 869 344 869 q 474 838 442 869 q 506 757 506 806 q 473 676 506 708 q 393 643 440 643 m 63 403 l 63 571 l 722 571 l 722 403 l 63 403 m 393 103 q 312 136 344 103 q 279 217 279 169 q 312 297 279 264 q 393 329 344 329 q 474 297 442 329 q 506 217 506 264 q 473 135 506 168 q 393 103 440 103 z "},"ø":{"ha":825,"x_min":46,"x_max":781,"o":"m 682 599 q 781 347 781 493 q 674 87 781 193 q 413 -19 567 -19 q 211 39 300 -19 l 167 -12 l 90 32 l 144 96 q 46 347 46 199 q 152 608 46 501 q 413 714 258 714 q 615 654 522 714 l 660 707 l 736 663 l 682 599 m 225 347 q 260 232 225 282 l 501 518 q 413 539 461 539 q 278 485 332 539 q 225 347 225 431 m 413 156 q 547 210 493 156 q 601 347 601 264 q 567 461 601 414 l 325 176 q 413 156 364 156 z "},"ù":{"ha":801,"x_min":71,"x_max":719,"o":"m 508 782 l 336 782 l 182 972 l 397 972 l 508 782 m 540 694 l 719 694 l 719 0 l 540 0 l 540 78 q 333 -19 475 -19 q 145 57 219 -19 q 71 268 71 133 l 71 694 l 250 694 l 250 290 q 288 184 250 221 q 388 147 325 147 q 499 190 457 147 q 540 319 540 233 l 540 694 z "},"ú":{"ha":801,"x_min":71,"x_max":719,"o":"m 610 972 l 456 782 l 283 782 l 394 972 l 610 972 m 540 694 l 719 694 l 719 0 l 540 0 l 540 78 q 333 -19 475 -19 q 145 57 219 -19 q 71 268 71 133 l 71 694 l 250 694 l 250 290 q 288 184 250 221 q 388 147 325 147 q 499 190 457 147 q 540 319 540 233 l 540 694 z "},"û":{"ha":801,"x_min":71,"x_max":719,"o":"m 390 861 l 329 771 l 151 771 l 299 972 l 481 972 l 628 771 l 450 771 l 390 861 m 540 694 l 719 694 l 719 0 l 540 0 l 540 78 q 333 -19 475 -19 q 145 57 219 -19 q 71 268 71 133 l 71 694 l 250 694 l 250 290 q 288 184 250 221 q 388 147 325 147 q 499 190 457 147 q 540 319 540 233 l 540 694 z "},"ü":{"ha":801,"x_min":71,"x_max":719,"o":"m 328 790 q 315 776 328 790 q 263 763 301 763 q 196 790 224 763 q 168 856 168 817 q 196 922 168 894 q 263 950 224 950 q 328 922 301 950 q 356 856 356 894 q 328 790 356 817 m 592 790 q 579 776 592 790 q 526 763 565 763 q 460 790 488 763 q 432 856 432 817 q 460 922 432 894 q 526 950 488 950 q 592 922 565 950 q 619 856 619 894 q 592 790 619 817 m 540 694 l 719 694 l 719 0 l 540 0 l 540 78 q 333 -19 475 -19 q 145 57 219 -19 q 71 268 71 133 l 71 694 l 250 694 l 250 290 q 288 184 250 221 q 388 147 325 147 q 499 190 457 147 q 540 319 540 233 l 540 694 z "},"ý":{"ha":729,"x_min":4,"x_max":726,"o":"m 581 972 l 426 782 l 254 782 l 365 972 l 581 972 m 535 694 l 726 694 l 474 0 q 330 -217 419 -150 q 107 -278 240 -285 l 107 -111 q 222 -81 179 -112 q 289 22 264 -49 l 4 694 l 200 694 l 381 228 l 535 694 z "},"þ":{"ha":869,"x_min":82,"x_max":825,"o":"m 486 714 q 726 608 626 714 q 825 347 825 501 q 726 87 825 193 q 486 -19 626 -19 q 261 82 340 -19 l 261 -278 l 82 -278 l 82 972 l 261 972 l 261 613 q 486 714 340 714 m 315 206 q 342 179 315 206 q 453 151 369 151 q 591 206 536 151 q 646 347 646 261 q 591 488 646 433 q 453 543 536 543 q 315 488 369 543 q 261 347 261 433 q 315 206 261 261 z "},"ÿ":{"ha":729,"x_min":4,"x_max":726,"o":"m 299 790 q 286 776 299 790 q 233 763 272 763 q 167 790 194 763 q 139 856 139 817 q 167 922 139 894 q 233 950 194 950 q 299 922 272 950 q 326 856 326 894 q 299 790 326 817 m 563 790 q 550 776 563 790 q 497 763 536 763 q 431 790 458 763 q 403 856 403 817 q 431 922 403 894 q 497 950 458 950 q 563 922 536 950 q 590 856 590 894 q 563 790 590 817 m 535 694 l 726 694 l 474 0 q 330 -217 419 -150 q 107 -278 240 -285 l 107 -111 q 222 -81 179 -112 q 289 22 264 -49 l 4 694 l 200 694 l 381 228 l 535 694 z "},"Ā":{"ha":928,"x_min":4,"x_max":924,"o":"m 665 1207 l 665 1061 l 263 1061 l 263 1207 l 665 1207 m 715 0 l 657 175 l 269 175 l 211 0 l 4 0 l 344 972 l 582 972 l 924 0 l 715 0 m 331 354 l 597 354 l 464 751 l 331 354 z "},"ā":{"ha":869,"x_min":46,"x_max":789,"o":"m 631 929 l 631 783 l 228 783 l 228 929 l 631 929 m 610 694 l 789 694 l 789 0 l 610 0 l 610 82 q 383 -19 529 -19 q 145 87 244 -19 q 46 347 46 193 q 145 608 46 501 q 383 714 244 714 q 610 613 529 714 l 610 694 m 279 206 q 306 179 279 206 q 417 151 333 151 q 555 206 500 151 q 610 347 610 261 q 555 488 610 433 q 417 543 500 543 q 279 488 333 543 q 225 347 225 433 q 279 206 225 261 z "},"Ă":{"ha":928,"x_min":4,"x_max":924,"o":"m 464 1038 q 294 1090 354 1038 q 233 1239 233 1143 l 393 1239 q 464 1167 393 1167 q 536 1239 536 1167 l 696 1239 q 635 1090 696 1143 q 464 1038 575 1038 m 715 0 l 657 175 l 269 175 l 211 0 l 4 0 l 344 972 l 582 972 l 924 0 l 715 0 m 331 354 l 597 354 l 464 751 l 331 354 z "},"ă":{"ha":869,"x_min":46,"x_max":789,"o":"m 429 760 q 259 813 319 760 q 199 961 199 865 l 358 961 q 429 889 358 889 q 501 961 501 889 l 661 961 q 601 813 661 865 q 429 760 540 760 m 610 694 l 789 694 l 789 0 l 610 0 l 610 82 q 383 -19 529 -19 q 145 87 244 -19 q 46 347 46 193 q 145 608 46 501 q 383 714 244 714 q 610 613 529 714 l 610 694 m 279 206 q 306 179 279 206 q 417 151 333 151 q 555 206 500 151 q 610 347 610 261 q 555 488 610 433 q 417 543 500 543 q 279 488 333 543 q 225 347 225 433 q 279 206 225 261 z "},"Ą":{"ha":928,"x_min":4,"x_max":924,"o":"m 885 -169 q 924 -162 901 -171 l 924 -275 q 811 -297 871 -297 q 716 -266 753 -297 q 679 -175 679 -235 q 771 0 679 -96 l 715 0 l 657 175 l 269 175 l 211 0 l 4 0 l 344 972 l 582 972 l 924 0 q 850 -132 850 -78 q 885 -169 850 -169 m 331 354 l 597 354 l 464 751 l 331 354 z "},"ą":{"ha":869,"x_min":46,"x_max":789,"o":"m 789 0 q 715 -132 715 -76 q 750 -169 713 -169 q 789 -162 765 -171 l 789 -275 q 676 -297 733 -297 q 580 -266 617 -297 q 543 -175 543 -235 q 632 0 543 -97 l 610 0 l 610 82 q 383 -19 529 -19 q 145 87 244 -19 q 46 347 46 193 q 145 608 46 501 q 383 714 244 714 q 610 613 529 714 l 610 694 l 789 694 l 789 0 m 279 206 q 306 179 279 206 q 417 151 333 151 q 555 206 500 151 q 610 347 610 261 q 555 488 610 433 q 417 543 500 543 q 279 488 333 543 q 225 347 225 433 q 279 206 225 261 z "},"Ć":{"ha":1008,"x_min":46,"x_max":969,"o":"m 440 1071 l 613 1071 l 767 1261 l 551 1261 l 440 1071 m 551 -19 q 189 126 332 -19 q 46 486 46 272 q 189 847 46 701 q 551 992 332 992 q 795 930 683 992 q 969 763 907 868 l 804 667 q 701 769 768 732 q 551 806 635 806 q 323 717 410 806 q 236 486 236 628 q 323 257 236 346 q 551 168 410 168 q 702 205 635 168 q 804 306 769 242 l 969 210 q 796 42 907 104 q 551 -19 685 -19 z "},"ć":{"ha":744,"x_min":46,"x_max":726,"o":"m 300 782 l 472 782 l 626 972 l 411 972 l 300 782 m 413 -19 q 151 86 256 -19 q 46 347 46 192 q 151 608 46 503 q 413 714 256 714 q 597 665 514 714 q 724 535 681 617 l 569 444 q 506 513 549 488 q 411 538 464 538 q 278 484 331 538 q 225 347 225 431 q 278 212 225 265 q 411 158 331 158 q 508 183 465 158 q 571 250 550 207 l 726 161 q 597 30 681 79 q 413 -19 514 -19 z "},"Ċ":{"ha":1008,"x_min":46,"x_max":969,"o":"m 551 1054 q 475 1086 507 1054 q 443 1163 443 1118 q 475 1238 443 1207 q 551 1269 507 1269 q 626 1238 594 1269 q 658 1163 658 1206 q 626 1086 658 1118 q 551 1054 594 1054 m 551 -19 q 189 126 332 -19 q 46 486 46 272 q 189 847 46 701 q 551 992 332 992 q 795 930 683 992 q 969 763 907 868 l 804 667 q 701 769 768 732 q 551 806 635 806 q 323 717 410 806 q 236 486 236 628 q 323 257 236 346 q 551 168 410 168 q 702 205 635 168 q 804 306 769 242 l 969 210 q 796 42 907 104 q 551 -19 685 -19 z "},"ċ":{"ha":744,"x_min":46,"x_max":726,"o":"m 411 765 q 335 797 367 765 q 303 874 303 829 q 335 949 303 918 q 411 981 367 981 q 487 949 456 981 q 518 874 518 917 q 486 797 518 829 q 411 765 454 765 m 413 -19 q 151 86 256 -19 q 46 347 46 192 q 151 608 46 503 q 413 714 256 714 q 597 665 514 714 q 724 535 681 617 l 569 444 q 506 513 549 488 q 411 538 464 538 q 278 484 331 538 q 225 347 225 431 q 278 212 225 265 q 411 158 331 158 q 508 183 465 158 q 571 250 550 207 l 726 161 q 597 30 681 79 q 413 -19 514 -19 z "},"Č":{"ha":1008,"x_min":46,"x_max":969,"o":"m 456 1060 l 308 1261 l 486 1261 l 547 1171 l 607 1261 l 785 1261 l 638 1060 l 456 1060 m 551 168 q 702 205 635 168 q 804 306 769 242 l 969 210 q 796 42 907 104 q 551 -19 685 -19 q 189 126 332 -19 q 46 486 46 272 q 189 847 46 701 q 551 992 332 992 q 795 930 683 992 q 969 763 907 868 l 804 667 q 701 769 768 732 q 551 806 635 806 q 323 717 410 806 q 236 486 236 628 q 323 257 236 346 q 551 168 410 168 z "},"č":{"ha":744,"x_min":46,"x_max":726,"o":"m 315 771 l 168 972 l 346 972 l 407 882 l 467 972 l 644 972 l 497 771 l 315 771 m 571 250 l 726 161 q 597 30 681 79 q 413 -19 514 -19 q 151 86 256 -19 q 46 347 46 192 q 151 608 46 503 q 413 714 256 714 q 597 665 514 714 q 724 535 681 617 l 569 444 q 506 513 549 488 q 411 538 464 538 q 278 484 331 538 q 225 347 225 431 q 278 212 225 265 q 411 158 331 158 q 508 183 465 158 q 571 250 550 207 z "},"Ď":{"ha":990,"x_min":90,"x_max":944,"o":"m 369 1049 l 222 1250 l 400 1250 l 461 1160 l 521 1250 l 699 1250 l 551 1049 l 369 1049 m 476 972 q 810 832 676 972 q 944 486 944 692 q 810 140 944 281 q 476 0 676 0 l 90 0 l 90 972 l 476 972 m 476 183 q 682 267 603 183 q 761 486 761 351 q 682 705 761 621 q 476 789 603 789 l 282 789 l 282 183 l 476 183 z "},"ď":{"ha":1021,"x_min":44,"x_max":1035,"o":"m 608 613 l 608 972 l 788 972 l 788 0 l 608 0 l 608 82 q 383 -19 529 -19 q 144 87 243 -19 q 44 347 44 193 q 144 608 44 501 q 383 714 243 714 q 608 613 529 714 m 867 972 l 1035 972 l 993 694 l 853 694 l 867 972 m 278 206 q 306 179 278 206 q 417 151 333 151 q 554 206 500 151 q 608 347 608 261 q 554 488 608 433 q 417 543 500 543 q 278 488 333 543 q 224 347 224 433 q 278 206 224 261 z "},"Đ":{"ha":1039,"x_min":31,"x_max":993,"o":"m 525 972 q 859 832 725 972 q 993 486 993 692 q 859 140 993 281 q 525 0 725 0 l 139 0 l 139 390 l 31 390 l 31 563 l 139 563 l 139 972 l 525 972 m 525 183 q 731 267 651 183 q 810 486 810 351 q 731 705 810 621 q 525 789 651 789 l 331 789 l 331 563 l 551 563 l 551 390 l 331 390 l 331 183 l 525 183 z "},"đ":{"ha":879,"x_min":46,"x_max":875,"o":"m 875 886 l 875 769 l 789 769 l 789 0 l 610 0 l 610 82 q 383 -19 529 -19 q 145 87 244 -19 q 46 347 46 193 q 145 608 46 501 q 383 714 244 714 q 610 613 529 714 l 610 769 l 400 769 l 400 886 l 610 886 l 610 972 l 789 972 l 789 886 l 875 886 m 279 206 q 306 179 279 206 q 417 151 333 151 q 555 206 500 151 q 610 347 610 261 q 555 488 610 433 q 417 543 500 543 q 279 488 333 543 q 225 347 225 433 q 279 206 225 261 z "},"Ē":{"ha":736,"x_min":90,"x_max":692,"o":"m 589 1207 l 589 1061 l 186 1061 l 186 1207 l 589 1207 m 282 183 l 692 183 l 692 0 l 90 0 l 90 972 l 685 972 l 685 789 l 282 789 l 282 582 l 650 582 l 650 401 l 282 401 l 282 183 z "},"ē":{"ha":807,"x_min":46,"x_max":764,"o":"m 606 935 l 606 789 l 203 789 l 203 935 l 606 935 m 233 274 q 429 143 269 143 q 585 213 532 143 l 729 129 q 426 -19 626 -19 q 150 85 254 -19 q 46 347 46 189 q 149 609 46 504 q 413 714 251 714 q 665 608 565 714 q 764 347 764 503 q 757 274 764 313 l 233 274 m 231 413 l 585 413 q 522 518 569 483 q 413 553 474 553 q 293 516 340 553 q 231 413 246 479 z "},"Ė":{"ha":736,"x_min":90,"x_max":692,"o":"m 388 1043 q 311 1075 343 1043 q 279 1151 279 1107 q 311 1227 279 1196 q 388 1258 343 1258 q 463 1226 431 1258 q 494 1151 494 1194 q 463 1075 494 1107 q 388 1043 431 1043 m 282 183 l 692 183 l 692 0 l 90 0 l 90 972 l 685 972 l 685 789 l 282 789 l 282 582 l 650 582 l 650 401 l 282 401 l 282 183 z "},"ė":{"ha":807,"x_min":46,"x_max":764,"o":"m 404 771 q 328 803 360 771 q 296 879 296 835 q 328 955 296 924 q 404 986 360 986 q 479 954 447 986 q 511 879 511 922 q 479 803 511 835 q 404 771 447 771 m 233 274 q 429 143 269 143 q 585 213 532 143 l 729 129 q 426 -19 626 -19 q 150 85 254 -19 q 46 347 46 189 q 149 609 46 504 q 413 714 251 714 q 665 608 565 714 q 764 347 764 503 q 757 274 764 313 l 233 274 m 231 413 l 585 413 q 522 518 569 483 q 413 553 474 553 q 293 516 340 553 q 231 413 246 479 z "},"Ę":{"ha":736,"x_min":90,"x_max":692,"o":"m 282 183 l 692 183 l 692 0 l 690 0 q 618 -132 618 -76 q 653 -169 615 -169 q 690 -162 668 -171 l 690 -275 q 579 -297 638 -297 q 483 -266 519 -297 q 446 -175 446 -235 q 538 0 446 -96 l 90 0 l 90 972 l 685 972 l 685 789 l 282 789 l 282 582 l 650 582 l 650 401 l 282 401 l 282 183 z "},"ę":{"ha":807,"x_min":46,"x_max":764,"o":"m 233 274 q 429 143 269 143 q 585 213 532 143 l 729 129 q 678 69 711 103 q 561 -132 561 -56 q 596 -169 561 -169 q 635 -162 613 -171 l 635 -275 q 522 -297 579 -297 q 426 -266 463 -297 q 390 -175 390 -235 q 481 -17 390 -93 q 426 -19 444 -19 q 150 85 254 -19 q 46 347 46 189 q 149 609 46 504 q 413 714 251 714 q 665 608 565 714 q 764 347 764 503 q 757 274 764 313 l 233 274 m 231 413 l 585 413 q 522 518 569 483 q 413 553 474 553 q 293 516 340 553 q 231 413 246 479 z "},"Ě":{"ha":736,"x_min":90,"x_max":692,"o":"m 292 1049 l 144 1250 l 322 1250 l 383 1160 l 443 1250 l 621 1250 l 474 1049 l 292 1049 m 282 183 l 692 183 l 692 0 l 90 0 l 90 972 l 685 972 l 685 789 l 282 789 l 282 582 l 650 582 l 650 401 l 282 401 l 282 183 z "},"ě":{"ha":807,"x_min":46,"x_max":764,"o":"m 308 776 l 161 978 l 339 978 l 400 888 l 460 978 l 638 978 l 490 776 l 308 776 m 233 274 q 429 143 269 143 q 585 213 532 143 l 729 129 q 426 -19 626 -19 q 150 85 254 -19 q 46 347 46 189 q 149 609 46 504 q 413 714 251 714 q 665 608 565 714 q 764 347 764 503 q 757 274 764 313 l 233 274 m 231 413 l 585 413 q 522 518 569 483 q 413 553 474 553 q 293 516 340 553 q 231 413 246 479 z "},"Ğ":{"ha":1090,"x_min":46,"x_max":1044,"o":"m 551 1049 q 381 1101 442 1049 q 321 1250 321 1154 l 481 1250 q 551 1178 481 1178 q 624 1250 624 1178 l 783 1250 q 723 1101 783 1154 q 551 1049 663 1049 m 1044 522 l 1044 447 q 911 110 1044 239 q 567 -19 778 -19 q 194 127 342 -19 q 46 485 46 274 q 192 844 46 697 q 556 992 339 992 q 804 930 692 992 q 979 765 917 868 l 815 671 q 710 768 781 731 q 554 806 640 806 q 326 715 415 806 q 236 485 236 624 q 327 258 236 347 q 568 168 418 168 q 752 217 679 168 q 851 353 825 267 l 557 353 l 557 522 l 1044 522 z "},"ğ":{"ha":869,"x_min":46,"x_max":789,"o":"m 413 771 q 242 824 303 771 q 182 972 182 876 l 342 972 q 413 900 342 900 q 485 972 485 900 l 644 972 q 584 824 644 876 q 413 771 524 771 m 614 694 l 789 694 l 789 33 q 683 -212 789 -128 q 426 -297 576 -297 q 228 -254 314 -297 q 97 -128 143 -211 l 250 -40 q 432 -137 303 -137 q 565 -93 517 -137 q 614 33 614 -49 l 614 108 q 392 3 535 3 q 145 106 244 3 q 46 358 46 210 q 146 610 46 506 q 392 714 246 714 q 614 608 535 714 l 614 694 m 280 222 q 307 195 280 222 q 419 168 335 168 q 559 222 504 168 q 614 358 614 275 q 559 494 614 440 q 419 547 504 547 q 280 494 335 547 q 225 358 225 440 q 280 222 225 275 z "},"Ġ":{"ha":1090,"x_min":46,"x_max":1044,"o":"m 551 1054 q 475 1086 507 1054 q 443 1163 443 1118 q 475 1238 443 1207 q 551 1269 507 1269 q 626 1238 594 1269 q 658 1163 658 1206 q 626 1086 658 1118 q 551 1054 594 1054 m 1044 522 l 1044 447 q 911 110 1044 239 q 567 -19 778 -19 q 194 127 342 -19 q 46 485 46 274 q 192 844 46 697 q 556 992 339 992 q 804 930 692 992 q 979 765 917 868 l 815 671 q 710 768 781 731 q 554 806 640 806 q 326 715 415 806 q 236 485 236 624 q 327 258 236 347 q 568 168 418 168 q 752 217 679 168 q 851 353 825 267 l 557 353 l 557 522 l 1044 522 z "},"ġ":{"ha":869,"x_min":46,"x_max":789,"o":"m 413 776 q 336 808 368 776 q 304 885 304 840 q 336 960 304 929 q 413 992 368 992 q 488 960 456 992 q 519 885 519 928 q 488 808 519 840 q 413 776 456 776 m 614 694 l 789 694 l 789 33 q 683 -212 789 -128 q 426 -297 576 -297 q 228 -254 314 -297 q 97 -128 143 -211 l 250 -40 q 432 -137 303 -137 q 565 -93 517 -137 q 614 33 614 -49 l 614 108 q 392 3 535 3 q 145 106 244 3 q 46 358 46 210 q 146 610 46 506 q 392 714 246 714 q 614 608 535 714 l 614 694 m 280 222 q 307 195 280 222 q 419 168 335 168 q 559 222 504 168 q 614 358 614 275 q 559 494 614 440 q 419 547 504 547 q 280 494 335 547 q 225 358 225 440 q 280 222 225 275 z "},"Ģ":{"ha":1090,"x_min":46,"x_max":1044,"o":"m 1044 522 l 1044 447 q 911 110 1044 239 q 567 -19 778 -19 q 194 127 342 -19 q 46 485 46 274 q 192 844 46 697 q 556 992 339 992 q 804 930 692 992 q 979 765 917 868 l 815 671 q 710 768 781 731 q 554 806 640 806 q 326 715 415 806 q 236 485 236 624 q 327 258 236 347 q 568 168 418 168 q 752 217 679 168 q 851 353 825 267 l 557 353 l 557 522 l 1044 522 m 474 -365 l 488 -87 l 657 -87 l 615 -365 l 474 -365 z "},"ģ":{"ha":869,"x_min":46,"x_max":789,"o":"m 501 1088 l 488 810 l 318 810 l 360 1088 l 501 1088 m 614 694 l 789 694 l 789 33 q 683 -212 789 -128 q 426 -297 576 -297 q 228 -254 314 -297 q 97 -128 143 -211 l 250 -40 q 432 -137 303 -137 q 565 -93 517 -137 q 614 33 614 -49 l 614 108 q 392 3 535 3 q 145 106 244 3 q 46 358 46 210 q 146 610 46 506 q 392 714 246 714 q 614 608 535 714 l 614 694 m 280 222 q 307 195 280 222 q 419 168 335 168 q 559 222 504 168 q 614 358 614 275 q 559 494 614 440 q 419 547 504 547 q 280 494 335 547 q 225 358 225 440 q 280 222 225 275 z "},"Ħ":{"ha":983,"x_min":35,"x_max":949,"o":"m 949 836 l 949 696 l 863 696 l 863 0 l 672 0 l 672 378 l 311 378 l 311 0 l 119 0 l 119 696 l 35 696 l 35 836 l 119 836 l 119 972 l 311 972 l 311 836 l 672 836 l 672 972 l 863 972 l 863 836 l 949 836 m 672 561 l 672 696 l 311 696 l 311 561 l 672 561 z "},"ħ":{"ha":810,"x_min":4,"x_max":740,"o":"m 476 714 q 666 638 592 714 q 740 426 740 561 l 740 0 l 561 0 l 561 404 q 523 510 561 474 q 422 547 485 547 q 311 504 353 547 q 269 375 269 461 l 269 0 l 90 0 l 90 769 l 4 769 l 4 886 l 90 886 l 90 972 l 269 972 l 269 886 l 465 886 l 465 769 l 269 769 l 269 615 q 476 714 333 714 z "},"Ī":{"ha":372,"x_min":-15,"x_max":388,"o":"m -15 1061 l -15 1207 l 388 1207 l 388 1061 l -15 1061 m 90 972 l 282 972 l 282 0 l 90 0 l 90 972 z "},"ī":{"ha":343,"x_min":11,"x_max":331,"o":"m 11 783 l 11 939 l 331 939 l 331 783 l 11 783 m 82 0 l 82 694 l 261 694 l 261 0 l 82 0 z "},"Į":{"ha":372,"x_min":63,"x_max":308,"o":"m 269 -169 q 308 -162 285 -171 l 308 -275 q 196 -297 253 -297 q 99 -266 136 -297 q 63 -175 63 -235 q 126 0 63 -97 l 90 0 l 90 972 l 282 972 l 282 0 q 235 -132 235 -78 q 269 -169 232 -169 z "},"į":{"ha":343,"x_min":42,"x_max":286,"o":"m 171 778 q 94 810 126 778 q 61 888 61 843 q 94 965 61 932 q 171 999 126 999 q 249 965 217 999 q 282 888 282 932 q 249 810 282 843 q 171 778 217 778 m 249 -169 q 286 -162 264 -171 l 286 -275 q 175 -297 233 -297 q 78 -264 115 -297 q 42 -172 42 -231 q 101 0 42 -99 l 82 0 l 82 694 l 261 694 l 261 0 q 214 -128 214 -76 q 249 -169 211 -169 z "},"İ":{"ha":372,"x_min":78,"x_max":293,"o":"m 186 1043 q 110 1075 142 1043 q 78 1151 78 1107 q 110 1227 78 1196 q 186 1258 142 1258 q 262 1226 231 1258 q 293 1151 293 1194 q 261 1075 293 1107 q 186 1043 229 1043 m 90 972 l 282 972 l 282 0 l 90 0 l 90 972 z "},"ı":{"ha":343,"x_min":82,"x_max":261,"o":"m 82 0 l 82 694 l 261 694 l 261 0 l 82 0 z "},"Ķ":{"ha":854,"x_min":90,"x_max":850,"o":"m 476 500 l 850 0 l 629 0 l 282 456 l 282 0 l 90 0 l 90 972 l 282 972 l 282 543 l 615 972 l 836 972 l 476 500 m 336 -365 l 350 -87 l 519 -87 l 478 -365 l 336 -365 z "},"ķ":{"ha":729,"x_min":82,"x_max":722,"o":"m 435 351 l 722 0 l 514 0 l 261 315 l 261 0 l 82 0 l 82 972 l 261 972 l 261 389 l 500 694 l 714 694 l 435 351 m 299 -365 l 313 -87 l 482 -87 l 440 -365 l 299 -365 z "},"Ĺ":{"ha":671,"x_min":90,"x_max":653,"o":"m 419 1250 l 265 1060 l 93 1060 l 204 1250 l 419 1250 m 282 183 l 653 183 l 653 0 l 90 0 l 90 972 l 282 972 l 282 183 z "},"ĺ":{"ha":343,"x_min":79,"x_max":406,"o":"m 79 1060 l 251 1060 l 406 1250 l 190 1250 l 79 1060 m 82 0 l 82 1014 l 261 1014 l 261 0 l 82 0 z "},"Ļ":{"ha":671,"x_min":90,"x_max":653,"o":"m 282 183 l 653 183 l 653 0 l 90 0 l 90 972 l 282 972 l 282 183 m 290 -365 l 304 -87 l 474 -87 l 432 -365 l 290 -365 z "},"ļ":{"ha":343,"x_min":76,"x_max":261,"o":"m 82 0 l 82 1014 l 261 1014 l 261 0 l 82 0 m 218 -365 l 260 -87 l 90 -87 l 76 -365 l 218 -365 z "},"Ľ":{"ha":671,"x_min":90,"x_max":653,"o":"m 282 183 l 653 183 l 653 0 l 90 0 l 90 972 l 282 972 l 282 183 m 564 972 l 522 715 l 371 715 l 385 972 l 564 972 z "},"ľ":{"ha":492,"x_min":82,"x_max":506,"o":"m 82 0 l 82 1014 l 261 1014 l 261 0 l 82 0 m 464 736 l 506 1014 l 336 1014 l 322 736 l 464 736 z "},"Ł":{"ha":699,"x_min":35,"x_max":681,"o":"m 310 183 l 681 183 l 681 0 l 118 0 l 118 293 l 35 243 l 35 435 l 118 485 l 118 972 l 310 972 l 310 599 l 493 707 l 493 515 l 310 407 l 310 183 z "},"ł":{"ha":365,"x_min":18,"x_max":347,"o":"m 347 681 l 347 510 l 272 458 l 272 0 l 93 0 l 93 336 l 18 285 l 18 456 l 93 507 l 93 1014 l 272 1014 l 272 629 l 347 681 z "},"Ń":{"ha":935,"x_min":90,"x_max":844,"o":"m 346 1060 l 518 1060 l 672 1250 l 457 1250 l 346 1060 m 653 972 l 844 972 l 844 0 l 699 0 l 282 594 l 282 0 l 90 0 l 90 972 l 236 972 l 653 379 l 653 972 z "},"ń":{"ha":801,"x_min":82,"x_max":731,"o":"m 629 983 l 475 793 l 303 793 l 414 983 l 629 983 m 468 714 q 656 638 582 714 q 731 426 731 561 l 731 0 l 551 0 l 551 404 q 514 510 551 474 q 414 547 476 547 q 303 504 344 547 q 261 375 261 461 l 261 0 l 82 0 l 82 694 l 261 694 l 261 617 q 468 714 326 714 z "},"Ņ":{"ha":935,"x_min":90,"x_max":844,"o":"m 653 972 l 844 972 l 844 0 l 699 0 l 282 594 l 282 0 l 90 0 l 90 972 l 236 972 l 653 379 l 653 972 m 518 -365 l 560 -87 l 390 -87 l 376 -365 l 518 -365 z "},"ņ":{"ha":801,"x_min":82,"x_max":731,"o":"m 468 714 q 656 638 582 714 q 731 426 731 561 l 731 0 l 551 0 l 551 404 q 514 510 551 474 q 414 547 476 547 q 303 504 344 547 q 261 375 261 461 l 261 0 l 82 0 l 82 694 l 261 694 l 261 617 q 468 714 326 714 m 317 -365 l 331 -87 l 500 -87 l 458 -365 l 317 -365 z "},"Ň":{"ha":935,"x_min":90,"x_max":844,"o":"m 361 1049 l 214 1250 l 392 1250 l 453 1160 l 513 1250 l 690 1250 l 543 1049 l 361 1049 m 653 972 l 844 972 l 844 0 l 699 0 l 282 594 l 282 0 l 90 0 l 90 972 l 236 972 l 653 379 l 653 972 z "},"ň":{"ha":801,"x_min":82,"x_max":731,"o":"m 318 782 l 171 983 l 349 983 l 410 893 l 469 983 l 647 983 l 500 782 l 318 782 m 468 714 q 656 638 582 714 q 731 426 731 561 l 731 0 l 551 0 l 551 404 q 514 510 551 474 q 414 547 476 547 q 303 504 344 547 q 261 375 261 461 l 261 0 l 82 0 l 82 694 l 261 694 l 261 617 q 468 714 326 714 z "},"Ŋ":{"ha":935,"x_min":90,"x_max":844,"o":"m 653 972 l 844 972 l 844 0 q 760 -214 844 -142 q 521 -278 675 -286 l 521 -103 q 620 -78 588 -103 q 653 11 653 -54 l 653 65 l 282 594 l 282 0 l 90 0 l 90 972 l 236 972 l 653 379 l 653 972 z "},"ŋ":{"ha":801,"x_min":82,"x_max":731,"o":"m 468 714 q 656 638 582 714 q 731 426 731 561 l 731 -14 q 658 -233 731 -158 q 439 -297 585 -307 l 439 -125 q 524 -105 496 -131 q 551 -14 551 -79 l 551 404 q 514 510 551 474 q 414 547 476 547 q 303 504 344 547 q 261 375 261 461 l 261 0 l 82 0 l 82 694 l 261 694 l 261 617 q 468 714 326 714 z "},"Ō":{"ha":1100,"x_min":46,"x_max":1056,"o":"m 349 1072 l 349 1218 l 751 1218 l 751 1072 l 349 1072 m 908 127 q 835 54 908 127 q 550 -19 761 -19 q 192 127 339 -19 q 46 486 46 274 q 192 845 46 699 q 550 992 339 992 q 908 845 761 992 q 1056 486 1056 699 q 908 127 1056 274 m 326 258 q 372 213 326 258 q 550 168 417 168 q 774 258 683 168 q 864 486 864 347 q 774 715 864 625 q 550 806 683 806 q 326 715 417 806 q 236 486 236 625 q 326 258 236 347 z "},"ō":{"ha":825,"x_min":46,"x_max":781,"o":"m 211 794 l 211 940 l 614 940 l 614 794 l 211 794 m 674 87 q 620 34 674 87 q 413 -19 567 -19 q 152 87 258 -19 q 46 347 46 193 q 152 608 46 501 q 413 714 258 714 q 674 608 567 714 q 781 347 781 501 q 674 87 781 193 m 278 210 q 305 183 278 210 q 413 156 332 156 q 547 210 493 156 q 601 347 601 264 q 547 485 601 431 q 413 539 493 539 q 278 485 332 539 q 225 347 225 431 q 278 210 225 264 z "},"Ő":{"ha":1100,"x_min":46,"x_max":1056,"o":"m 307 1060 l 485 1060 l 601 1251 l 415 1251 l 307 1060 m 547 1060 l 725 1060 l 856 1251 l 669 1251 l 547 1060 m 908 127 q 835 54 908 127 q 550 -19 761 -19 q 192 127 339 -19 q 46 486 46 274 q 192 845 46 699 q 550 992 339 992 q 908 845 761 992 q 1056 486 1056 699 q 908 127 1056 274 m 326 258 q 372 213 326 258 q 550 168 417 168 q 774 258 683 168 q 864 486 864 347 q 774 715 864 625 q 550 806 683 806 q 326 715 417 806 q 236 486 236 625 q 326 258 236 347 z "},"ő":{"ha":825,"x_min":46,"x_max":781,"o":"m 169 782 l 347 782 l 464 974 l 278 974 l 169 782 m 410 782 l 588 782 l 718 974 l 532 974 l 410 782 m 674 87 q 620 34 674 87 q 413 -19 567 -19 q 152 87 258 -19 q 46 347 46 193 q 152 608 46 501 q 413 714 258 714 q 674 608 567 714 q 781 347 781 501 q 674 87 781 193 m 278 210 q 305 183 278 210 q 413 156 332 156 q 547 210 493 156 q 601 347 601 264 q 547 485 601 431 q 413 539 493 539 q 278 485 332 539 q 225 347 225 431 q 278 210 225 264 z "},"Œ":{"ha":1272,"x_min":46,"x_max":1226,"o":"m 865 183 l 1226 183 l 1226 0 l 675 0 q 536 -19 608 -19 q 186 126 326 -19 q 46 486 46 272 q 186 846 46 700 q 536 992 326 992 q 675 972 608 992 l 1219 972 l 1219 789 l 865 789 l 865 582 l 1189 582 l 1189 401 l 865 401 l 865 183 m 675 189 l 675 785 q 536 806 613 806 q 320 716 404 806 q 236 486 236 626 q 320 257 236 346 q 536 168 404 168 q 675 189 618 168 z "},"œ":{"ha":1363,"x_min":46,"x_max":1319,"o":"m 789 274 q 860 175 808 207 q 979 143 913 143 q 1140 213 1088 143 l 1285 129 q 982 -19 1182 -19 q 690 136 782 -19 q 407 -19 594 -19 q 149 86 253 -19 q 46 347 46 192 q 149 608 46 503 q 407 714 253 714 q 572 673 499 714 q 689 560 646 632 q 976 714 779 714 q 1224 608 1128 714 q 1319 347 1319 503 q 1313 274 1319 313 l 789 274 m 786 414 l 1140 414 q 1078 519 1125 485 q 969 553 1031 553 q 851 516 899 553 q 786 414 803 479 m 413 156 q 547 210 493 156 q 601 347 601 264 q 547 485 601 431 q 413 539 493 539 q 278 485 331 539 q 225 347 225 432 q 278 209 225 263 q 413 156 331 156 z "},"Ŕ":{"ha":853,"x_min":90,"x_max":831,"o":"m 625 1250 l 471 1060 l 299 1060 l 410 1250 l 625 1250 m 624 0 l 428 338 l 282 338 l 282 0 l 90 0 l 90 972 l 479 972 q 708 878 614 972 q 803 650 803 783 q 751 483 803 560 q 615 367 700 406 l 831 0 l 624 0 m 282 793 l 282 506 l 479 506 q 572 548 533 506 q 611 650 611 590 q 572 751 611 710 q 479 793 533 793 l 282 793 z "},"ŕ":{"ha":494,"x_min":82,"x_max":483,"o":"m 483 972 l 329 782 l 157 782 l 268 972 l 483 972 m 261 575 q 344 675 286 642 q 472 708 401 708 l 472 508 q 326 475 390 518 q 261 332 261 432 l 261 0 l 82 0 l 82 694 l 261 694 l 261 575 z "},"Ŗ":{"ha":853,"x_min":90,"x_max":831,"o":"m 615 367 l 831 0 l 624 0 l 428 338 l 282 338 l 282 0 l 90 0 l 90 972 l 479 972 q 708 878 614 972 q 803 650 803 783 q 751 483 803 560 q 615 367 700 406 m 282 793 l 282 506 l 479 506 q 572 548 533 506 q 611 650 611 590 q 572 751 611 710 q 479 793 533 793 l 282 793 m 358 -365 l 372 -87 l 542 -87 l 500 -365 l 358 -365 z "},"ŗ":{"ha":494,"x_min":76,"x_max":472,"o":"m 261 575 q 344 675 286 642 q 472 708 401 708 l 472 508 q 326 475 390 518 q 261 332 261 432 l 261 0 l 82 0 l 82 694 l 261 694 l 261 575 m 76 -365 l 90 -87 l 260 -87 l 218 -365 l 76 -365 z "},"Ř":{"ha":853,"x_min":90,"x_max":831,"o":"m 314 1049 l 167 1250 l 344 1250 l 406 1160 l 465 1250 l 643 1250 l 496 1049 l 314 1049 m 624 0 l 428 338 l 282 338 l 282 0 l 90 0 l 90 972 l 479 972 q 708 878 614 972 q 803 650 803 783 q 751 483 803 560 q 615 367 700 406 l 831 0 l 624 0 m 282 793 l 282 506 l 479 506 q 572 548 533 506 q 611 650 611 590 q 572 751 611 710 q 479 793 533 793 l 282 793 z "},"ř":{"ha":494,"x_min":25,"x_max":501,"o":"m 172 771 l 25 972 l 203 972 l 264 882 l 324 972 l 501 972 l 354 771 l 172 771 m 261 575 q 344 675 286 642 q 472 708 401 708 l 472 508 q 326 475 390 518 q 261 332 261 432 l 261 0 l 82 0 l 82 694 l 261 694 l 261 575 z "},"Ś":{"ha":810,"x_min":40,"x_max":775,"o":"m 296 1071 l 468 1071 l 622 1261 l 407 1261 l 296 1071 m 422 -19 q 179 45 278 -19 q 40 221 81 110 l 204 317 q 428 168 261 168 q 546 197 508 168 q 583 271 583 226 q 538 351 583 322 q 374 413 492 379 q 263 451 308 432 q 173 503 218 471 q 104 586 128 536 q 81 703 81 636 q 174 913 81 835 q 400 992 268 992 q 608 934 518 992 q 747 774 697 876 l 586 681 q 400 806 528 806 q 306 778 340 806 q 272 708 272 751 q 310 634 272 663 q 457 572 349 606 q 524 551 501 558 q 587 527 547 543 q 648 497 626 511 q 697 460 669 483 q 740 411 725 436 q 765 351 754 386 q 775 274 775 315 q 677 60 775 139 q 422 -19 579 -19 z "},"ś":{"ha":646,"x_min":35,"x_max":606,"o":"m 536 983 l 382 793 l 210 793 l 321 983 l 536 983 m 247 497 q 284 452 247 469 q 374 422 321 435 q 479 388 426 408 q 569 321 532 368 q 606 203 606 274 q 526 38 606 96 q 326 -19 446 -19 q 35 146 113 -19 l 190 233 q 326 143 221 143 q 422 203 422 143 q 385 248 422 231 q 296 279 349 265 q 190 314 243 293 q 101 380 138 335 q 64 493 64 425 q 140 655 64 596 q 328 714 215 714 q 482 676 413 714 q 592 567 551 638 l 439 483 q 328 554 406 554 q 270 539 293 554 q 247 497 247 524 z "},"Ş":{"ha":810,"x_min":40,"x_max":775,"o":"m 775 274 q 700 80 775 156 q 497 -14 625 4 l 497 -64 q 566 -101 538 -74 q 594 -172 594 -128 q 289 -300 594 -318 l 289 -174 q 439 -146 439 -183 q 351 -111 439 -118 l 351 -15 q 155 62 235 0 q 40 221 75 124 l 204 317 q 428 168 261 168 q 546 197 508 168 q 583 271 583 226 q 538 351 583 322 q 374 413 492 379 q 263 451 308 432 q 173 503 218 471 q 104 586 128 536 q 81 703 81 636 q 174 913 81 835 q 400 992 268 992 q 608 934 518 992 q 747 774 697 876 l 586 681 q 400 806 528 806 q 306 778 340 806 q 272 708 272 751 q 310 634 272 663 q 457 572 349 606 q 524 551 501 558 q 587 527 547 543 q 648 497 626 511 q 697 460 669 483 q 740 411 725 436 q 765 351 754 386 q 775 274 775 315 z "},"ş":{"ha":646,"x_min":35,"x_max":606,"o":"m 606 203 q 553 62 606 117 q 413 -11 500 7 l 413 -64 q 481 -101 453 -74 q 510 -172 510 -128 q 204 -300 510 -318 l 204 -174 q 354 -146 354 -183 q 267 -111 354 -118 l 267 -15 q 35 146 100 6 l 190 233 q 326 143 221 143 q 422 203 422 143 q 385 248 422 231 q 296 279 349 265 q 190 314 243 293 q 101 380 138 335 q 64 493 64 425 q 140 655 64 596 q 328 714 215 714 q 482 676 413 714 q 592 567 551 638 l 439 483 q 328 554 406 554 q 270 539 293 554 q 247 497 247 524 q 284 452 247 469 q 374 422 321 435 q 479 388 426 408 q 569 321 532 368 q 606 203 606 274 z "},"Š":{"ha":810,"x_min":40,"x_max":775,"o":"m 311 1060 l 164 1261 l 342 1261 l 403 1171 l 463 1261 l 640 1261 l 493 1060 l 311 1060 m 457 572 q 524 551 501 558 q 587 527 547 543 q 648 497 626 511 q 697 460 669 483 q 740 411 725 436 q 765 351 754 386 q 775 274 775 315 q 677 60 775 139 q 422 -19 579 -19 q 179 45 278 -19 q 40 221 81 110 l 204 317 q 428 168 261 168 q 546 197 508 168 q 583 271 583 226 q 538 351 583 322 q 374 413 492 379 q 263 451 308 432 q 173 503 218 471 q 104 586 128 536 q 81 703 81 636 q 174 913 81 835 q 400 992 268 992 q 608 934 518 992 q 747 774 697 876 l 586 681 q 400 806 528 806 q 306 778 340 806 q 272 708 272 751 q 310 634 272 663 q 457 572 349 606 z "},"š":{"ha":646,"x_min":35,"x_max":606,"o":"m 225 782 l 78 983 l 256 983 l 317 893 l 376 983 l 554 983 l 407 782 l 225 782 m 247 497 q 284 452 247 469 q 374 422 321 435 q 479 388 426 408 q 569 321 532 368 q 606 203 606 274 q 526 38 606 96 q 326 -19 446 -19 q 35 146 113 -19 l 190 233 q 326 143 221 143 q 422 203 422 143 q 385 248 422 231 q 296 279 349 265 q 190 314 243 293 q 101 380 138 335 q 64 493 64 425 q 140 655 64 596 q 328 714 215 714 q 482 676 413 714 q 592 567 551 638 l 439 483 q 328 554 406 554 q 270 539 293 554 q 247 497 247 524 z "},"Ţ":{"ha":750,"x_min":18,"x_max":733,"o":"m 733 972 l 733 789 l 471 789 l 471 0 l 279 0 l 279 789 l 18 789 l 18 972 l 733 972 m 285 -365 l 299 -87 l 468 -87 l 426 -365 l 285 -365 z "},"ţ":{"ha":535,"x_min":22,"x_max":479,"o":"m 479 522 l 322 522 l 322 233 q 340 181 322 197 q 393 162 358 164 q 479 163 428 160 l 479 0 q 219 35 294 -21 q 143 233 143 90 l 143 522 l 22 522 l 22 694 l 143 694 l 143 835 l 322 889 l 322 694 l 479 694 l 479 522 m 225 -365 l 239 -87 l 408 -87 l 367 -365 l 225 -365 z "},"Ť":{"ha":750,"x_min":18,"x_max":733,"o":"m 279 1049 l 132 1250 l 310 1250 l 371 1160 l 431 1250 l 608 1250 l 461 1049 l 279 1049 m 733 972 l 733 789 l 471 789 l 471 0 l 279 0 l 279 789 l 18 789 l 18 972 l 733 972 z "},"ť":{"ha":564,"x_min":22,"x_max":567,"o":"m 397 1008 l 567 1008 l 525 756 l 383 756 l 397 1008 m 322 889 l 322 694 l 479 694 l 479 522 l 322 522 l 322 233 q 340 181 322 197 q 393 162 358 164 q 479 163 428 160 l 479 0 q 219 35 294 -21 q 143 233 143 90 l 143 522 l 22 522 l 22 694 l 143 694 l 143 835 l 322 889 z "},"Ŧ":{"ha":750,"x_min":18,"x_max":733,"o":"m 733 789 l 471 789 l 471 563 l 636 563 l 636 390 l 471 390 l 471 0 l 279 0 l 279 390 l 115 390 l 115 563 l 279 563 l 279 789 l 18 789 l 18 972 l 733 972 l 733 789 z "},"ŧ":{"ha":535,"x_min":22,"x_max":479,"o":"m 479 522 l 322 522 l 322 421 l 433 421 l 433 276 l 322 276 l 322 233 q 340 181 322 197 q 393 162 358 164 q 479 163 428 160 l 479 0 q 219 35 294 -21 q 143 233 143 90 l 143 276 l 63 276 l 63 421 l 143 421 l 143 522 l 22 522 l 22 694 l 143 694 l 143 835 l 322 889 l 322 694 l 479 694 l 479 522 z "},"Ū":{"ha":907,"x_min":82,"x_max":825,"o":"m 251 1061 l 251 1207 l 654 1207 l 654 1061 l 251 1061 m 453 -19 q 186 72 290 -19 q 82 318 82 164 l 82 972 l 272 972 l 272 333 q 316 213 272 257 q 453 168 360 168 q 590 213 546 168 q 633 333 633 257 l 633 972 l 825 972 l 825 318 q 721 72 825 164 q 453 -19 617 -19 z "},"ū":{"ha":801,"x_min":71,"x_max":719,"o":"m 596 929 l 596 783 l 193 783 l 193 929 l 596 929 m 540 694 l 719 694 l 719 0 l 540 0 l 540 78 q 333 -19 475 -19 q 145 57 219 -19 q 71 268 71 133 l 71 694 l 250 694 l 250 290 q 288 184 250 221 q 388 147 325 147 q 499 190 457 147 q 540 319 540 233 l 540 694 z "},"Ů":{"ha":907,"x_min":82,"x_max":825,"o":"m 453 985 q 327 1032 376 985 q 278 1150 278 1079 q 327 1267 278 1221 q 453 1314 376 1314 q 579 1267 531 1314 q 628 1150 628 1221 q 579 1031 628 1078 q 453 985 531 985 m 453 1097 q 508 1150 508 1097 q 453 1201 508 1201 q 413 1187 428 1201 q 399 1150 399 1172 q 413 1112 399 1126 q 453 1097 428 1097 m 453 -19 q 186 72 290 -19 q 82 318 82 164 l 82 972 l 272 972 l 272 333 q 316 213 272 257 q 453 168 360 168 q 590 213 546 168 q 633 333 633 257 l 633 972 l 825 972 l 825 318 q 721 72 825 164 q 453 -19 617 -19 z "},"ů":{"ha":801,"x_min":71,"x_max":719,"o":"m 394 749 q 269 796 318 749 q 219 914 219 843 q 269 1031 219 985 q 394 1078 318 1078 q 521 1031 472 1078 q 569 914 569 985 q 521 795 569 842 q 394 749 472 749 m 394 965 q 355 951 369 965 q 340 914 340 936 q 355 876 340 890 q 394 861 369 861 q 450 914 450 861 q 394 965 450 965 m 540 694 l 719 694 l 719 0 l 540 0 l 540 78 q 333 -19 475 -19 q 145 57 219 -19 q 71 268 71 133 l 71 694 l 250 694 l 250 290 q 288 184 250 221 q 388 147 325 147 q 499 190 457 147 q 540 319 540 233 l 540 694 z "},"Ű":{"ha":907,"x_min":82,"x_max":825,"o":"m 210 1049 l 388 1049 l 504 1240 l 318 1240 l 210 1049 m 450 1049 l 628 1049 l 758 1240 l 572 1240 l 450 1049 m 453 -19 q 186 72 290 -19 q 82 318 82 164 l 82 972 l 272 972 l 272 333 q 316 213 272 257 q 453 168 360 168 q 590 213 546 168 q 633 333 633 257 l 633 972 l 825 972 l 825 318 q 721 72 825 164 q 453 -19 617 -19 z "},"ű":{"ha":801,"x_min":71,"x_max":719,"o":"m 446 963 l 329 771 l 151 771 l 260 963 l 446 963 m 569 771 l 392 771 l 514 963 l 700 963 l 569 771 m 540 694 l 719 694 l 719 0 l 540 0 l 540 78 q 333 -19 475 -19 q 145 57 219 -19 q 71 268 71 133 l 71 694 l 250 694 l 250 290 q 288 184 250 221 q 388 147 325 147 q 499 190 457 147 q 540 319 540 233 l 540 694 z "},"Ų":{"ha":907,"x_min":82,"x_max":825,"o":"m 633 972 l 825 972 l 825 318 q 700 56 825 149 q 601 -51 629 -11 q 572 -132 574 -92 q 607 -169 571 -167 q 644 -162 622 -171 l 644 -275 q 533 -297 592 -297 q 437 -266 474 -297 q 400 -175 400 -235 q 475 -19 400 -106 l 453 -19 q 186 72 290 -19 q 82 318 82 164 l 82 972 l 272 972 l 272 333 q 316 213 272 257 q 453 168 360 168 q 590 213 546 168 q 633 333 633 257 l 633 972 z "},"ų":{"ha":801,"x_min":71,"x_max":719,"o":"m 719 694 l 719 0 q 646 -132 646 -78 q 681 -169 646 -169 q 719 -162 697 -171 l 719 -275 q 607 -297 667 -297 q 512 -266 549 -297 q 475 -175 475 -235 q 564 0 475 -103 l 540 0 l 540 78 q 333 -19 475 -19 q 145 57 219 -19 q 71 268 71 133 l 71 694 l 250 694 l 250 290 q 288 184 250 221 q 388 147 325 147 q 499 190 457 147 q 540 319 540 233 l 540 694 l 719 694 z "},"Ŵ":{"ha":1388,"x_min":21,"x_max":1367,"o":"m 731 1139 l 669 1049 l 492 1049 l 639 1250 l 821 1250 l 968 1049 l 790 1049 l 731 1139 m 1165 972 l 1367 972 l 1094 0 l 876 0 l 693 642 l 511 0 l 293 0 l 21 972 l 222 972 l 408 251 l 611 972 l 775 972 l 979 251 l 1165 972 z "},"ŵ":{"ha":1069,"x_min":15,"x_max":1054,"o":"m 531 861 l 469 771 l 292 771 l 439 972 l 621 972 l 768 771 l 590 771 l 531 861 m 864 694 l 1054 694 l 833 0 l 663 0 l 535 421 l 407 0 l 236 0 l 15 694 l 206 694 l 324 268 l 450 694 l 619 694 l 746 267 l 864 694 z "},"Ŷ":{"ha":863,"x_min":4,"x_max":860,"o":"m 426 1139 l 365 1049 l 188 1049 l 335 1250 l 517 1250 l 664 1049 l 486 1049 l 426 1139 m 860 972 l 526 379 l 526 0 l 336 0 l 336 379 l 4 972 l 221 972 l 432 567 l 643 972 l 860 972 z "},"ŷ":{"ha":729,"x_min":4,"x_max":726,"o":"m 361 861 l 300 771 l 122 771 l 269 972 l 451 972 l 599 771 l 421 771 l 361 861 m 535 694 l 726 694 l 474 0 q 330 -217 419 -150 q 107 -278 240 -285 l 107 -111 q 222 -81 179 -112 q 289 22 264 -49 l 4 694 l 200 694 l 381 228 l 535 694 z "},"Ÿ":{"ha":863,"x_min":4,"x_max":860,"o":"m 365 1067 q 351 1054 365 1067 q 299 1040 338 1040 q 232 1067 260 1040 q 204 1133 204 1094 q 232 1200 204 1172 q 299 1228 260 1228 q 365 1200 338 1228 q 392 1133 392 1172 q 365 1067 392 1094 m 628 1067 q 615 1054 628 1067 q 563 1040 601 1040 q 496 1067 524 1040 q 468 1133 468 1094 q 496 1200 468 1172 q 563 1228 524 1228 q 628 1200 601 1228 q 656 1133 656 1172 q 628 1067 656 1094 m 860 972 l 526 379 l 526 0 l 336 0 l 336 379 l 4 972 l 221 972 l 432 567 l 643 972 l 860 972 z "},"Ź":{"ha":743,"x_min":50,"x_max":707,"o":"m 594 1250 l 440 1060 l 268 1060 l 379 1250 l 594 1250 m 294 183 l 707 183 l 707 0 l 50 0 l 50 153 l 454 789 l 60 789 l 60 972 l 699 972 l 699 821 l 294 183 z "},"ź":{"ha":658,"x_min":60,"x_max":608,"o":"m 550 972 l 396 782 l 224 782 l 335 972 l 550 972 m 300 168 l 608 168 l 608 0 l 60 0 l 60 119 l 353 526 l 74 526 l 74 694 l 594 694 l 594 575 l 300 168 z "},"Ż":{"ha":743,"x_min":50,"x_max":707,"o":"m 379 1043 q 303 1075 335 1043 q 271 1151 271 1107 q 303 1227 271 1196 q 379 1258 335 1258 q 454 1226 422 1258 q 486 1151 486 1194 q 454 1075 486 1107 q 379 1043 422 1043 m 294 183 l 707 183 l 707 0 l 50 0 l 50 153 l 454 789 l 60 789 l 60 972 l 699 972 l 699 821 l 294 183 z "},"ż":{"ha":658,"x_min":60,"x_max":608,"o":"m 335 765 q 258 797 290 765 q 226 874 226 829 q 258 949 226 918 q 335 981 290 981 q 410 949 378 981 q 442 874 442 917 q 410 797 442 829 q 335 765 378 765 m 300 168 l 608 168 l 608 0 l 60 0 l 60 119 l 353 526 l 74 526 l 74 694 l 594 694 l 594 575 l 300 168 z "},"Ž":{"ha":743,"x_min":50,"x_max":707,"o":"m 283 1049 l 136 1250 l 314 1250 l 375 1160 l 435 1250 l 613 1250 l 465 1049 l 283 1049 m 294 183 l 707 183 l 707 0 l 50 0 l 50 153 l 454 789 l 60 789 l 60 972 l 699 972 l 699 821 l 294 183 z "},"ž":{"ha":658,"x_min":60,"x_max":608,"o":"m 239 771 l 92 972 l 269 972 l 331 882 l 390 972 l 568 972 l 421 771 l 239 771 m 300 168 l 608 168 l 608 0 l 60 0 l 60 119 l 353 526 l 74 526 l 74 694 l 594 694 l 594 575 l 300 168 z "},"ƒ":{"ha":613,"x_min":0,"x_max":613,"o":"m 613 800 q 521 804 568 825 q 463 722 474 783 l 438 575 l 564 575 l 564 403 l 408 403 l 331 -57 q 216 -258 306 -204 q 0 -279 126 -312 l 0 -101 q 93 -106 46 -126 q 150 -24 140 -85 l 222 403 l 106 403 l 106 575 l 253 575 l 283 757 q 398 958 308 904 q 613 979 488 1013 l 613 800 z "},"Ș":{"ha":810,"x_min":40,"x_max":775,"o":"m 422 -19 q 179 45 278 -19 q 40 221 81 110 l 204 317 q 428 168 261 168 q 546 197 508 168 q 583 271 583 226 q 538 351 583 322 q 374 413 492 379 q 263 451 308 432 q 173 503 218 471 q 104 586 128 536 q 81 703 81 636 q 174 913 81 835 q 400 992 268 992 q 608 934 518 992 q 747 774 697 876 l 586 681 q 400 806 528 806 q 306 778 340 806 q 272 708 272 751 q 310 634 272 663 q 457 572 349 606 q 524 551 501 558 q 587 527 547 543 q 648 497 626 511 q 697 460 669 483 q 740 411 725 436 q 765 351 754 386 q 775 274 775 315 q 677 60 775 139 q 422 -19 579 -19 m 474 -365 l 515 -87 l 346 -87 l 332 -365 l 474 -365 z "},"ș":{"ha":646,"x_min":35,"x_max":606,"o":"m 247 497 q 284 452 247 469 q 374 422 321 435 q 479 388 426 408 q 569 321 532 368 q 606 203 606 274 q 526 38 606 96 q 326 -19 446 -19 q 35 146 113 -19 l 190 233 q 326 143 221 143 q 422 203 422 143 q 385 248 422 231 q 296 279 349 265 q 190 314 243 293 q 101 380 138 335 q 64 493 64 425 q 140 655 64 596 q 328 714 215 714 q 482 676 413 714 q 592 567 551 638 l 439 483 q 328 554 406 554 q 270 539 293 554 q 247 497 247 524 m 247 -365 l 261 -87 l 431 -87 l 389 -365 l 247 -365 z "},"Ț":{"ha":750,"x_min":18,"x_max":733,"o":"m 733 972 l 733 789 l 471 789 l 471 0 l 279 0 l 279 789 l 18 789 l 18 972 l 733 972 m 285 -365 l 299 -87 l 468 -87 l 426 -365 l 285 -365 z "},"ț":{"ha":535,"x_min":22,"x_max":479,"o":"m 479 522 l 322 522 l 322 233 q 340 181 322 197 q 393 162 358 164 q 479 163 428 160 l 479 0 q 219 35 294 -21 q 143 233 143 90 l 143 522 l 22 522 l 22 694 l 143 694 l 143 835 l 322 889 l 322 694 l 479 694 l 479 522 m 225 -365 l 239 -87 l 408 -87 l 367 -365 l 225 -365 z "},"ˆ":{"ha":532,"x_min":28,"x_max":504,"o":"m 504 771 l 326 771 l 267 861 l 206 771 l 28 771 l 175 972 l 357 972 l 504 771 z "},"ˇ":{"ha":532,"x_min":28,"x_max":504,"o":"m 326 972 l 504 972 l 357 771 l 175 771 l 28 972 l 206 972 l 267 882 l 326 972 z "},"˘":{"ha":518,"x_min":28,"x_max":490,"o":"m 258 760 q 88 813 149 760 q 28 961 28 865 l 188 961 q 258 889 188 889 q 331 961 331 889 l 490 961 q 430 813 490 865 q 258 760 369 760 z "},"˙":{"ha":282,"x_min":28,"x_max":243,"o":"m 136 765 q 60 797 92 765 q 28 874 28 829 q 60 949 28 918 q 136 981 92 981 q 212 949 181 981 q 243 874 243 917 q 211 797 243 829 q 136 765 179 765 z "},"˚":{"ha":407,"x_min":28,"x_max":378,"o":"m 203 749 q 77 796 126 749 q 28 914 28 843 q 77 1031 28 985 q 203 1078 126 1078 q 329 1031 281 1078 q 378 914 378 985 q 329 795 378 842 q 203 749 281 749 m 203 861 q 258 914 258 861 q 203 965 258 965 q 163 951 178 965 q 149 914 149 936 q 163 876 149 890 q 203 861 178 861 z "},"˛":{"ha":300,"x_min":28,"x_max":272,"o":"m 161 -297 q 65 -266 101 -297 q 28 -175 28 -235 q 119 0 28 -96 l 272 0 q 200 -132 200 -76 q 235 -169 197 -169 q 272 -162 250 -171 l 272 -275 q 161 -297 219 -297 z "},"˜":{"ha":526,"x_min":29,"x_max":500,"o":"m 29 778 q 44 887 29 842 q 83 954 58 932 q 141 983 108 976 q 210 979 174 989 q 282 946 246 969 q 338 924 322 918 q 354 979 354 929 l 500 979 q 477 849 500 900 q 417 783 454 799 q 337 774 381 767 q 247 811 293 782 q 190 833 207 839 q 174 778 174 828 l 29 778 z "},"˝":{"ha":604,"x_min":28,"x_max":576,"o":"m 28 771 l 206 771 l 322 963 l 136 963 l 28 771 m 268 771 l 446 771 l 576 963 l 390 963 l 268 771 z "},"̀":{"ha":0,"x_min":-354,"x_max":-28,"o":"m -28 782 l -139 972 l -354 972 l -200 782 l -28 782 z "},"́":{"ha":0,"x_min":-354,"x_max":-28,"o":"m -354 782 l -182 782 l -28 972 l -243 972 l -354 782 z "},"̂":{"ha":0,"x_min":-504,"x_max":-28,"o":"m -28 771 l -206 771 l -265 861 l -326 771 l -504 771 l -357 972 l -175 972 l -28 771 z "},"̃":{"ha":0,"x_min":-487,"x_max":-17,"o":"m -487 778 q -473 887 -487 842 q -433 954 -458 932 q -376 983 -408 976 q -307 979 -343 989 q -235 946 -271 969 q -178 924 -194 918 q -162 979 -162 929 l -17 979 q -40 849 -17 900 q -99 783 -62 799 q -180 774 -136 767 q -269 811 -224 782 q -326 833 -310 839 q -343 778 -343 828 l -487 778 z "},"̄":{"ha":0,"x_min":-431,"x_max":-28,"o":"m -431 783 l -431 929 l -28 929 l -28 783 l -431 783 z "},"̆":{"ha":0,"x_min":-490,"x_max":-28,"o":"m -260 760 q -430 813 -369 760 q -490 961 -490 865 l -331 961 q -260 889 -331 889 q -187 961 -187 889 l -28 961 q -88 813 -28 865 q -260 760 -149 760 z "},"̇":{"ha":0,"x_min":-243,"x_max":-28,"o":"m -135 765 q -211 797 -179 765 q -243 874 -243 829 q -211 949 -243 918 q -135 981 -179 981 q -60 949 -92 981 q -28 874 -28 917 q -60 797 -28 829 q -135 765 -92 765 z "},"̈":{"ha":0,"x_min":-479,"x_max":-28,"o":"m -319 790 q -332 776 -319 790 q -385 763 -346 763 q -451 790 -424 763 q -479 856 -479 817 q -451 922 -479 894 q -385 950 -424 950 q -319 922 -346 950 q -292 856 -292 894 q -319 790 -292 817 m -55 790 q -68 776 -55 790 q -121 763 -82 763 q -187 790 -160 763 q -215 856 -215 817 q -187 922 -215 894 q -121 950 -160 950 q -55 922 -82 950 q -28 856 -28 894 q -55 790 -28 817 z "},"̊":{"ha":0,"x_min":-383,"x_max":-33,"o":"m -208 749 q -334 796 -285 749 q -383 914 -383 843 q -334 1031 -383 985 q -208 1078 -285 1078 q -82 1031 -131 1078 q -33 914 -33 985 q -82 795 -33 842 q -208 749 -131 749 m -208 861 q -153 914 -153 861 q -208 965 -153 965 q -248 951 -233 965 q -262 914 -262 936 q -248 876 -262 890 q -208 861 -233 861 z "},"̋":{"ha":0,"x_min":-576,"x_max":-28,"o":"m -576 771 l -399 771 l -282 963 l -468 963 l -576 771 m -336 771 l -158 771 l -28 963 l -214 963 l -336 771 z "},"̌":{"ha":0,"x_min":-504,"x_max":-28,"o":"m -206 972 l -28 972 l -175 771 l -357 771 l -504 972 l -326 972 l -265 882 l -206 972 z "},"̒":{"ha":0,"x_min":-211,"x_max":-28,"o":"m -169 1354 l -211 1076 l -42 1076 l -28 1354 l -169 1354 z "},"̦":{"ha":0,"x_min":-211,"x_max":-28,"o":"m -69 -365 l -28 -87 l -197 -87 l -211 -365 l -69 -365 z "},"̧":{"ha":0,"x_min":-333,"x_max":-28,"o":"m -125 -64 q -56 -101 -85 -74 q -28 -172 -28 -128 q -333 -300 -28 -318 l -333 -174 q -183 -146 -183 -183 q -271 -111 -183 -118 l -271 0 l -125 0 l -125 -64 z "},"̨":{"ha":0,"x_min":-283,"x_max":-39,"o":"m -150 -297 q -247 -266 -210 -297 q -283 -175 -283 -235 q -192 0 -283 -96 l -39 0 q -111 -132 -111 -76 q -76 -169 -114 -169 q -39 -162 -61 -171 l -39 -275 q -150 -297 -92 -297 z "},"Δ":{"ha":907,"x_min":4,"x_max":903,"o":"m 572 972 l 903 0 l 4 0 l 335 972 l 572 972 m 268 179 l 638 179 l 453 760 l 268 179 z "},"Ω":{"ha":1079,"x_min":35,"x_max":1044,"o":"m 1044 507 q 896 183 1044 311 l 1026 183 l 1026 0 l 642 0 l 642 183 q 796 295 738 214 q 854 486 854 376 q 764 715 854 625 q 540 806 674 806 q 317 715 407 806 q 226 486 226 625 q 284 295 226 376 q 438 183 342 214 l 438 0 l 54 0 l 54 183 l 183 183 q 35 507 35 311 q 182 851 35 711 q 540 992 329 992 q 897 851 750 992 q 1044 507 1044 711 z "},"π":{"ha":924,"x_min":32,"x_max":893,"o":"m 893 694 l 893 526 l 782 526 l 782 0 l 603 0 l 603 526 l 326 526 l 326 0 l 147 0 l 147 526 l 32 526 l 32 694 l 893 694 z "},"Ё":{"ha":736,"x_min":90,"x_max":692,"o":"m 322 1067 q 308 1054 322 1067 q 256 1040 294 1040 q 189 1067 217 1040 q 161 1133 161 1094 q 189 1200 161 1172 q 256 1228 217 1228 q 322 1200 294 1228 q 349 1133 349 1172 q 322 1067 349 1094 m 585 1067 q 572 1054 585 1067 q 519 1040 558 1040 q 453 1067 481 1040 q 425 1133 425 1094 q 453 1200 425 1172 q 519 1228 481 1228 q 585 1200 558 1228 q 613 1133 613 1172 q 585 1067 613 1094 m 282 183 l 692 183 l 692 0 l 90 0 l 90 972 l 685 972 l 685 789 l 282 789 l 282 582 l 650 582 l 650 401 l 282 401 l 282 183 z "},"Ђ":{"ha":976,"x_min":18,"x_max":907,"o":"m 646 647 q 836 577 765 647 q 907 376 907 507 l 907 269 q 833 47 907 117 q 606 -14 758 -24 l 606 164 q 692 184 667 160 q 717 269 717 208 l 717 357 q 604 475 717 475 q 453 447 539 475 l 453 0 l 263 0 l 263 789 l 18 789 l 18 972 l 729 972 l 729 789 l 453 789 l 453 617 q 646 647 553 647 z "},"Ѓ":{"ha":660,"x_min":90,"x_max":643,"o":"m 589 1249 l 435 1058 l 263 1058 l 374 1249 l 589 1249 m 643 972 l 643 789 l 282 789 l 282 0 l 90 0 l 90 972 l 643 972 z "},"Є":{"ha":1006,"x_min":44,"x_max":967,"o":"m 550 168 q 699 205 632 168 q 801 306 767 242 l 967 210 q 793 42 904 104 q 550 -19 682 -19 q 188 126 331 -19 q 44 486 44 272 q 188 847 44 701 q 550 992 331 992 q 792 930 681 992 q 967 763 904 868 l 801 667 q 699 769 765 732 q 550 806 632 806 q 351 744 432 806 q 246 576 271 682 l 679 576 l 679 397 l 246 397 q 351 230 271 292 q 550 168 432 168 z "},"Ѕ":{"ha":810,"x_min":40,"x_max":775,"o":"m 422 -19 q 179 45 278 -19 q 40 221 81 110 l 204 317 q 428 168 261 168 q 546 197 508 168 q 583 271 583 226 q 538 351 583 322 q 374 413 492 379 q 263 451 308 432 q 173 503 218 471 q 104 586 128 536 q 81 703 81 636 q 174 913 81 835 q 400 992 268 992 q 608 934 518 992 q 747 774 697 876 l 586 681 q 400 806 528 806 q 306 778 340 806 q 272 708 272 751 q 310 634 272 663 q 457 572 349 606 q 524 551 501 558 q 587 527 547 543 q 648 497 626 511 q 697 460 669 483 q 740 411 725 436 q 765 351 754 386 q 775 274 775 315 q 677 60 775 139 q 422 -19 579 -19 z "},"І":{"ha":372,"x_min":90,"x_max":282,"o":"m 90 972 l 282 972 l 282 0 l 90 0 l 90 972 z "},"Ї":{"ha":372,"x_min":-40,"x_max":411,"o":"m 120 1067 q 107 1054 120 1067 q 54 1040 93 1040 q -12 1067 15 1040 q -40 1133 -40 1094 q -12 1200 -40 1172 q 54 1228 15 1228 q 120 1200 93 1228 q 147 1133 147 1172 q 120 1067 147 1094 m 384 1067 q 370 1054 384 1067 q 318 1040 357 1040 q 251 1067 279 1040 q 224 1133 224 1094 q 251 1200 224 1172 q 318 1228 279 1228 q 384 1200 357 1228 q 411 1133 411 1172 q 384 1067 411 1094 m 90 972 l 282 972 l 282 0 l 90 0 l 90 972 z "},"Ј":{"ha":790,"x_min":46,"x_max":708,"o":"m 367 -19 q 46 165 138 -19 l 211 260 q 367 168 257 168 q 481 204 443 168 q 518 303 518 240 l 518 972 l 708 972 l 708 303 q 613 65 708 150 q 367 -19 517 -19 z "},"Љ":{"ha":1335,"x_min":15,"x_max":1300,"o":"m 972 608 q 1206 522 1113 608 q 1300 304 1300 436 q 1206 85 1300 171 q 972 0 1113 0 l 638 0 l 638 789 l 378 789 l 378 403 q 347 190 378 276 q 263 61 317 103 q 149 5 210 19 q 15 -3 89 -10 l 15 175 q 144 213 101 165 q 188 397 188 260 l 188 972 l 828 972 l 828 608 l 972 608 m 972 179 q 1071 213 1032 179 q 1110 304 1110 246 q 1071 396 1110 363 q 972 429 1032 429 l 828 429 l 828 179 l 972 179 z "},"Њ":{"ha":1331,"x_min":90,"x_max":1296,"o":"m 967 608 q 1201 522 1107 608 q 1296 304 1296 436 q 1201 85 1296 171 q 967 0 1107 0 l 632 0 l 632 429 l 282 429 l 282 0 l 90 0 l 90 972 l 282 972 l 282 608 l 632 608 l 632 972 l 824 972 l 824 608 l 967 608 m 967 179 q 1065 213 1026 179 q 1104 304 1104 246 q 1065 396 1104 363 q 967 429 1026 429 l 824 429 l 824 179 l 967 179 z "},"Ћ":{"ha":983,"x_min":18,"x_max":907,"o":"m 646 647 q 836 577 765 647 q 907 376 907 507 l 907 0 l 717 0 l 717 357 q 604 475 717 475 q 453 447 539 475 l 453 0 l 263 0 l 263 789 l 18 789 l 18 972 l 729 972 l 729 789 l 453 789 l 453 617 q 646 647 553 647 z "},"Ќ":{"ha":854,"x_min":90,"x_max":850,"o":"m 644 1249 l 490 1058 l 318 1058 l 429 1249 l 644 1249 m 850 0 l 629 0 l 282 456 l 282 0 l 90 0 l 90 972 l 282 972 l 282 543 l 615 972 l 836 972 l 476 500 l 850 0 z "},"Ў":{"ha":833,"x_min":32,"x_max":819,"o":"m 621 1215 l 621 1060 l 218 1060 l 218 1215 l 621 1215 m 628 972 l 819 972 l 528 268 q 144 0 411 -15 l 144 179 q 270 201 222 172 q 350 293 318 229 l 32 972 l 224 972 l 436 503 l 628 972 z "},"Џ":{"ha":907,"x_min":90,"x_max":817,"o":"m 625 972 l 817 972 l 817 0 l 549 0 l 549 -186 l 358 -186 l 358 0 l 90 0 l 90 972 l 282 972 l 282 183 l 625 183 l 625 972 z "},"А":{"ha":928,"x_min":4,"x_max":924,"o":"m 715 0 l 657 175 l 269 175 l 211 0 l 4 0 l 344 972 l 582 972 l 924 0 l 715 0 m 331 354 l 597 354 l 464 751 l 331 354 z "},"Б":{"ha":813,"x_min":90,"x_max":785,"o":"m 463 604 q 694 520 604 604 q 785 303 785 436 q 694 84 785 168 q 463 0 604 0 l 90 0 l 90 972 l 701 972 l 701 789 l 282 789 l 282 604 l 463 604 m 463 179 q 557 212 519 179 q 594 303 594 244 q 557 393 594 361 q 463 425 519 425 l 282 425 l 282 179 l 463 179 z "},"В":{"ha":840,"x_min":90,"x_max":806,"o":"m 678 504 q 806 282 806 431 q 718 79 806 158 q 503 0 631 0 l 90 0 l 90 972 l 474 972 q 684 895 599 972 q 769 699 769 818 q 678 504 769 578 m 474 793 l 282 793 l 282 579 l 474 579 q 548 610 518 579 q 578 686 578 640 q 549 763 578 732 q 474 793 519 793 m 503 179 q 583 212 551 179 q 615 294 615 244 q 583 376 615 343 q 503 408 551 408 l 282 408 l 282 179 l 503 179 z "},"Г":{"ha":660,"x_min":90,"x_max":643,"o":"m 643 972 l 643 789 l 282 789 l 282 0 l 90 0 l 90 972 l 643 972 z "},"Д":{"ha":979,"x_min":21,"x_max":942,"o":"m 838 183 l 942 183 l 942 -186 l 750 -186 l 750 0 l 213 0 l 213 -186 l 21 -186 l 21 183 l 115 183 q 196 513 196 296 l 196 972 l 838 972 l 838 183 m 321 183 l 646 183 l 646 793 l 388 793 l 388 510 q 321 183 388 299 z "},"Е":{"ha":736,"x_min":90,"x_max":692,"o":"m 282 183 l 692 183 l 692 0 l 90 0 l 90 972 l 685 972 l 685 789 l 282 789 l 282 582 l 650 582 l 650 401 l 282 401 l 282 183 z "},"Ж":{"ha":1256,"x_min":18,"x_max":1239,"o":"m 1239 0 l 1025 0 l 724 443 l 724 0 l 532 0 l 532 443 l 231 0 l 18 0 l 356 496 l 32 972 l 244 972 l 532 539 l 532 972 l 724 972 l 724 539 l 1011 972 l 1225 972 l 900 496 l 1239 0 z "},"З":{"ha":779,"x_min":29,"x_max":744,"o":"m 606 503 q 744 272 744 429 q 646 61 744 142 q 392 -19 547 -19 q 29 210 121 -19 l 194 303 q 392 161 239 161 q 513 194 471 161 q 554 285 554 228 q 513 375 554 342 q 396 408 472 408 l 275 408 l 275 579 l 367 579 q 479 610 439 579 q 519 696 519 642 q 485 781 519 750 q 382 813 450 813 q 207 690 257 813 l 44 785 q 382 992 143 992 q 618 914 526 992 q 710 708 710 836 q 606 503 710 578 z "},"И":{"ha":935,"x_min":90,"x_max":844,"o":"m 653 0 l 653 593 l 236 0 l 90 0 l 90 972 l 282 972 l 282 378 l 699 972 l 844 972 l 844 0 l 653 0 z "},"Й":{"ha":935,"x_min":90,"x_max":844,"o":"m 265 1061 l 265 1217 l 668 1217 l 668 1061 l 265 1061 m 653 0 l 653 593 l 236 0 l 90 0 l 90 972 l 282 972 l 282 378 l 699 972 l 844 972 l 844 0 l 653 0 z "},"К":{"ha":854,"x_min":90,"x_max":850,"o":"m 850 0 l 629 0 l 282 456 l 282 0 l 90 0 l 90 972 l 282 972 l 282 543 l 615 972 l 836 972 l 476 500 l 850 0 z "},"Л":{"ha":939,"x_min":15,"x_max":849,"o":"m 15 0 l 15 178 q 144 213 101 165 q 188 397 188 260 l 188 972 l 849 972 l 849 0 l 658 0 l 658 789 l 378 789 l 378 403 q 347 190 378 276 q 263 63 317 104 q 149 7 210 21 q 15 0 89 -7 z "},"М":{"ha":1132,"x_min":90,"x_max":1042,"o":"m 1042 972 l 1042 0 l 851 0 l 851 631 l 578 179 l 556 179 l 282 629 l 282 0 l 90 0 l 90 972 l 288 972 l 567 513 l 844 972 l 1042 972 z "},"Н":{"ha":924,"x_min":90,"x_max":833,"o":"m 643 972 l 833 972 l 833 0 l 643 0 l 643 403 l 282 403 l 282 0 l 90 0 l 90 972 l 282 972 l 282 586 l 643 586 l 643 972 z "},"О":{"ha":1100,"x_min":46,"x_max":1056,"o":"m 908 127 q 835 54 908 127 q 550 -19 761 -19 q 192 127 339 -19 q 46 486 46 274 q 192 845 46 699 q 550 992 339 992 q 908 845 761 992 q 1056 486 1056 699 q 908 127 1056 274 m 326 258 q 372 213 326 258 q 550 168 417 168 q 774 258 683 168 q 864 486 864 347 q 774 715 864 625 q 550 806 683 806 q 326 715 417 806 q 236 486 236 625 q 326 258 236 347 z "},"П":{"ha":907,"x_min":90,"x_max":817,"o":"m 817 972 l 817 0 l 625 0 l 625 789 l 282 789 l 282 0 l 90 0 l 90 972 l 817 972 z "},"Р":{"ha":819,"x_min":90,"x_max":785,"o":"m 453 972 q 689 878 593 972 q 785 646 785 783 q 689 414 785 508 q 453 319 593 319 l 282 319 l 282 0 l 90 0 l 90 972 l 453 972 m 453 499 q 554 541 514 499 q 594 646 594 583 q 554 751 594 710 q 453 793 514 793 l 282 793 l 282 499 l 453 499 z "},"С":{"ha":1008,"x_min":46,"x_max":969,"o":"m 551 -19 q 189 126 332 -19 q 46 486 46 272 q 189 847 46 701 q 551 992 332 992 q 795 930 683 992 q 969 763 907 868 l 804 667 q 701 769 768 732 q 551 806 635 806 q 323 717 410 806 q 236 486 236 628 q 323 257 236 346 q 551 168 410 168 q 702 205 635 168 q 804 306 769 242 l 969 210 q 796 42 907 104 q 551 -19 685 -19 z "},"Т":{"ha":750,"x_min":18,"x_max":733,"o":"m 733 972 l 733 789 l 471 789 l 471 0 l 279 0 l 279 789 l 18 789 l 18 972 l 733 972 z "},"У":{"ha":833,"x_min":32,"x_max":819,"o":"m 628 972 l 819 972 l 528 268 q 144 0 411 -15 l 144 179 q 270 201 222 172 q 350 293 318 229 l 32 972 l 224 972 l 436 503 l 628 972 z "},"Ф":{"ha":1138,"x_min":32,"x_max":1107,"o":"m 986 757 q 1047 705 986 757 q 1107 486 1107 653 q 986 215 1107 319 q 663 92 865 111 l 663 -21 l 475 -21 l 475 92 q 151 216 271 113 q 32 486 32 319 q 151 756 32 653 q 475 881 271 860 l 475 993 l 663 993 l 663 881 q 986 757 865 861 m 663 267 q 915 486 915 296 q 663 707 915 678 l 663 267 m 222 486 q 475 268 222 296 l 475 706 q 222 486 222 678 z "},"Х":{"ha":847,"x_min":18,"x_max":831,"o":"m 831 0 l 613 0 l 424 317 l 235 0 l 18 0 l 315 499 l 33 972 l 250 972 l 424 681 l 597 972 l 814 972 l 532 500 l 831 0 z "},"Ц":{"ha":958,"x_min":90,"x_max":921,"o":"m 817 183 l 921 183 l 921 -186 l 729 -186 l 729 0 l 90 0 l 90 972 l 282 972 l 282 183 l 625 183 l 625 972 l 817 972 l 817 183 z "},"Ч":{"ha":879,"x_min":69,"x_max":789,"o":"m 597 972 l 789 972 l 789 0 l 597 0 l 597 356 q 407 318 508 318 q 165 401 260 318 q 69 625 69 483 l 69 972 l 261 972 l 261 650 q 302 541 261 581 q 411 501 343 501 q 597 542 513 501 l 597 972 z "},"Ш":{"ha":1310,"x_min":90,"x_max":1219,"o":"m 1028 972 l 1219 972 l 1219 0 l 90 0 l 90 972 l 282 972 l 282 183 l 560 183 l 560 972 l 750 972 l 750 183 l 1028 183 l 1028 972 z "},"Щ":{"ha":1361,"x_min":90,"x_max":1324,"o":"m 1219 183 l 1324 183 l 1324 -186 l 1132 -186 l 1132 0 l 90 0 l 90 972 l 282 972 l 282 183 l 560 183 l 560 972 l 750 972 l 750 183 l 1028 183 l 1028 972 l 1219 972 l 1219 183 z "},"Ъ":{"ha":963,"x_min":0,"x_max":928,"o":"m 233 0 l 233 789 l 0 789 l 0 972 l 424 972 l 424 653 l 596 653 q 832 558 736 653 q 928 326 928 464 q 832 94 928 189 q 596 0 736 0 l 233 0 m 424 179 l 596 179 q 697 221 657 179 q 736 326 736 263 q 697 432 736 390 q 596 474 657 474 l 424 474 l 424 179 z "},"Ы":{"ha":1154,"x_min":90,"x_max":1064,"o":"m 90 0 l 90 972 l 282 972 l 282 653 l 453 653 q 689 558 593 653 q 785 326 785 464 q 689 94 785 189 q 453 0 593 0 l 90 0 m 874 0 l 874 972 l 1064 972 l 1064 0 l 874 0 m 282 179 l 453 179 q 554 221 514 179 q 594 326 594 263 q 554 432 594 390 q 453 474 514 474 l 282 474 l 282 179 z "},"Ь":{"ha":819,"x_min":90,"x_max":785,"o":"m 453 653 q 689 558 593 653 q 785 326 785 464 q 689 94 785 189 q 453 0 593 0 l 90 0 l 90 972 l 282 972 l 282 653 l 453 653 m 453 179 q 554 221 514 179 q 594 326 594 263 q 554 431 594 389 q 453 474 514 474 l 282 474 l 282 179 l 453 179 z "},"Э":{"ha":1006,"x_min":39,"x_max":961,"o":"m 456 992 q 818 847 675 992 q 961 486 961 701 q 818 126 961 272 q 456 -19 675 -19 q 213 42 324 -19 q 39 210 101 104 l 204 306 q 306 205 239 242 q 456 168 374 168 q 654 230 574 168 q 760 397 735 292 l 326 397 l 326 576 l 760 576 q 654 744 735 682 q 456 806 574 806 q 307 769 374 806 q 204 667 240 732 l 39 763 q 213 930 101 868 q 456 992 325 992 z "},"Ю":{"ha":1465,"x_min":90,"x_max":1421,"o":"m 915 992 q 1274 845 1126 992 q 1421 486 1421 699 q 1274 128 1421 275 q 915 -19 1126 -19 q 588 101 726 -19 q 422 408 450 222 l 282 408 l 282 0 l 90 0 l 90 972 l 282 972 l 282 592 l 426 592 q 598 879 463 767 q 915 992 733 992 m 692 258 q 737 213 692 258 q 915 168 782 168 q 1139 258 1049 168 q 1229 486 1229 347 q 1139 715 1229 625 q 915 806 1049 806 q 691 717 781 806 q 601 486 601 628 q 692 258 601 347 z "},"Я":{"ha":867,"x_min":36,"x_max":776,"o":"m 776 972 l 776 0 l 585 0 l 585 338 l 475 338 l 251 0 l 36 0 l 274 358 q 122 472 181 392 q 64 650 64 553 q 158 878 64 783 q 388 972 253 972 l 776 972 m 388 506 l 585 506 l 585 793 l 388 793 q 294 751 333 793 q 256 650 256 710 q 294 548 256 590 q 388 506 333 506 z "},"а":{"ha":869,"x_min":46,"x_max":789,"o":"m 610 694 l 789 694 l 789 0 l 610 0 l 610 82 q 383 -19 529 -19 q 145 87 244 -19 q 46 347 46 193 q 145 608 46 501 q 383 714 244 714 q 610 613 529 714 l 610 694 m 279 206 q 306 179 279 206 q 417 151 333 151 q 555 206 500 151 q 610 347 610 261 q 555 488 610 433 q 417 543 500 543 q 279 488 333 543 q 225 347 225 433 q 279 206 225 261 z "},"б":{"ha":788,"x_min":46,"x_max":761,"o":"m 411 -19 q 147 86 247 -19 q 46 354 46 192 q 99 628 46 532 q 311 804 151 725 q 378 835 335 815 q 437 864 421 856 q 481 889 453 872 q 520 919 508 906 q 546 953 532 932 q 568 999 560 974 l 715 914 q 634 783 697 829 q 444 688 571 736 q 315 618 356 653 q 257 535 275 583 q 465 614 335 614 q 671 530 581 614 q 761 307 761 446 q 665 72 761 164 q 411 -19 568 -19 m 284 192 q 309 168 284 192 q 410 144 335 144 q 533 190 485 144 q 582 307 582 236 q 533 424 582 378 q 408 471 485 471 q 287 428 340 471 q 233 313 233 385 q 284 192 233 239 z "},"в":{"ha":710,"x_min":82,"x_max":679,"o":"m 582 356 q 679 197 679 308 q 619 55 679 110 q 447 0 558 0 l 82 0 l 82 694 l 419 694 q 590 640 529 694 q 650 499 650 586 q 582 356 650 407 m 403 547 l 250 547 l 250 422 l 403 422 q 479 485 479 422 q 403 547 479 547 m 426 151 q 504 218 504 151 q 483 264 504 247 q 426 281 463 281 l 250 281 l 250 151 l 426 151 z "},"г":{"ha":571,"x_min":82,"x_max":557,"o":"m 557 694 l 557 522 l 261 522 l 261 0 l 82 0 l 82 694 l 557 694 z "},"д":{"ha":831,"x_min":18,"x_max":799,"o":"m 707 168 l 799 168 l 799 -186 l 624 -186 l 624 0 l 193 0 l 193 -186 l 18 -186 l 18 168 l 103 168 q 163 414 163 257 l 163 694 l 707 694 l 707 168 m 294 168 l 532 168 l 532 533 l 338 533 l 338 414 q 294 168 338 267 z "},"е":{"ha":807,"x_min":46,"x_max":764,"o":"m 233 274 q 429 143 269 143 q 585 213 532 143 l 729 129 q 426 -19 626 -19 q 150 85 254 -19 q 46 347 46 189 q 149 609 46 504 q 413 714 251 714 q 665 608 565 714 q 764 347 764 503 q 757 274 764 313 l 233 274 m 231 413 l 585 413 q 522 518 569 483 q 413 553 474 553 q 293 516 340 553 q 231 413 246 479 z "},"ж":{"ha":1036,"x_min":18,"x_max":1019,"o":"m 1019 0 l 818 0 l 606 311 l 606 0 l 431 0 l 431 311 l 218 0 l 18 0 l 268 351 l 32 694 l 232 694 l 431 393 l 431 694 l 606 694 l 606 393 l 804 694 l 1006 694 l 768 351 l 1019 0 z "},"з":{"ha":625,"x_min":26,"x_max":594,"o":"m 489 354 q 594 189 594 303 q 521 40 594 100 q 314 -19 447 -19 q 26 147 103 -19 l 172 233 q 315 139 206 139 q 392 158 365 139 q 419 211 419 178 q 338 275 419 275 l 239 275 l 239 428 l 314 428 q 394 492 394 428 q 371 540 394 522 q 308 558 347 558 q 179 471 218 558 l 35 554 q 306 714 114 714 q 495 653 425 714 q 565 507 565 593 q 489 354 565 406 z "},"и":{"ha":799,"x_min":82,"x_max":717,"o":"m 583 694 l 717 694 l 717 0 l 542 0 l 542 394 l 215 0 l 82 0 l 82 694 l 257 694 l 257 300 l 583 694 z "},"й":{"ha":799,"x_min":82,"x_max":717,"o":"m 199 783 l 199 939 l 601 939 l 601 783 l 199 783 m 583 694 l 717 694 l 717 0 l 542 0 l 542 394 l 215 0 l 82 0 l 82 694 l 257 694 l 257 300 l 583 694 z "},"к":{"ha":729,"x_min":82,"x_max":722,"o":"m 722 0 l 514 0 l 261 315 l 261 0 l 82 0 l 82 694 l 261 694 l 261 389 l 500 694 l 714 694 l 435 351 l 722 0 z "},"л":{"ha":758,"x_min":14,"x_max":678,"o":"m 678 694 l 678 0 l 499 0 l 499 522 l 307 522 l 307 290 q 14 0 307 -32 l 14 168 q 99 187 69 154 q 128 300 128 219 l 128 694 l 678 694 z "},"м":{"ha":886,"x_min":82,"x_max":804,"o":"m 804 694 l 804 0 l 631 0 l 631 406 l 454 128 l 432 128 l 254 408 l 254 0 l 82 0 l 82 694 l 258 694 l 443 403 l 628 694 l 804 694 z "},"н":{"ha":799,"x_min":82,"x_max":717,"o":"m 538 694 l 717 694 l 717 0 l 538 0 l 538 264 l 261 264 l 261 0 l 82 0 l 82 694 l 261 694 l 261 432 l 538 432 l 538 694 z "},"о":{"ha":825,"x_min":46,"x_max":781,"o":"m 674 87 q 620 34 674 87 q 413 -19 567 -19 q 152 87 258 -19 q 46 347 46 193 q 152 608 46 501 q 413 714 258 714 q 674 608 567 714 q 781 347 781 501 q 674 87 781 193 m 278 210 q 305 183 278 210 q 413 156 332 156 q 547 210 493 156 q 601 347 601 264 q 547 485 601 431 q 413 539 493 539 q 278 485 332 539 q 225 347 225 431 q 278 210 225 264 z "},"п":{"ha":799,"x_min":82,"x_max":717,"o":"m 717 694 l 717 0 l 538 0 l 538 526 l 261 526 l 261 0 l 82 0 l 82 694 l 717 694 z "},"р":{"ha":869,"x_min":82,"x_max":825,"o":"m 486 714 q 726 608 626 714 q 825 347 825 501 q 726 87 825 193 q 486 -19 626 -19 q 261 82 340 -19 l 261 -278 l 82 -278 l 82 694 l 261 694 l 261 613 q 486 714 340 714 m 315 206 q 342 179 315 206 q 453 151 369 151 q 591 206 536 151 q 646 347 646 261 q 591 488 646 433 q 453 543 536 543 q 315 488 369 543 q 261 347 261 433 q 315 206 261 261 z "},"с":{"ha":744,"x_min":46,"x_max":726,"o":"m 413 -19 q 151 86 256 -19 q 46 347 46 192 q 151 608 46 503 q 413 714 256 714 q 597 665 514 714 q 724 535 681 617 l 569 444 q 506 513 549 488 q 411 538 464 538 q 278 484 331 538 q 225 347 225 431 q 278 212 225 265 q 411 158 331 158 q 508 183 465 158 q 571 250 550 207 l 726 161 q 597 30 681 79 q 413 -19 514 -19 z "},"т":{"ha":643,"x_min":14,"x_max":629,"o":"m 629 694 l 629 522 l 413 522 l 413 0 l 233 0 l 233 522 l 14 522 l 14 694 l 629 694 z "},"у":{"ha":729,"x_min":4,"x_max":726,"o":"m 535 694 l 726 694 l 474 0 q 107 -278 368 -293 l 107 -111 q 219 -85 178 -112 q 285 8 260 -57 l 4 694 l 194 694 l 381 228 l 535 694 z "},"ф":{"ha":951,"x_min":46,"x_max":907,"o":"m 815 585 q 861 535 815 585 q 907 347 907 486 q 815 110 907 208 q 564 -11 724 11 l 564 -278 l 389 -278 l 389 -11 q 138 110 229 11 q 46 347 46 208 q 138 585 46 486 q 389 706 229 683 l 389 972 l 564 972 l 564 706 q 815 585 724 683 m 222 347 q 265 228 222 278 q 389 160 308 178 l 389 535 q 265 467 308 517 q 222 347 222 418 m 564 161 q 687 228 644 179 q 729 347 729 278 q 687 467 729 418 q 564 535 644 517 l 564 161 z "},"х":{"ha":729,"x_min":7,"x_max":722,"o":"m 722 0 l 515 0 l 365 211 l 214 0 l 7 0 l 261 354 l 18 694 l 225 694 l 365 499 l 506 694 l 711 694 l 468 356 l 722 0 z "},"ц":{"ha":840,"x_min":82,"x_max":810,"o":"m 693 168 l 810 168 l 810 -186 l 635 -186 l 635 0 l 82 0 l 82 694 l 261 694 l 261 168 l 514 168 l 514 694 l 693 694 l 693 168 z "},"ч":{"ha":751,"x_min":49,"x_max":671,"o":"m 492 694 l 671 694 l 671 0 l 492 0 l 492 221 q 326 196 414 196 q 124 260 200 196 q 49 446 49 324 l 49 694 l 228 694 l 228 467 q 357 363 228 363 q 492 389 432 363 l 492 694 z "},"ш":{"ha":1157,"x_min":82,"x_max":1075,"o":"m 896 694 l 1075 694 l 1075 0 l 82 0 l 82 694 l 261 694 l 261 168 l 489 168 l 489 694 l 668 694 l 668 168 l 896 168 l 896 694 z "},"щ":{"ha":1178,"x_min":82,"x_max":1146,"o":"m 1054 168 l 1146 168 l 1146 -186 l 971 -186 l 971 0 l 82 0 l 82 694 l 261 694 l 261 168 l 478 168 l 478 694 l 657 694 l 657 168 l 875 168 l 875 694 l 1054 694 l 1054 168 z "},"ъ":{"ha":797,"x_min":0,"x_max":765,"o":"m 504 472 q 694 408 622 472 q 765 236 765 343 q 694 65 765 129 q 504 0 622 0 l 189 0 l 189 522 l 0 522 l 0 694 l 368 694 l 368 472 l 504 472 m 504 158 q 566 180 542 158 q 590 236 590 201 q 566 293 590 271 q 504 315 542 315 l 368 315 l 368 158 l 504 158 z "},"ы":{"ha":996,"x_min":82,"x_max":914,"o":"m 396 472 q 586 408 514 472 q 658 236 658 343 q 586 65 658 129 q 396 0 514 0 l 82 0 l 82 694 l 261 694 l 261 472 l 396 472 m 735 694 l 914 694 l 914 0 l 735 0 l 735 694 m 397 158 q 459 180 435 158 q 483 236 483 201 q 459 293 483 271 q 397 315 435 315 l 261 315 l 261 158 l 397 158 z "},"ь":{"ha":689,"x_min":82,"x_max":658,"o":"m 396 472 q 586 408 514 472 q 658 236 658 343 q 586 65 658 129 q 396 0 514 0 l 82 0 l 82 694 l 261 694 l 261 472 l 396 472 m 397 158 q 459 180 435 158 q 483 236 483 201 q 459 293 483 271 q 397 315 435 315 l 261 315 l 261 158 l 397 158 z "},"э":{"ha":746,"x_min":18,"x_max":700,"o":"m 338 714 q 598 612 496 714 q 700 347 700 510 q 598 83 700 185 q 336 -19 496 -19 q 144 30 229 -19 q 18 161 60 79 l 169 249 q 232 179 188 206 q 339 153 276 153 q 442 184 397 153 q 508 267 488 215 l 272 267 l 272 428 l 508 428 q 442 510 488 479 q 339 542 397 542 q 171 447 217 542 l 19 535 q 148 665 64 617 q 338 714 232 714 z "},"ю":{"ha":1126,"x_min":82,"x_max":1082,"o":"m 714 714 q 975 608 868 714 q 1082 347 1082 501 q 975 87 1082 193 q 714 -19 868 -19 q 486 60 583 -19 q 361 264 389 139 l 261 264 l 261 0 l 82 0 l 82 694 l 261 694 l 261 432 l 363 432 q 488 635 390 556 q 714 714 585 714 m 580 210 q 607 183 580 210 q 714 156 633 156 q 849 210 794 156 q 903 347 903 264 q 849 485 903 431 q 714 539 794 539 q 580 485 633 539 q 526 347 526 431 q 580 210 526 264 z "},"я":{"ha":721,"x_min":35,"x_max":639,"o":"m 639 694 l 639 0 l 464 0 l 464 217 l 401 217 l 242 0 l 35 0 l 208 238 q 102 326 142 265 q 63 456 63 386 q 132 624 63 553 q 314 694 201 694 l 639 694 m 328 535 q 263 512 289 535 q 238 450 238 489 q 263 390 238 413 q 328 368 289 368 l 464 368 l 464 535 l 328 535 z "},"ё":{"ha":807,"x_min":46,"x_max":764,"o":"m 338 795 q 325 782 338 795 q 272 768 311 768 q 206 795 233 768 q 178 861 178 822 q 206 928 178 900 q 272 956 233 956 q 338 928 311 956 q 365 861 365 900 q 338 795 365 822 m 602 795 q 589 782 602 795 q 536 768 575 768 q 469 795 497 768 q 442 861 442 822 q 469 928 442 900 q 536 956 497 956 q 602 928 575 956 q 629 861 629 900 q 602 795 629 822 m 233 274 q 429 143 269 143 q 585 213 532 143 l 729 129 q 426 -19 626 -19 q 150 85 254 -19 q 46 347 46 189 q 149 609 46 504 q 413 714 251 714 q 665 608 565 714 q 764 347 764 503 q 757 274 764 313 l 233 274 m 231 413 l 585 413 q 522 518 569 483 q 413 553 474 553 q 293 516 340 553 q 231 413 246 479 z "},"ђ":{"ha":810,"x_min":4,"x_max":740,"o":"m 476 714 q 666 638 592 714 q 740 426 740 561 l 740 -14 q 665 -237 740 -167 q 438 -297 590 -307 l 438 -125 q 531 -103 501 -129 q 561 -14 561 -76 l 561 404 q 523 510 561 474 q 422 547 485 547 q 311 504 353 547 q 269 375 269 461 l 269 0 l 90 0 l 90 769 l 4 769 l 4 886 l 90 886 l 90 972 l 269 972 l 269 886 l 465 886 l 465 769 l 269 769 l 269 615 q 476 714 333 714 z "},"ѓ":{"ha":571,"x_min":82,"x_max":557,"o":"m 513 972 l 358 782 l 186 782 l 297 972 l 513 972 m 557 694 l 557 522 l 261 522 l 261 0 l 82 0 l 82 694 l 557 694 z "},"є":{"ha":746,"x_min":46,"x_max":728,"o":"m 576 249 l 728 161 q 601 30 686 79 q 410 -19 517 -19 q 148 83 250 -19 q 46 347 46 185 q 148 612 46 510 q 408 714 250 714 q 598 665 514 714 q 726 535 682 617 l 575 447 q 407 542 529 542 q 303 510 349 542 q 238 428 258 479 l 474 428 l 474 267 l 238 267 q 303 184 258 215 q 407 153 349 153 q 514 179 469 153 q 576 249 558 206 z "},"ѕ":{"ha":646,"x_min":35,"x_max":606,"o":"m 247 497 q 284 452 247 469 q 374 422 321 435 q 479 388 426 408 q 569 321 532 368 q 606 203 606 274 q 526 38 606 96 q 326 -19 446 -19 q 35 146 113 -19 l 190 233 q 326 143 221 143 q 422 203 422 143 q 385 248 422 231 q 296 279 349 265 q 190 314 243 293 q 101 380 138 335 q 64 493 64 425 q 140 655 64 596 q 328 714 215 714 q 482 676 413 714 q 592 567 551 638 l 439 483 q 328 554 406 554 q 270 539 293 554 q 247 497 247 524 z "},"і":{"ha":343,"x_min":61,"x_max":282,"o":"m 171 778 q 94 810 126 778 q 61 888 61 843 q 94 965 61 932 q 171 999 126 999 q 249 965 217 999 q 282 888 282 932 q 249 810 282 843 q 171 778 217 778 m 82 0 l 82 694 l 261 694 l 261 0 l 82 0 z "},"ї":{"ha":343,"x_min":-56,"x_max":396,"o":"m 105 790 q 91 776 105 790 q 39 763 78 763 q -28 790 0 763 q -56 856 -56 817 q -28 922 -56 894 q 39 950 0 950 q 105 922 78 950 q 132 856 132 894 q 105 790 132 817 m 369 790 q 355 776 369 790 q 303 763 342 763 q 236 790 264 763 q 208 856 208 817 q 236 922 208 894 q 303 950 264 950 q 369 922 342 950 q 396 856 396 894 q 369 790 396 817 m 82 0 l 82 694 l 261 694 l 261 0 l 82 0 z "},"ј":{"ha":367,"x_min":-18,"x_max":306,"o":"m 196 778 q 117 810 150 778 q 85 888 85 843 q 117 965 85 932 q 196 999 150 999 q 273 965 240 999 q 306 888 306 932 q 273 810 306 843 q 196 778 240 778 m 106 -14 l 106 694 l 285 694 l 285 -14 q 210 -237 285 -167 q -18 -297 136 -307 l -18 -125 q 76 -103 46 -129 q 106 -14 106 -76 z "},"љ":{"ha":1061,"x_min":14,"x_max":1029,"o":"m 792 456 q 965 394 901 456 q 1029 228 1029 333 q 964 61 1029 122 q 792 0 899 0 l 485 0 l 485 522 l 307 522 l 307 290 q 14 -8 307 -28 l 14 160 q 128 300 128 144 l 128 694 l 664 694 l 664 456 l 792 456 m 793 158 q 844 176 824 158 q 865 228 865 194 q 844 279 865 261 q 793 297 824 297 l 664 297 l 664 158 l 793 158 z "},"њ":{"ha":1097,"x_min":71,"x_max":1065,"o":"m 818 456 q 997 394 928 456 q 1065 228 1065 332 q 996 62 1065 124 q 818 0 926 0 l 510 0 l 510 288 l 250 288 l 250 0 l 71 0 l 71 694 l 250 694 l 250 456 l 510 456 l 510 694 l 689 694 l 689 456 l 818 456 m 818 158 q 869 176 849 158 q 890 228 890 194 q 869 279 890 261 q 818 297 849 297 l 689 297 l 689 158 l 818 158 z "},"ћ":{"ha":810,"x_min":4,"x_max":740,"o":"m 476 714 q 666 638 592 714 q 740 426 740 561 l 740 0 l 561 0 l 561 404 q 523 510 561 474 q 422 547 485 547 q 311 504 353 547 q 269 375 269 461 l 269 0 l 90 0 l 90 769 l 4 769 l 4 886 l 90 886 l 90 972 l 269 972 l 269 886 l 465 886 l 465 769 l 269 769 l 269 615 q 476 714 333 714 z "},"ќ":{"ha":729,"x_min":82,"x_max":722,"o":"m 589 972 l 435 782 l 263 782 l 374 972 l 589 972 m 722 0 l 514 0 l 261 315 l 261 0 l 82 0 l 82 694 l 261 694 l 261 389 l 500 694 l 714 694 l 435 351 l 722 0 z "},"ў":{"ha":729,"x_min":4,"x_max":726,"o":"m 567 939 l 567 783 l 164 783 l 164 939 l 567 939 m 535 694 l 726 694 l 474 0 q 107 -278 368 -293 l 107 -111 q 219 -85 178 -112 q 285 8 260 -57 l 4 694 l 194 694 l 381 228 l 535 694 z "},"џ":{"ha":799,"x_min":82,"x_max":717,"o":"m 538 694 l 717 694 l 717 0 l 488 0 l 488 -186 l 313 -186 l 313 0 l 82 0 l 82 694 l 261 694 l 261 168 l 538 168 l 538 694 z "},"Ґ":{"ha":660,"x_min":90,"x_max":643,"o":"m 451 1139 l 643 1139 l 643 789 l 282 789 l 282 0 l 90 0 l 90 972 l 451 972 l 451 1139 z "},"ґ":{"ha":571,"x_min":82,"x_max":557,"o":"m 382 835 l 557 835 l 557 522 l 261 522 l 261 0 l 82 0 l 82 694 l 382 694 l 382 835 z "},"Ẁ":{"ha":1388,"x_min":21,"x_max":1367,"o":"m 849 1060 l 738 1250 l 522 1250 l 676 1060 l 849 1060 m 293 0 l 21 972 l 222 972 l 408 251 l 611 972 l 775 972 l 979 251 l 1165 972 l 1367 972 l 1094 0 l 876 0 l 693 642 l 511 0 l 293 0 z "},"ẁ":{"ha":1069,"x_min":15,"x_max":1054,"o":"m 649 782 l 476 782 l 322 972 l 538 972 l 649 782 m 864 694 l 1054 694 l 833 0 l 663 0 l 535 421 l 407 0 l 236 0 l 15 694 l 206 694 l 324 268 l 450 694 l 619 694 l 746 267 l 864 694 z "},"Ẃ":{"ha":1388,"x_min":21,"x_max":1367,"o":"m 624 1060 l 796 1060 l 950 1250 l 735 1250 l 624 1060 m 293 0 l 21 972 l 222 972 l 408 251 l 611 972 l 775 972 l 979 251 l 1165 972 l 1367 972 l 1094 0 l 876 0 l 693 642 l 511 0 l 293 0 z "},"ẃ":{"ha":1069,"x_min":15,"x_max":1054,"o":"m 750 972 l 596 782 l 424 782 l 535 972 l 750 972 m 864 694 l 1054 694 l 833 0 l 663 0 l 535 421 l 407 0 l 236 0 l 15 694 l 206 694 l 324 268 l 450 694 l 619 694 l 746 267 l 864 694 z "},"Ẅ":{"ha":1388,"x_min":21,"x_max":1367,"o":"m 669 1067 q 655 1054 669 1067 q 603 1040 642 1040 q 536 1067 564 1040 q 508 1133 508 1094 q 536 1200 508 1172 q 603 1228 564 1228 q 669 1200 642 1228 q 696 1133 696 1172 q 669 1067 696 1094 m 933 1067 q 919 1054 933 1067 q 867 1040 906 1040 q 800 1067 828 1040 q 772 1133 772 1094 q 800 1200 772 1172 q 867 1228 828 1228 q 933 1200 906 1228 q 960 1133 960 1172 q 933 1067 960 1094 m 293 0 l 21 972 l 222 972 l 408 251 l 611 972 l 775 972 l 979 251 l 1165 972 l 1367 972 l 1094 0 l 876 0 l 693 642 l 511 0 l 293 0 z "},"ẅ":{"ha":1069,"x_min":15,"x_max":1054,"o":"m 469 790 q 455 776 469 790 q 403 763 442 763 q 336 790 364 763 q 308 856 308 817 q 336 922 308 894 q 403 950 364 950 q 469 922 442 950 q 496 856 496 894 q 469 790 496 817 m 733 790 q 719 776 733 790 q 667 763 706 763 q 600 790 628 763 q 572 856 572 817 q 600 922 572 894 q 667 950 628 950 q 733 922 706 950 q 760 856 760 894 q 733 790 760 817 m 864 694 l 1054 694 l 833 0 l 663 0 l 535 421 l 407 0 l 236 0 l 15 694 l 206 694 l 324 268 l 450 694 l 619 694 l 746 267 l 864 694 z "},"Ỳ":{"ha":863,"x_min":4,"x_max":860,"o":"m 544 1060 l 372 1060 l 218 1250 l 433 1250 l 544 1060 m 860 972 l 526 379 l 526 0 l 336 0 l 336 379 l 4 972 l 221 972 l 432 567 l 643 972 l 860 972 z "},"ỳ":{"ha":729,"x_min":4,"x_max":726,"o":"m 479 782 l 307 782 l 153 972 l 368 972 l 479 782 m 535 694 l 726 694 l 474 0 q 330 -217 419 -150 q 107 -278 240 -285 l 107 -111 q 222 -81 179 -112 q 289 22 264 -49 l 4 694 l 200 694 l 381 228 l 535 694 z "},"–":{"ha":896,"x_min":90,"x_max":806,"o":"m 90 333 l 90 506 l 806 506 l 806 333 l 90 333 z "},"—":{"ha":1035,"x_min":90,"x_max":944,"o":"m 90 333 l 90 506 l 944 506 l 944 333 l 90 333 z "},"‘":{"ha":386,"x_min":68,"x_max":318,"o":"m 68 586 l 172 972 l 318 972 l 263 586 l 68 586 z "},"’":{"ha":386,"x_min":68,"x_max":318,"o":"m 318 974 l 214 588 l 68 588 l 124 974 l 318 974 z "},"‚":{"ha":386,"x_min":68,"x_max":318,"o":"m 318 192 l 214 -194 l 68 -194 l 124 192 l 318 192 z "},"“":{"ha":643,"x_min":68,"x_max":575,"o":"m 68 586 l 172 972 l 318 972 l 263 586 l 68 586 m 325 586 l 429 972 l 575 972 l 519 586 l 325 586 z "},"”":{"ha":643,"x_min":68,"x_max":575,"o":"m 318 974 l 214 588 l 68 588 l 124 974 l 318 974 m 575 974 l 471 588 l 325 588 l 381 974 l 575 974 z "},"„":{"ha":643,"x_min":68,"x_max":575,"o":"m 318 192 l 214 -194 l 68 -194 l 124 192 l 318 192 m 575 192 l 471 -194 l 325 -194 l 381 192 l 575 192 z "},"†":{"ha":667,"x_min":63,"x_max":604,"o":"m 604 785 l 604 613 l 424 613 l 424 0 l 244 0 l 244 613 l 63 613 l 63 785 l 244 785 l 244 972 l 424 972 l 424 785 l 604 785 z "},"‡":{"ha":667,"x_min":63,"x_max":604,"o":"m 604 613 l 424 613 l 424 360 l 604 360 l 604 188 l 424 188 l 424 0 l 244 0 l 244 188 l 63 188 l 63 360 l 244 360 l 244 613 l 63 613 l 63 785 l 244 785 l 244 972 l 424 972 l 424 785 l 604 785 l 604 613 z "},"•":{"ha":500,"x_min":60,"x_max":442,"o":"m 253 296 q 116 352 172 296 q 60 489 60 408 q 116 622 60 567 q 253 678 172 678 q 386 622 331 678 q 442 489 442 567 q 386 352 442 408 q 253 296 331 296 z "},"…":{"ha":1004,"x_min":68,"x_max":936,"o":"m 269 17 q 252 -1 269 17 q 186 -18 235 -18 q 103 17 138 -18 q 68 100 68 51 q 103 183 68 149 q 186 218 138 218 q 269 183 235 218 q 304 100 304 149 q 269 17 304 51 m 586 17 q 569 -1 586 17 q 503 -18 551 -18 q 419 17 454 -18 q 385 100 385 51 q 419 183 385 149 q 503 218 454 218 q 586 183 551 218 q 621 100 621 149 q 586 17 621 51 m 901 17 q 884 -1 901 17 q 818 -18 867 -18 q 735 17 769 -18 q 700 100 700 51 q 735 183 700 149 q 818 218 769 218 q 901 183 867 218 q 936 100 936 149 q 901 17 936 51 z "},"‰":{"ha":1582,"x_min":63,"x_max":1519,"o":"m 464 599 q 431 566 464 599 q 297 533 397 533 q 130 600 197 533 q 63 763 63 667 q 130 925 63 858 q 297 992 197 992 q 464 926 397 992 q 531 763 531 860 q 464 599 531 665 m 161 147 l 794 851 l 879 804 l 244 99 l 161 147 m 234 699 q 246 686 234 699 q 296 674 258 674 q 358 699 333 674 q 383 763 383 725 q 358 825 383 800 q 296 850 333 850 q 234 825 258 850 q 210 763 210 800 q 234 699 210 725 m 933 50 q 900 17 933 50 q 767 -17 867 -17 q 600 50 667 -17 q 533 213 533 117 q 600 375 533 308 q 767 442 667 442 q 933 375 867 442 q 1000 213 1000 308 q 933 50 1000 117 m 1286 -17 q 1119 50 1186 -17 q 1051 213 1051 117 q 1119 375 1051 308 q 1286 442 1186 442 q 1452 375 1385 442 q 1519 213 1519 308 q 1452 50 1519 117 q 1286 -17 1385 -17 m 705 149 q 717 136 705 149 q 767 124 729 124 q 828 150 804 124 q 853 213 853 176 q 828 276 853 250 q 767 301 804 301 q 705 276 729 301 q 681 213 681 250 q 705 149 681 175 m 1285 124 q 1348 150 1324 124 q 1372 213 1372 176 q 1348 276 1372 250 q 1285 301 1324 301 q 1223 276 1247 301 q 1199 213 1199 250 q 1223 149 1199 175 q 1285 124 1247 124 z "},"‹":{"ha":493,"x_min":88,"x_max":406,"o":"m 406 690 l 253 429 l 406 169 l 240 169 l 88 429 l 240 690 l 406 690 z "},"›":{"ha":493,"x_min":88,"x_max":406,"o":"m 253 690 l 406 429 l 253 169 l 88 169 l 240 429 l 88 690 l 253 690 z "},"⁄":{"ha":264,"x_min":-208,"x_max":472,"o":"m -83 0 l -208 0 l 347 972 l 472 972 l -83 0 z "},"€":{"ha":849,"x_min":22,"x_max":818,"o":"m 660 283 l 818 193 q 500 -19 724 -19 q 247 82 346 -19 q 119 357 147 183 l 22 357 l 22 465 l 110 465 l 110 486 l 110 519 l 22 519 l 22 626 l 121 626 q 249 894 150 796 q 500 992 347 992 q 814 789 715 992 l 654 697 q 500 806 603 806 q 314 626 354 806 l 599 626 l 599 519 l 300 519 l 300 486 l 300 465 l 599 465 l 599 357 l 311 357 q 500 168 350 168 q 660 283 606 168 z "},"₽":{"ha":835,"x_min":18,"x_max":813,"o":"m 485 338 l 313 338 l 313 261 l 622 261 l 622 139 l 313 139 l 313 0 l 122 0 l 122 139 l 18 139 l 18 261 l 122 261 l 122 338 l 18 338 l 18 506 l 122 506 l 122 972 l 485 972 q 717 878 622 972 q 813 650 813 783 q 718 427 813 517 q 485 338 624 338 m 313 793 l 313 506 l 485 506 q 583 547 543 506 q 622 650 622 589 q 583 752 622 711 q 485 793 543 793 l 313 793 z "},"№":{"ha":1443,"x_min":90,"x_max":1399,"o":"m 1165 532 q 999 599 1065 532 q 932 761 932 667 q 999 924 932 857 q 1165 990 1065 990 q 1332 924 1265 990 q 1399 761 1399 857 q 1333 599 1399 665 q 1165 532 1267 532 m 653 972 l 844 972 l 844 0 l 699 0 l 282 594 l 282 0 l 90 0 l 90 972 l 236 972 l 653 379 l 653 972 m 1106 701 q 1118 690 1106 701 q 1165 678 1129 678 q 1224 701 1201 678 q 1247 761 1247 725 q 1224 821 1247 797 q 1165 844 1201 844 q 1106 821 1129 844 q 1083 761 1083 797 q 1106 701 1083 725 m 950 289 l 950 457 l 1383 457 l 1383 289 l 950 289 z "},"™":{"ha":657,"x_min":46,"x_max":613,"o":"m 283 972 l 283 894 l 207 894 l 207 694 l 122 694 l 122 894 l 46 894 l 46 972 l 283 972 m 532 972 l 613 972 l 613 694 l 532 694 l 532 846 l 465 744 l 458 744 l 392 846 l 392 694 l 311 694 l 311 972 l 392 972 l 463 865 l 532 972 z "},"℮":{"ha":1097,"x_min":35,"x_max":1063,"o":"m 178 842 q 250 914 178 842 q 549 986 322 986 q 919 842 775 986 q 1063 486 1063 697 q 1042 465 1063 465 l 264 465 q 243 444 243 465 l 243 178 q 253 151 243 163 q 576 28 369 28 q 897 163 778 28 q 922 175 908 175 l 974 175 q 992 167 988 175 q 986 149 996 158 q 576 -14 835 -14 q 183 130 332 -14 q 35 486 35 274 q 178 842 35 697 m 854 794 q 844 821 854 810 q 549 944 728 944 q 253 821 369 944 q 243 794 243 810 l 243 528 q 264 507 243 507 l 833 507 q 854 528 854 507 l 854 794 z "},"⅛":{"ha":1119,"x_min":4,"x_max":1090,"o":"m 301 417 l 153 417 l 153 822 l 39 790 l 4 913 l 171 972 l 301 972 l 301 417 m 718 972 l 843 972 l 288 0 l 163 0 l 718 972 m 1010 292 q 1090 151 1090 244 q 1034 27 1090 74 q 878 -19 978 -19 q 721 27 778 -19 q 664 151 664 74 q 746 292 664 244 q 683 408 683 335 q 738 530 683 485 q 878 575 793 575 q 1017 530 963 575 q 1072 408 1072 485 q 1010 292 1072 335 m 878 449 q 811 396 811 449 q 878 342 811 342 q 926 356 907 342 q 944 396 944 371 q 926 435 944 421 q 878 449 907 449 m 824 126 q 833 117 824 126 q 878 108 843 108 q 931 126 913 108 q 950 172 950 143 q 931 217 950 200 q 878 235 911 235 q 824 218 843 235 q 804 172 804 201 q 824 126 804 143 z "},"⅜":{"ha":1232,"x_min":14,"x_max":1203,"o":"m 446 585 q 389 446 446 494 q 231 397 332 397 q 14 521 69 397 l 139 593 q 231 528 163 528 q 297 585 297 528 q 278 625 297 610 q 226 640 258 640 l 200 640 l 144 721 l 240 838 l 39 838 l 39 972 l 421 972 l 421 863 l 321 743 q 413 685 381 726 q 446 585 446 644 m 831 972 l 956 972 l 400 0 l 275 0 l 831 972 m 1122 292 q 1203 151 1203 244 q 1147 27 1203 74 q 990 -19 1090 -19 q 833 27 890 -19 q 776 151 776 74 q 858 292 776 244 q 796 408 796 335 q 851 530 796 485 q 990 575 906 575 q 1130 530 1075 575 q 1185 408 1185 485 q 1122 292 1185 335 m 990 449 q 924 396 924 449 q 990 342 924 342 q 1038 356 1019 342 q 1057 396 1057 371 q 1038 435 1057 421 q 990 449 1019 449 m 936 126 q 946 117 936 126 q 990 108 956 108 q 1044 126 1025 108 q 1063 172 1063 143 q 1043 217 1063 200 q 990 235 1024 235 q 936 218 956 235 q 917 172 917 201 q 936 126 917 143 z "},"⅝":{"ha":1213,"x_min":18,"x_max":1183,"o":"m 438 579 q 381 444 438 492 q 235 397 325 397 q 18 521 74 397 l 140 590 q 231 525 165 525 q 301 582 301 525 q 283 625 301 608 q 231 642 265 642 l 53 642 l 75 972 l 411 972 l 411 838 l 200 838 l 194 763 l 240 763 q 384 717 331 763 q 438 579 438 671 m 811 972 l 936 972 l 381 0 l 256 0 l 811 972 m 1103 292 q 1183 151 1183 244 q 1127 27 1183 74 q 971 -19 1071 -19 q 814 27 871 -19 q 757 151 757 74 q 839 292 757 244 q 776 408 776 335 q 831 530 776 485 q 971 575 886 575 q 1110 530 1056 575 q 1165 408 1165 485 q 1103 292 1165 335 m 971 449 q 904 396 904 449 q 971 342 904 342 q 1019 356 1000 342 q 1038 396 1038 371 q 1019 435 1038 421 q 971 449 1000 449 m 917 126 q 926 117 917 126 q 971 108 936 108 q 1024 126 1006 108 q 1043 172 1043 143 q 1024 217 1043 200 q 971 235 1004 235 q 917 218 936 235 q 897 172 897 201 q 917 126 897 143 z "},"⅞":{"ha":1158,"x_min":4,"x_max":1129,"o":"m 213 417 l 58 417 l 226 838 l 4 838 l 4 972 l 388 972 l 388 858 l 213 417 m 757 972 l 882 972 l 326 0 l 201 0 l 757 972 m 1049 292 q 1129 151 1129 244 q 1073 27 1129 74 q 917 -19 1017 -19 q 760 27 817 -19 q 703 151 703 74 q 785 292 703 244 q 722 408 722 335 q 777 530 722 485 q 917 575 832 575 q 1056 530 1001 575 q 1111 408 1111 485 q 1049 292 1111 335 m 917 449 q 850 396 850 449 q 917 342 850 342 q 965 356 946 342 q 983 396 983 371 q 965 435 983 421 q 917 449 946 449 m 863 126 q 872 117 863 126 q 917 108 882 108 q 970 126 951 108 q 989 172 989 143 q 969 217 989 200 q 917 235 950 235 q 863 218 882 235 q 843 172 843 201 q 863 126 843 143 z "},"←":{"ha":1108,"x_min":63,"x_max":1046,"o":"m 1046 572 l 1046 400 l 386 400 l 717 69 l 479 69 l 63 486 l 479 903 l 717 903 l 386 572 l 1046 572 z "},"↑":{"ha":958,"x_min":63,"x_max":896,"o":"m 896 556 l 896 318 l 569 644 l 569 0 l 390 0 l 390 646 l 63 318 l 63 556 l 479 972 l 896 556 z "},"→":{"ha":1108,"x_min":63,"x_max":1046,"o":"m 629 903 l 1046 486 l 629 69 l 392 69 l 722 400 l 63 400 l 63 572 l 722 572 l 392 903 l 629 903 z "},"↓":{"ha":958,"x_min":63,"x_max":896,"o":"m 569 328 l 896 654 l 896 417 l 479 0 l 63 417 l 63 654 l 390 326 l 390 972 l 569 972 l 569 328 z "},"↔":{"ha":1507,"x_min":63,"x_max":1444,"o":"m 1067 865 l 1444 486 l 1067 108 l 833 108 l 1122 400 l 382 400 l 674 108 l 440 108 l 63 486 l 440 865 l 674 865 l 382 572 l 1125 572 l 833 865 l 1067 865 z "},"↕":{"ha":882,"x_min":63,"x_max":819,"o":"m 819 565 l 531 856 l 531 118 l 819 407 l 819 174 l 442 -206 l 63 174 l 63 407 l 351 119 l 351 854 l 63 565 l 63 799 l 442 1178 l 819 799 l 819 565 z "},"↖":{"ha":893,"x_min":63,"x_max":831,"o":"m 831 206 l 710 83 l 231 561 l 231 96 l 63 263 l 63 851 l 651 851 l 819 685 l 351 685 l 831 206 z "},"↗":{"ha":893,"x_min":63,"x_max":831,"o":"m 242 851 l 831 851 l 831 263 l 664 96 l 664 563 l 185 83 l 63 206 l 542 685 l 75 685 l 242 851 z "},"↘":{"ha":893,"x_min":63,"x_max":831,"o":"m 664 857 l 831 690 l 831 101 l 242 101 l 75 268 l 542 268 l 63 747 l 185 869 l 664 390 l 664 857 z "},"↙":{"ha":893,"x_min":63,"x_max":831,"o":"m 831 747 l 351 268 l 819 268 l 651 101 l 63 101 l 63 690 l 231 857 l 231 392 l 710 869 l 831 747 z "},"∂":{"ha":811,"x_min":60,"x_max":749,"o":"m 333 992 q 626 851 503 992 q 749 486 749 710 q 639 113 749 244 q 361 -19 529 -19 q 140 65 221 -19 q 60 278 60 150 q 144 512 60 421 q 374 603 229 603 q 565 547 479 603 q 486 748 551 675 q 311 822 421 821 q 151 778 232 824 l 151 942 q 333 992 229 992 m 368 150 q 501 215 450 150 q 565 394 551 281 q 399 444 494 444 q 284 402 329 444 q 239 283 239 360 q 274 186 239 222 q 368 150 310 150 z "},"∅":{"ha":1117,"x_min":56,"x_max":1061,"o":"m 917 839 q 1061 486 1061 692 q 914 131 1061 278 q 558 -17 767 -17 q 292 60 414 -17 l 222 -28 l 74 -28 l 201 132 q 56 486 56 281 q 203 842 56 694 q 558 989 350 989 q 825 913 703 989 l 894 1000 l 1044 1000 l 917 839 m 181 486 q 279 229 181 339 l 747 817 q 558 867 663 867 q 291 756 401 867 q 181 486 181 646 m 558 106 q 826 217 717 106 q 936 486 936 328 q 839 743 936 635 l 369 156 q 558 106 457 106 z "},"∏":{"ha":889,"x_min":90,"x_max":799,"o":"m 90 -278 l 90 972 l 799 972 l 799 -278 l 619 -278 l 619 800 l 269 800 l 269 -278 l 90 -278 z "},"∑":{"ha":782,"x_min":49,"x_max":729,"o":"m 49 -278 l 49 -125 l 344 361 l 69 818 l 69 972 l 708 972 l 708 800 l 281 800 l 546 361 l 261 -106 l 729 -106 l 729 -278 l 49 -278 z "},"−":{"ha":771,"x_min":74,"x_max":699,"o":"m 74 403 l 74 571 l 699 571 l 699 403 l 74 403 z "},"√":{"ha":939,"x_min":63,"x_max":932,"o":"m 374 0 l 204 276 l 63 276 l 63 449 l 307 449 l 446 208 l 749 1111 l 932 1111 l 547 0 l 374 0 z "},"∞":{"ha":1122,"x_min":71,"x_max":1050,"o":"m 799 729 q 978 662 907 729 q 1050 486 1050 594 q 978 310 1050 378 q 799 243 907 243 q 561 364 679 243 q 324 243 443 243 q 142 310 214 243 q 71 486 71 378 q 142 662 71 594 q 324 729 214 729 q 561 608 443 729 q 799 729 679 729 m 332 404 q 456 486 392 404 q 332 568 392 568 q 273 544 296 568 q 250 486 250 521 q 273 428 250 451 q 332 404 296 404 m 790 404 q 849 428 826 404 q 872 486 872 451 q 849 544 872 521 q 790 568 826 568 q 667 486 731 568 q 790 404 731 404 z "},"∫":{"ha":613,"x_min":0,"x_max":613,"o":"m 0 -283 l 0 -104 q 92 -108 46 -129 q 149 -26 138 -87 l 281 753 q 394 954 306 900 q 613 975 483 1008 l 613 797 q 518 801 565 821 q 461 719 471 781 l 328 -61 q 215 -262 303 -208 q 0 -283 126 -317 z "},"≈":{"ha":790,"x_min":63,"x_max":728,"o":"m 401 526 q 290 565 333 558 q 225 560 247 571 q 178 524 203 550 l 63 563 q 389 721 136 838 q 522 683 478 678 q 582 754 565 689 l 728 683 q 609 510 697 553 q 401 526 521 468 m 208 218 l 63 289 q 181 463 93 421 q 389 446 269 504 q 499 408 456 414 q 565 413 543 403 q 613 449 586 422 l 728 410 q 401 251 654 136 q 269 289 313 294 q 208 218 225 283 z "},"≠":{"ha":729,"x_min":63,"x_max":667,"o":"m 667 546 l 447 546 l 393 426 l 667 426 l 667 258 l 318 258 l 236 76 l 125 76 l 207 258 l 63 258 l 63 426 l 282 426 l 336 546 l 63 546 l 63 714 l 411 714 l 493 896 l 604 896 l 522 714 l 667 714 l 667 546 z "},"≤":{"ha":733,"x_min":63,"x_max":671,"o":"m 671 907 l 671 721 l 269 596 l 671 472 l 671 286 l 63 517 l 63 675 l 671 907 m 63 76 l 63 244 l 671 244 l 671 76 l 63 76 z "},"≥":{"ha":733,"x_min":63,"x_max":671,"o":"m 63 907 l 671 675 l 671 517 l 63 286 l 63 472 l 464 596 l 63 721 l 63 907 m 63 76 l 63 244 l 671 244 l 671 76 l 63 76 z "},"◊":{"ha":771,"x_min":60,"x_max":713,"o":"m 318 0 l 60 486 l 318 972 l 454 972 l 713 486 l 454 0 l 318 0 m 386 236 l 518 486 l 386 736 l 253 486 l 386 236 z "},"ﬁ":{"ha":774,"x_min":29,"x_max":692,"o":"m 692 694 l 692 0 l 513 0 l 513 522 l 308 522 l 308 0 l 129 0 l 129 522 l 29 522 l 29 694 l 129 694 l 129 701 q 456 992 129 992 q 618 972 529 992 l 618 808 q 456 819 525 819 q 344 794 381 819 q 308 701 308 768 l 308 694 l 692 694 z "},"ﬂ":{"ha":774,"x_min":29,"x_max":692,"o":"m 456 992 q 692 963 546 992 l 692 0 l 513 0 l 513 833 q 456 835 493 835 q 308 701 308 835 l 308 694 l 424 694 l 424 522 l 308 522 l 308 0 l 129 0 l 129 522 l 29 522 l 29 694 l 129 694 l 129 701 q 456 992 129 992 z "}}}
